<svg width="158" height="38" viewBox="0 0 158 38" fill="none" xmlns="http://www.w3.org/2000/svg">
<path d="M15.1978 30.3271C12.9497 30.3271 10.8976 29.9057 9.04344 29.0629C7.18928 28.2201 5.58796 27.0794 4.23752 25.6388C2.88904 24.1982 1.84632 22.5655 1.1074 20.7388C0.37044 18.912 0 17.0167 0 15.0489C0 13.3358 0.3136 11.6306 0.93884 9.9372C1.56408 8.24376 2.53624 6.63852 3.85728 5.12148C5.24888 3.5476 6.92272 2.30104 8.88272 1.37984C10.8427 0.460602 12.9811 0 15.2998 0C16.9579 0 18.4573 0.284203 19.7999 0.854563C21.1406 1.42296 22.2127 2.22068 23.0143 3.24576C23.816 4.27084 24.2158 5.488 24.2158 6.89136C24.2158 7.73416 23.9179 8.45152 23.3201 9.04148C22.7223 9.63144 22.0108 9.9274 21.1817 9.9274C20.0724 9.9274 19.1806 9.40016 18.5044 8.34764C18.2084 7.78512 18.0614 7.01288 18.0614 6.02896C18.0614 5.60756 18.0751 5.17832 18.1026 4.7432C18.13 4.30808 18.1437 3.88668 18.1437 3.479C18.1437 2.90276 18.0771 2.38336 17.9438 1.91884C17.8105 1.45432 17.54 1.08192 17.1324 0.801639C16.7247 0.521359 16.1132 0.38024 15.2998 0.38024C13.7827 0.38024 12.4342 0.725204 11.2524 1.41316C10.0724 2.10112 9.07872 3.0282 8.2712 4.1944C7.46368 5.3606 6.85216 6.68164 6.4386 8.15556C6.02308 9.63144 5.81728 11.1485 5.81728 12.7086C5.81728 14.7176 6.18184 16.6698 6.91292 18.5671C7.644 20.4644 8.771 22.0735 10.2959 23.3926C11.8208 24.7117 13.7631 25.5486 16.123 25.8994C16.6286 25.97 17.1422 26.0053 17.6616 26.0053C19.4452 26.0053 21.1249 25.58 22.6988 24.7293C24.2726 23.8787 25.529 22.591 26.4718 20.8622C26.1209 22.4224 25.4526 23.9081 24.4706 25.3193C23.4867 26.7305 22.2401 27.8967 20.7309 28.8179C19.2198 29.7391 17.5106 30.2408 15.5996 30.3251H15.1978V30.3271Z" fill="#FF9280"/>
<path d="M49.5392 29.7216V30.3253H43.4102V27.6068C42.6341 28.4692 40.6917 29.5923 38.8356 30.1959C37.9732 30.4547 36.8932 30.6272 35.7702 30.6272C32.0579 30.6272 27.742 29.0729 27.6558 25.4919V25.4057C27.6558 20.1823 38.618 19.4061 42.934 12.3717C42.1578 9.95503 40.4742 8.83195 37.7988 8.83195C36.6326 8.83195 35.1665 9.43563 34.2159 10.1275C33.526 10.6881 33.179 11.1643 33.179 11.5524C33.179 11.7249 33.2222 11.8543 33.3515 11.9836C33.7827 12.3717 33.9983 12.9323 33.9983 13.5379C33.9983 14.3572 33.524 15.2647 32.5734 15.7821C32.2284 15.9546 31.8835 16.0408 31.5385 16.0408C30.8486 16.0408 30.1998 15.739 29.7686 15.2647C29.5962 15.0922 29.3806 14.7904 29.3374 14.661C29.2081 14.316 29.1218 13.9711 29.1218 13.6261C29.1218 11.9425 30.9348 10.5626 33.6965 9.13771C34.9489 8.53403 36.5012 8.23219 37.8399 8.23219C42.932 8.23219 48.1985 12.3756 48.1985 18.2889V29.165C48.1985 29.4668 48.4572 29.7256 48.8022 29.7256H49.5392V29.7216ZM43.4102 15.6959C43.4102 14.8335 43.324 13.6673 43.1084 13.0205C40.4761 17.552 34.2178 19.7962 32.448 23.4653C32.1461 24.069 32.0168 24.6746 32.0168 25.2352C32.0168 27.6519 34.3903 29.508 37.3676 29.508C37.7125 29.508 38.0575 29.4649 38.4044 29.4217C40.5192 29.163 42.3754 27.9537 43.4102 26.7032V15.6959ZM77.5064 29.7216V30.3253H69.9957V29.7216H70.7718C71.1168 29.7216 71.3755 29.4629 71.3755 29.1611V16.1702C71.3755 10.9037 69.1744 9.13575 64.686 9.13575C60.9307 9.13575 57.8672 11.8974 57.8672 15.6528V29.1611C57.8672 29.4629 58.1259 29.7216 58.4709 29.7216H59.247V30.3253H51.7363V29.7216H52.4694C52.8143 29.7216 53.073 29.4629 53.073 29.1611V10.6449L51.9519 11.1193L51.7363 10.5587L55.7935 8.91819C55.966 8.83195 56.1816 8.83195 56.3541 8.83195C57.1302 8.83195 57.8652 9.47875 57.8652 10.3431V12.8892C59.0314 10.3 61.75 8.57323 64.7703 8.27139C65.2015 8.22827 65.6327 8.22827 66.109 8.22827C70.7268 8.22827 76.1658 10.5587 76.1658 17.0326V29.1611C76.1658 29.4629 76.4245 29.7216 76.7694 29.7216H77.5064ZM100.815 29.7216V30.3253H94.6858V27.6068C93.9096 28.4692 91.9673 29.5923 90.1112 30.1959C89.2488 30.4547 88.1688 30.6272 87.0457 30.6272C83.3335 30.6272 79.0176 29.0729 78.9313 25.4919V25.4057C78.9313 20.1823 89.8936 19.4061 94.2095 12.3717C93.4334 9.95503 91.7497 8.83195 89.0743 8.83195C87.9081 8.83195 86.442 9.43563 85.4914 10.1275C84.8015 10.6881 84.4566 11.1643 84.4566 11.5524C84.4566 11.7249 84.4997 11.8543 84.629 11.9836C85.0602 12.3717 85.2758 12.9323 85.2758 13.5379C85.2758 14.3572 84.8015 15.2647 83.8509 15.7821C83.506 15.9546 83.161 16.0408 82.816 16.0408C82.1261 16.0408 81.4774 15.739 81.0462 15.2647C80.8737 15.0922 80.6581 14.7904 80.615 14.661C80.4856 14.316 80.3994 13.9711 80.3994 13.6261C80.3994 11.9425 82.2124 10.5626 84.974 9.13771C86.2264 8.53403 87.7788 8.23219 89.1174 8.23219C94.2095 8.23219 99.476 12.3756 99.476 18.2889V29.165C99.476 29.4668 99.7348 29.7256 100.08 29.7256H100.815V29.7216ZM94.6858 15.6959C94.6858 14.8335 94.5996 13.6673 94.384 13.0205C91.7517 17.552 85.4934 19.7962 83.7235 23.4653C83.4217 24.069 83.2923 24.6746 83.2923 25.2352C83.2923 27.6519 85.6659 29.508 88.6431 29.508C88.9881 29.508 89.333 29.4649 89.68 29.4217C91.7948 29.163 93.6509 27.9537 94.6858 26.7032V15.6959ZM120.928 10.6449C120.971 10.7743 120.971 10.9037 120.971 11.033C120.971 11.1624 120.971 11.2486 120.928 11.378C120.756 12.3717 119.978 13.191 118.9 13.3635H118.598C118.037 13.3635 117.477 13.191 117.087 12.846C116.612 12.5011 116.31 11.9405 116.181 11.3349L116.095 10.6449C115.966 9.86879 115.319 9.30627 114.541 9.30627H114.325C111.132 9.82371 108.757 12.3266 108.757 15.6508V29.1591C108.757 29.461 109.015 29.7197 109.36 29.7197H110.093V30.3234H102.583V29.7197H103.359C103.704 29.7197 103.962 29.461 103.962 29.1591V10.3843L102.839 10.8586L102.581 10.298L106.638 8.70063C106.853 8.61439 107.026 8.57127 107.242 8.57127C108.061 8.57127 108.753 9.26119 108.753 10.1256V12.9303C109.744 10.6861 111.818 9.17495 114.278 8.57127C114.709 8.48503 115.142 8.39879 115.574 8.35567C115.832 8.31255 116.091 8.31255 116.393 8.31255H116.436C116.522 8.26943 116.608 8.26943 116.738 8.26943C116.824 8.26943 116.953 8.26943 117.04 8.31255H117.212C119.327 8.35567 120.666 9.00247 120.924 10.5999V10.6449H120.928ZM147.688 8.57323V9.17691H146.22C146.004 9.17691 145.789 9.30627 145.703 9.52187L137.416 25.88L134.783 31.0172C134.783 31.0172 134.223 32.1403 133.445 33.6495C132.322 35.8937 130.769 37.4911 127.876 37.836C127.79 37.836 127.402 37.8792 126.842 37.8792C125.374 37.8792 122.827 37.5773 122.526 35.5487C122.526 35.4193 122.483 35.29 122.483 35.1606C122.483 35.0313 122.526 34.9019 122.526 34.8157C122.698 33.8219 123.519 33.0027 124.554 32.8302C124.684 32.8302 124.77 32.7871 124.899 32.7871C125.46 32.7871 125.979 33.0027 126.41 33.3476C126.842 33.6926 127.187 34.2532 127.273 34.8588L127.359 35.5487C127.488 36.3249 128.135 36.8874 128.87 36.8874H129.086C130.511 36.6718 131.847 35.4625 132.798 33.6495L134.439 30.4566L123.088 9.48071C123.002 9.30823 122.786 9.17887 122.571 9.17887H121.881V8.57519H129.521V9.17887H128.831C128.658 9.17887 128.572 9.30823 128.572 9.43759C128.572 9.48071 128.572 9.56695 128.615 9.61007L137.075 25.2332L145.017 9.52187C145.017 9.47875 145.06 9.43563 145.06 9.39251C145.06 9.26315 144.93 9.17691 144.801 9.17691H143.419V8.57323H147.688Z" fill="#45315D"/>
<path d="M157.025 24.5178C157.025 27.8517 154.322 30.5546 150.988 30.5546C147.654 30.5546 144.952 27.8517 144.952 24.5178C144.952 21.1838 147.654 18.481 150.988 18.481C154.322 18.479 157.025 21.1818 157.025 24.5178Z" fill="#FF9280"/>
<path d="M23.0181 3.24592C23.3866 3.71828 23.6473 4.25533 23.6649 4.29061C24.0334 5.07069 24.2196 5.93701 24.2196 6.89152C24.2196 7.73432 23.9217 8.45168 23.3239 9.04165C22.7261 9.6316 22.0127 9.92756 21.1836 9.92756C20.0742 9.92756 19.1824 9.40032 18.5082 8.3478C18.2122 7.78528 18.0652 7.01305 18.0652 6.02913C18.0652 5.60773 18.0789 5.17849 18.1064 4.74337C18.1338 4.30825 18.1495 3.88684 18.1495 3.47916C18.1495 2.90292 18.0829 2.38353 17.9496 1.91901C17.8712 1.64461 17.779 1.48585 17.6908 1.35649C17.4145 0.946847 17.1185 0.862563 17.1381 0.801803C17.2067 0.582283 21.2287 0.954684 23.0181 3.24592Z" fill="#45315D"/>
</svg>
