<svg width="70" height="41" viewBox="0 0 70 41" fill="none" xmlns="http://www.w3.org/2000/svg">
<path d="M12.7121 35.0065C18.4534 30.0917 24.1947 25.1771 30.0145 20.1952C24.2162 15.2308 18.4625 10.3047 12.5287 5.22429C12.4935 6.04735 12.4633 6.68017 12.44 7.31346C12.4224 7.79294 12.4523 8.27773 12.3925 8.75144C12.2917 9.54929 11.6695 10.0702 10.889 10.0744C10.0858 10.0788 9.37997 9.51729 9.35233 8.69926C9.31331 7.54099 9.2603 6.35891 9.43859 5.22234C9.92317 2.13068 12.4569 0.00845096 15.5834 0.00678775C31.6093 -0.00216153 47.6352 -0.00351956 63.6612 0.010427C67.254 0.0136161 69.9491 2.6138 69.9663 6.20359C70.0111 15.5331 70.0115 24.863 69.9658 34.1925C69.9484 37.7743 67.2423 40.3746 63.65 40.3778C47.6494 40.3921 31.6487 40.3942 15.6481 40.3817C12.0576 40.379 9.37496 37.6778 9.32378 34.097C9.31376 33.389 9.30754 32.6808 9.32242 31.9732C9.34308 30.9885 9.93987 30.3388 10.8226 30.3101C11.7476 30.2803 12.3931 30.9075 12.4271 31.9412C12.4599 32.9393 12.4343 33.9392 12.4343 34.9384C12.5269 34.9611 12.6195 34.9837 12.7121 35.0065ZM14.932 3.15273C15.2541 3.44594 15.4149 3.60051 15.5842 3.74521C23.1415 10.2032 30.6986 16.6614 38.2583 23.1165C39.3447 24.044 39.9879 24.0431 41.0523 23.1335C48.6093 16.675 56.1655 10.2155 63.7209 3.75553C63.9051 3.59794 64.0793 3.42866 64.3806 3.15273H14.932ZM14.9233 37.2084H64.3986C58.4734 32.1334 52.7001 27.1885 46.9036 22.2236C46.1349 22.887 45.4274 23.4958 44.7217 24.1068C44.0139 24.7193 43.3224 25.3514 42.5985 25.944C41.0237 27.2337 38.9699 27.3887 37.2957 26.3565C37.0178 26.1849 36.7631 25.9712 36.5145 25.7575C35.1587 24.5921 33.8081 23.4205 32.4247 22.224C26.6074 27.2047 20.8487 32.1351 14.9233 37.2084ZM49.3128 20.197C55.1362 25.1817 60.8909 30.1074 66.7916 35.158V5.22628C60.8911 10.28 55.138 15.2076 49.3128 20.197Z" fill="url(#paint0_linear_45_6553)"/>
<path d="M8.50436 25.6474C6.22969 25.6468 3.95502 25.6507 1.6805 25.6445C0.956959 25.6425 0.391627 25.3252 0.127848 24.6435C-0.107417 24.0353 -0.0373376 23.3959 0.500689 22.9873C0.83834 22.7308 1.31782 22.5322 1.73541 22.5293C6.28445 22.4975 10.8338 22.4991 15.383 22.5175C16.4158 22.5216 17.0756 23.1743 17.0799 24.0705C17.0841 25.0067 16.4072 25.637 15.3282 25.6437C13.0537 25.6578 10.7789 25.648 8.50436 25.6474Z" fill="url(#paint1_linear_45_6553)"/>
<path d="M10.8705 14.7441C12.3363 14.7441 13.8022 14.7352 15.2679 14.747C16.3732 14.7559 17.0511 15.3382 17.0736 16.2635C17.0969 17.2246 16.4137 17.8682 15.2825 17.8744C12.3508 17.8902 9.41922 17.8893 6.48775 17.8749C5.36422 17.8694 4.64387 17.2117 4.66449 16.2784C4.68512 15.349 5.40942 14.752 6.54888 14.7459C7.98943 14.7383 9.42999 14.7441 10.8705 14.7441Z" fill="url(#paint2_linear_45_6553)"/>
<defs>
<linearGradient id="paint0_linear_45_6553" x1="70.0001" y1="3.46067e-06" x2="12.8918" y2="3.46067e-06" gradientUnits="userSpaceOnUse">
<stop offset="1" stop-color="#9367C7"/>
<stop stop-color="#45315D"/>
</linearGradient>
<linearGradient id="paint1_linear_45_6553" x1="17.0799" y1="22.5044" x2="1.00711" y2="22.5044" gradientUnits="userSpaceOnUse">
<stop offset="1" stop-color="#9367C7"/>
<stop stop-color="#45315D"/>
</linearGradient>
<linearGradient id="paint2_linear_45_6553" x1="17.0742" y1="14.7408" x2="5.39582" y2="14.7408" gradientUnits="userSpaceOnUse">
<stop offset="1" stop-color="#9367C7"/>
<stop stop-color="#45315D"/>
</linearGradient>
</defs>
</svg>
