<svg width="58" height="58" viewBox="0 0 58 58" fill="none" xmlns="http://www.w3.org/2000/svg">
<path d="M0 28.9466C0.00217438 15.0213 9.95407 3.08214 23.717 0.496578C39.337 -2.43798 54.5412 7.93966 57.4888 23.5474C60.4207 39.0717 50.4505 54.1284 35.0266 57.3397C26.9675 59.0178 19.4814 57.481 12.6271 52.9146C11.7289 52.3163 11.4083 51.4715 11.7098 50.5891C12.0043 49.7271 12.8038 49.1673 13.7223 49.3046C14.1574 49.3697 14.5961 49.5978 14.9716 49.8454C17.8096 51.7183 20.8677 53.091 24.2263 53.6404C34.4306 55.3096 42.8177 52.1024 49.161 43.9395C52.784 39.2771 54.3171 33.85 54.1158 27.9566C53.7238 16.485 45.2015 6.54804 33.9145 4.3623C20.9222 1.8463 8.36142 9.52027 4.81227 22.2673C2.79358 29.5174 3.92916 36.3654 7.95978 42.7306C8.2463 43.1829 8.5571 43.6615 8.67463 44.1699C8.87829 45.0512 8.32397 45.9261 7.49799 46.2532C6.6499 46.5892 5.72571 46.3003 5.16535 45.4981C3.32978 42.8702 1.98898 40.0055 1.10634 36.927C0.358996 34.3202 0.00253582 31.6574 0 28.9466Z" fill="url(#paint0_linear_45_6572)"/>
<path d="M27.0727 20.2691C27.0731 17.391 27.0656 14.5129 27.0771 11.6348C27.0812 10.6023 27.8038 9.79856 28.7776 9.68275C29.7479 9.5673 30.6688 10.2136 30.8859 11.1873C30.942 11.4386 30.9358 11.7068 30.9361 11.9671C30.9397 17.1397 30.9458 22.3123 30.932 27.4848C30.9306 27.9796 31.0531 28.3344 31.4184 28.695C34.2398 31.481 37.0328 34.2957 39.8425 37.0938C40.3409 37.59 40.6569 38.1493 40.5602 38.8654C40.4578 39.6231 40.0446 40.1742 39.32 40.4402C38.5472 40.7238 37.8456 40.5523 37.2647 39.978C35.8332 38.5629 34.4131 37.1364 32.9893 35.7137C31.2665 33.9922 29.5524 32.262 27.8176 30.5526C27.295 30.0376 27.061 29.4543 27.0655 28.7222C27.0825 25.9045 27.0724 23.0867 27.0727 20.2691Z" fill="url(#paint1_linear_45_6572)"/>
<defs>
<linearGradient id="paint0_linear_45_6572" x1="58.0001" y1="4.96952e-06" x2="3.41996" y2="4.96952e-06" gradientUnits="userSpaceOnUse">
<stop offset="1" stop-color="#9367C7"/>
<stop stop-color="#45315D"/>
</linearGradient>
<linearGradient id="paint1_linear_45_6572" x1="40.5776" y1="9.66944" x2="27.8622" y2="9.66944" gradientUnits="userSpaceOnUse">
<stop offset="1" stop-color="#9367C7"/>
<stop stop-color="#45315D"/>
</linearGradient>
</defs>
</svg>
