<svg width="61" height="61" viewBox="0 0 61 61" fill="none" xmlns="http://www.w3.org/2000/svg">
<path d="M35.5037 0.363525L35.1054 3.28023L36.8727 3.62097L37.595 0.769056C36.9063 0.609483 36.2092 0.473907 35.5037 0.363525ZM48.5059 40.4607C48.4807 39.6461 48.1136 38.8698 47.4717 38.2735C45.876 36.7917 44.1771 35.256 42.4206 33.7095C41.5135 32.9116 40.4529 32.6644 39.1763 32.9548C38.3197 33.1492 37.6502 33.7215 36.8751 34.385C36.7971 34.4509 36.7204 34.5181 36.6423 34.5841C35.6837 35.3964 34.9086 35.3544 34.0496 34.4425C31.5828 31.8234 29.116 29.203 26.6516 26.5827C25.8358 25.7164 25.7794 24.7806 26.4813 23.8003C26.6228 23.6036 26.768 23.4128 26.9084 23.2292C27.0944 22.9857 27.2695 22.7565 27.4279 22.5226C28.4849 20.9604 28.4249 19.0659 27.2719 17.5782L27.2431 17.541C26.0254 15.9705 24.7668 14.3484 23.5178 12.7622C22.8531 11.9176 22.042 11.4496 21.1734 11.4076C20.3635 11.3705 19.5369 11.7232 18.8278 12.4071C18.805 12.4287 18.7834 12.4515 18.7618 12.4731C18.739 12.4959 18.7162 12.5187 18.6946 12.5415H18.6934C18.5038 12.7406 18.3143 12.9398 18.1259 13.1402C17.9363 13.3393 17.7468 13.5385 17.5584 13.7389C16.6705 14.6771 15.7527 15.6489 14.8193 16.5836C13.6195 17.7858 13.0352 19.2339 13.0352 21.0108C13.0471 21.1452 13.0567 21.2808 13.0664 21.4151C13.0892 21.7199 13.1095 22.0078 13.1491 22.285C13.4335 24.2971 14.1702 26.2707 15.3988 28.3164C19.3713 34.9273 24.69 40.7127 31.2073 45.5107C33.4197 47.1388 35.5409 48.1322 37.691 48.5461C40.0846 49.0069 41.8303 48.5929 43.1848 47.2456C44.6258 45.8118 46.0715 44.3313 47.6049 42.7175C48.212 42.0792 48.5311 41.2778 48.5059 40.4607ZM46.0008 41.273C45.6204 41.6641 45.2329 42.0492 44.8574 42.4212C43.9995 43.2742 43.1884 44.0781 42.4554 44.954C41.5663 46.0158 40.4961 46.5425 39.2123 46.5425C38.7024 46.5425 38.1577 46.4597 37.5782 46.2941C35.6153 45.7326 33.7124 44.7308 31.758 43.2334C26.047 38.8578 21.3042 33.7035 17.6616 27.9168C16.4318 25.9648 15.6723 24.1183 15.3376 22.2718C14.9956 20.3857 15.4371 18.904 16.6873 17.7414C17.532 16.9555 18.3179 16.1109 19.1493 15.2158C19.5141 14.8247 19.8896 14.4191 20.2735 14.0172L21.0894 13.163L22.8591 15.4318C23.7925 16.628 24.708 17.8002 25.6198 18.976C25.8826 19.3143 26.4021 20.2274 25.5754 21.4044C25.4171 21.6311 25.2527 21.8471 25.0931 22.0558C24.9359 22.2622 24.7872 22.4566 24.6492 22.6557C23.4482 24.3726 23.585 26.4603 24.9983 27.9732C27.7699 30.9391 30.2834 33.6075 32.683 36.1319C34.0748 37.5968 36.0976 37.7432 37.7162 36.4966C37.8661 36.3814 38.0173 36.2482 38.1781 36.1079C38.4552 35.8643 38.7432 35.6123 39.0887 35.3904C39.5579 35.088 40.5153 34.9381 41.0924 35.4408C42.375 36.559 43.6624 37.7276 44.9066 38.8566C45.2545 39.1721 45.6036 39.4877 45.954 39.8056L46.7386 40.5147L46.0008 41.273ZM56.5206 14.5151C58.0119 16.9867 59.1445 19.6874 59.9148 22.6101C59.1805 19.7222 58.0263 17.0011 56.5206 14.5151ZM49.7981 6.77164C51.515 8.1922 53.0412 9.74353 54.3729 11.422C53.022 9.71114 51.4862 8.1502 49.7981 6.77164Z" fill="url(#paint0_linear_45_6563)"/>
<path d="M60.1758 30.0849C60.1758 30.2014 60.1746 30.3179 60.1734 30.4344V30.4356C59.992 46.2899 47.5534 59.1982 31.8892 60.1217C31.2936 60.1578 30.6931 60.1758 30.0879 60.1758C29.5235 60.1758 28.9627 60.1602 28.4067 60.1289C13.1676 59.2894 0.952293 47.1114 0.0540393 31.8864C0.0180131 31.2907 0 30.6902 0 30.0849C0 29.494 0.0168122 28.9079 0.0516375 28.3254C0.927074 13.1209 13.0907 0.94278 28.289 0.0480398C28.6865 0.0240199 29.0864 0.00720599 29.4874 0V2.92802C20.9721 3.32075 14.0298 6.79042 8.84564 13.2446C4.6774 18.434 2.70437 24.4823 2.98057 31.221C3.51496 44.2422 13.2877 55.0619 26.2187 56.9451C39.3178 58.8535 51.8189 51.0134 55.9439 38.3021C58.1175 31.6017 57.5579 24.3682 54.3684 17.9332C52.8384 14.8467 50.7921 12.1228 48.2847 9.83734C45.8566 7.62391 43.1102 5.9281 40.1116 4.79317L41.1191 2.08132C43.9448 3.19464 46.5615 4.72351 48.8936 6.59345C48.896 6.59466 48.8972 6.59706 48.8996 6.59826C48.9152 6.61147 48.9308 6.62348 48.9476 6.63669C49.0052 6.68353 49.0617 6.72917 49.1193 6.77841C50.8378 8.20038 52.3653 9.75327 53.6983 11.4335C53.7763 11.5319 53.8544 11.6316 53.9312 11.7313C54.0982 11.9451 54.2603 12.1613 54.4188 12.381C54.4608 12.4387 54.5029 12.4951 54.5425 12.5528C54.6229 12.6621 54.701 12.7726 54.7779 12.8831C54.8727 13.0188 54.964 13.1545 55.0565 13.2914C55.0757 13.3202 55.0961 13.3478 55.1153 13.3779C55.1585 13.4427 55.2018 13.5088 55.245 13.5736C55.3146 13.6781 55.3831 13.7838 55.4503 13.8895C55.5176 13.9952 55.5848 14.1021 55.6509 14.2078C55.7169 14.3146 55.783 14.4227 55.8478 14.5296C57.3405 17.0037 58.4741 19.7071 59.2451 22.6327C59.2535 22.6615 59.2607 22.6916 59.2679 22.7204C59.2691 22.7252 59.2703 22.7312 59.2715 22.736C59.8624 25.0876 60.1758 27.5508 60.1758 30.0849Z" fill="url(#paint1_linear_45_6563)"/>
<defs>
<linearGradient id="paint0_linear_45_6563" x1="53.1114" y1="17.9173" x2="54.7196" y2="17.9173" gradientUnits="userSpaceOnUse">
<stop offset="1" stop-color="#45315D"/>
<stop stop-color="#9367C7"/>
</linearGradient>
<linearGradient id="paint1_linear_45_6563" x1="60.1759" y1="5.15595e-06" x2="3.54825" y2="5.15595e-06" gradientUnits="userSpaceOnUse">
<stop offset="1" stop-color="#45315D"/>
<stop stop-color="#9367C7"/>
</linearGradient>
</defs>
</svg>
