<svg width="226" height="676" viewBox="0 0 226 676" fill="none" xmlns="http://www.w3.org/2000/svg">
<path opacity="0.5" d="M37.7766 254.59C40.0714 176.012 103.688 176.066 215.431 138.832C327.175 101.597 339.825 38.7707 425.449 83.9045C511.072 129.038 469.506 177.713 533.19 272.578C596.875 367.442 642.911 384.897 614.122 450.396C585.333 515.894 527.211 491.85 418.034 534.572C308.858 577.293 302.612 666.304 243.483 634.249C184.353 602.195 217.814 531.988 151.562 431.636C85.3098 331.284 35.4817 333.168 37.7766 254.59Z" fill="#45315D"/>
<path d="M176.36 89.4484H176.344C174.453 89.4484 172.927 90.9791 172.927 92.8723C172.927 94.7607 174.47 96.2961 176.36 96.2961C178.251 96.2961 179.784 94.7607 179.784 92.8723C179.784 90.9791 178.251 89.4484 176.36 89.4484ZM176.36 110.939H176.344C174.453 110.939 172.927 112.472 172.927 114.363C172.927 116.254 174.47 117.787 176.36 117.787C178.251 117.787 179.784 116.254 179.784 114.363C179.784 112.472 178.251 110.939 176.36 110.939ZM176.36 153.926H176.344C174.453 153.926 172.927 155.459 172.927 157.35C172.927 159.24 174.47 160.773 176.36 160.773C178.251 160.773 179.784 159.24 179.784 157.35C179.784 155.459 178.251 153.926 176.36 153.926ZM176.36 132.433H176.344C174.453 132.433 172.927 133.966 172.927 135.856C172.927 137.747 174.47 139.28 176.36 139.28C178.251 139.28 179.784 137.747 179.784 135.856C179.784 133.966 178.251 132.433 176.36 132.433ZM200.836 24.9642H200.817C198.927 24.9642 197.403 26.4972 197.403 28.388C197.403 30.2788 198.945 31.8119 200.836 31.8119C202.727 31.8119 204.26 30.2788 204.26 28.388C204.26 26.4972 202.727 24.9642 200.836 24.9642ZM176.36 67.9529H176.344C174.453 67.9529 172.927 69.4859 172.927 71.3767C172.927 73.2675 174.47 74.8006 176.36 74.8006C178.251 74.8006 179.784 73.2675 179.784 71.3767C179.784 69.4859 178.251 67.9529 176.36 67.9529ZM151.885 117.787C153.775 117.787 155.308 116.254 155.308 114.363C155.308 112.472 153.775 110.939 151.885 110.939H151.868C149.978 110.939 148.451 112.472 148.451 114.363C148.451 116.254 149.994 117.787 151.885 117.787ZM151.885 139.28C153.775 139.28 155.308 137.747 155.308 135.856C155.308 133.966 153.775 132.433 151.885 132.433H151.868C149.978 132.433 148.451 133.966 148.451 135.856C148.451 137.747 149.994 139.28 151.885 139.28ZM176.36 3.47095H176.344C174.453 3.47095 172.927 5.004 172.927 6.89481C172.927 8.78558 174.47 10.3186 176.36 10.3186C178.251 10.3186 179.784 8.78558 179.784 6.89481C179.784 5.004 178.251 3.47095 176.36 3.47095ZM176.36 24.9642H176.344C174.453 24.9642 172.927 26.4972 172.927 28.388C172.927 30.2788 174.47 31.8119 176.36 31.8119C178.251 31.8119 179.784 30.2788 179.784 28.388C179.784 26.4972 178.251 24.9642 176.36 24.9642ZM176.36 46.4573H176.344C174.453 46.4573 172.927 47.9904 172.927 49.8812C172.927 51.772 174.47 53.3051 176.36 53.3051C178.251 53.3051 179.784 51.772 179.784 49.8812C179.784 47.9904 178.251 46.4573 176.36 46.4573ZM249.785 96.2961C251.676 96.2961 253.209 94.7607 253.209 92.8723C253.209 90.9791 251.676 89.4484 249.785 89.4484H249.769C247.878 89.4484 246.354 90.9791 246.354 92.8723C246.354 94.7607 247.894 96.2961 249.785 96.2961ZM249.785 74.8006C251.676 74.8006 253.209 73.2675 253.209 71.3767C253.209 69.4859 251.676 67.9529 249.785 67.9529H249.769C247.878 67.9529 246.354 69.4859 246.354 71.3767C246.354 73.2675 247.894 74.8006 249.785 74.8006ZM248.452 53.0356C248.863 53.2098 249.314 53.3051 249.785 53.3051C250.287 53.3051 250.754 53.1866 251.181 52.9938L251.218 52.9683C251.634 52.7755 251.996 52.4991 252.301 52.1622C252.851 51.5536 253.209 50.7662 253.209 49.8812C253.209 47.9904 251.676 46.4573 249.785 46.4573H249.769C247.878 46.4573 246.354 47.9904 246.354 49.8812C246.354 51.3004 247.221 52.5177 248.452 53.0356ZM154.305 154.929C154.203 154.827 154.063 154.778 153.95 154.69C153.371 154.239 152.677 153.926 151.885 153.926H151.866C149.975 153.926 148.451 155.459 148.451 157.35C148.451 158.279 148.83 159.117 149.434 159.733L149.436 159.74C150.061 160.374 150.925 160.773 151.885 160.773C152.066 160.773 152.221 160.697 152.393 160.671H152.396L152.403 160.669C153.209 160.541 153.917 160.17 154.43 159.582C154.514 159.491 154.563 159.38 154.635 159.28C154.79 159.062 154.955 158.852 155.055 158.597C155.211 158.218 155.304 157.805 155.304 157.366L155.308 157.35C155.308 156.481 154.958 155.71 154.423 155.106C154.377 155.052 154.356 154.98 154.305 154.929ZM151.885 96.2961C153.775 96.2961 155.308 94.7607 155.308 92.8723C155.308 90.9791 153.775 89.4484 151.885 89.4484H151.868C149.978 89.4484 148.451 90.9791 148.451 92.8723C148.451 94.7607 149.994 96.2961 151.885 96.2961ZM200.836 132.433H200.817C198.927 132.433 197.403 133.966 197.403 135.856C197.403 137.747 198.945 139.28 200.836 139.28C202.727 139.28 204.26 137.747 204.26 135.856C204.26 133.966 202.727 132.433 200.836 132.433ZM200.836 67.9529H200.817C198.927 67.9529 197.403 69.4859 197.403 71.3767C197.403 73.2675 198.945 74.8006 200.836 74.8006C202.727 74.8006 204.26 73.2675 204.26 71.3767C204.26 69.4859 202.727 67.9529 200.836 67.9529ZM200.836 89.4484H200.817C198.927 89.4484 197.403 90.9791 197.403 92.8723C197.403 94.7607 198.945 96.2961 200.836 96.2961C202.727 96.2961 204.26 94.7607 204.26 92.8723C204.26 90.9791 202.727 89.4484 200.836 89.4484ZM200.836 110.939H200.817C198.927 110.939 197.403 112.472 197.403 114.363C197.403 116.254 198.945 117.787 200.836 117.787C202.727 117.787 204.26 116.254 204.26 114.363C204.26 112.472 202.727 110.939 200.836 110.939ZM200.836 46.4573H200.817C198.927 46.4573 197.403 47.9904 197.403 49.8812C197.403 51.772 198.945 53.3051 200.836 53.3051C202.727 53.3051 204.26 51.772 204.26 49.8812C204.26 47.9904 202.727 46.4573 200.836 46.4573ZM225.312 24.9642H225.293C223.402 24.9642 221.879 26.4972 221.879 28.388C221.879 30.2788 223.421 31.8119 225.312 31.8119C227.203 31.8119 228.736 30.2788 228.736 28.388C228.736 26.4972 227.203 24.9642 225.312 24.9642ZM200.836 10.3186C202.727 10.3186 204.26 8.78558 204.26 6.89481L204.258 6.89014C204.258 6.33499 204.095 5.83093 203.858 5.36636C203.835 5.32455 203.805 5.29202 203.779 5.25024C203.531 4.80655 203.191 4.44653 202.78 4.15384L202.778 4.15152C202.218 3.75436 201.572 3.47095 200.836 3.47095H200.817C198.927 3.47095 197.401 5.004 197.401 6.89481C197.401 8.78558 198.945 10.3186 200.836 10.3186ZM225.312 110.939H225.293C223.402 110.939 221.879 112.472 221.879 114.363C221.879 116.254 223.421 117.787 225.312 117.787C227.203 117.787 228.736 116.254 228.736 114.363C228.736 112.472 227.203 110.939 225.312 110.939ZM225.312 132.433H225.293C223.402 132.433 221.879 133.966 221.879 135.856C221.879 137.747 223.421 139.28 225.312 139.28C227.203 139.28 228.736 137.747 228.736 135.856C228.736 133.966 227.203 132.433 225.312 132.433ZM225.312 46.4573H225.293C223.402 46.4573 221.879 47.9904 221.879 49.8812C221.879 51.772 223.421 53.3051 225.312 53.3051C227.203 53.3051 228.736 51.772 228.736 49.8812C228.736 47.9904 227.203 46.4573 225.312 46.4573ZM225.312 89.4484H225.293C223.402 89.4484 221.879 90.9791 221.879 92.8723C221.879 94.7607 223.421 96.2961 225.312 96.2961C227.203 96.2961 228.736 94.7607 228.736 92.8723C228.736 90.9791 227.203 89.4484 225.312 89.4484ZM102.933 46.4573H102.915C102.524 46.4573 102.164 46.5456 101.825 46.678C101.516 46.7848 101.247 46.9451 100.984 47.131L100.982 47.1333C100.106 47.7535 99.5023 48.7268 99.5023 49.8812C99.5023 50.0276 99.5673 50.153 99.5836 50.2947L99.5859 50.304C99.695 51.1379 100.069 51.8742 100.668 52.4085C100.747 52.4828 100.849 52.5246 100.935 52.5897C101.17 52.7616 101.398 52.9404 101.67 53.0496C102.06 53.2098 102.482 53.3051 102.933 53.3051C104.352 53.3051 105.569 52.4433 106.088 51.2145C106.262 50.8057 106.357 50.3551 106.357 49.8812C106.357 49.4096 106.262 48.959 106.088 48.5502C105.569 47.3191 104.352 46.4573 102.933 46.4573ZM225.312 67.9529H225.293C223.402 67.9529 221.879 69.4859 221.879 71.3767C221.879 73.2675 223.421 74.8006 225.312 74.8006C227.203 74.8006 228.736 73.2675 228.736 71.3767C228.736 69.4859 227.203 67.9529 225.312 67.9529ZM102.933 110.939H102.915C102.482 110.939 102.083 111.034 101.709 111.183C101.518 111.255 101.361 111.371 101.189 111.476C101.045 111.566 100.896 111.648 100.768 111.762C100.543 111.945 100.364 112.159 100.195 112.396C100.162 112.445 100.129 112.491 100.097 112.542C99.9111 112.83 99.774 113.132 99.6812 113.471L99.6789 113.476C99.5999 113.766 99.5023 114.047 99.5023 114.363C99.5023 115.713 100.304 116.853 101.44 117.411H101.442H101.444C101.895 117.631 102.383 117.78 102.917 117.782L102.933 117.787C104.824 117.787 106.357 116.254 106.357 114.363C106.357 113.889 106.262 113.439 106.088 113.03C105.569 111.801 104.352 110.939 102.933 110.939ZM102.933 67.9529H102.915C101.024 67.9529 99.5 69.4859 99.5 71.3767C99.5 73.2675 101.042 74.8006 102.933 74.8006C104.824 74.8006 106.357 73.2675 106.357 71.3767C106.357 69.4859 104.824 67.9529 102.933 67.9529ZM102.933 89.4484H102.915C101.024 89.4484 99.5 90.9791 99.5 92.8723C99.5 94.7607 101.042 96.2961 102.933 96.2961C104.824 96.2961 106.357 94.7607 106.357 92.8723C106.357 90.9791 104.824 89.4484 102.933 89.4484ZM127.411 67.9529H127.393C125.502 67.9529 123.978 69.4859 123.978 71.3767C123.978 73.2675 125.52 74.8006 127.411 74.8006C129.3 74.8006 130.835 73.2675 130.835 71.3767C130.835 69.4859 129.3 67.9529 127.411 67.9529ZM151.885 10.3186C153.775 10.3186 155.308 8.78558 155.308 6.89481C155.308 5.004 153.775 3.47095 151.885 3.47095H151.868C149.978 3.47095 148.451 5.004 148.451 6.89481C148.451 8.78558 149.994 10.3186 151.885 10.3186ZM151.885 53.3051C153.775 53.3051 155.308 51.772 155.308 49.8812C155.308 47.9904 153.775 46.4573 151.885 46.4573H151.868C149.978 46.4573 148.451 47.9904 148.451 49.8812C148.451 51.772 149.994 53.3051 151.885 53.3051ZM151.885 31.8119C153.775 31.8119 155.308 30.2788 155.308 28.388C155.308 26.4972 153.775 24.9642 151.885 24.9642H151.868C149.978 24.9642 148.451 26.4972 148.451 28.388C148.451 30.2788 149.994 31.8119 151.885 31.8119ZM127.411 110.939H127.393C125.502 110.939 123.978 112.472 123.978 114.363C123.978 116.254 125.52 117.787 127.411 117.787C129.3 117.787 130.835 116.254 130.835 114.363C130.835 112.472 129.3 110.939 127.411 110.939ZM127.411 89.4484H127.393C125.502 89.4484 123.978 90.9791 123.978 92.8723C123.978 94.7607 125.52 96.2961 127.411 96.2961C129.3 96.2961 130.835 94.7607 130.835 92.8723C130.835 90.9791 129.3 89.4484 127.411 89.4484ZM127.411 24.9642H127.393C125.502 24.9642 123.978 26.4972 123.978 28.388C123.978 30.2788 125.52 31.8119 127.411 31.8119C129.3 31.8119 130.835 30.2788 130.835 28.388C130.835 26.4972 129.3 24.9642 127.411 24.9642ZM151.885 74.8006C153.775 74.8006 155.308 73.2675 155.308 71.3767C155.308 69.4859 153.775 67.9529 151.885 67.9529H151.868C149.978 67.9529 148.451 69.4859 148.451 71.3767C148.451 73.2675 149.994 74.8006 151.885 74.8006ZM127.411 132.433H127.393C125.502 132.433 123.978 133.966 123.978 135.856C123.978 137.747 125.52 139.28 127.411 139.28C129.3 139.28 130.835 137.747 130.835 135.856C130.835 133.966 129.3 132.433 127.411 132.433ZM127.411 46.4573H127.393C125.502 46.4573 123.978 47.9904 123.978 49.8812C123.978 51.772 125.52 53.3051 127.411 53.3051C129.3 53.3051 130.835 51.772 130.835 49.8812C130.835 47.9904 129.3 46.4573 127.411 46.4573ZM251.058 111.195C250.726 111.058 250.357 111 249.978 110.976C249.911 110.974 249.855 110.939 249.788 110.939H249.769C247.878 110.939 246.354 112.472 246.354 114.363C246.354 114.823 246.45 115.257 246.617 115.655C246.733 115.936 246.923 116.163 247.104 116.4C247.174 116.493 247.218 116.605 247.297 116.688C247.866 117.292 248.652 117.664 249.53 117.734L249.544 117.738V117.736C249.63 117.743 249.702 117.787 249.788 117.787C251.678 117.787 253.211 116.254 253.211 114.363C253.211 112.923 252.317 111.701 251.058 111.195ZM200.836 153.926H200.817C200.025 153.926 199.331 154.239 198.752 154.69C198.641 154.778 198.502 154.829 198.402 154.929C197.846 155.487 197.524 156.249 197.456 157.082C197.449 157.175 197.403 157.254 197.403 157.35C197.403 157.775 197.503 158.167 197.644 158.541C197.691 158.662 197.749 158.767 197.807 158.878C197.932 159.124 198.083 159.347 198.265 159.554C198.353 159.656 198.432 159.761 198.532 159.851C198.806 160.102 199.11 160.321 199.452 160.471H199.454C199.879 160.66 200.344 160.773 200.836 160.773C202.362 160.773 203.609 159.758 204.053 158.379C204.172 158.063 204.253 157.73 204.255 157.37L204.26 157.35C204.26 155.459 202.727 153.926 200.836 153.926Z" fill="#45315D"/>
</svg>
