<svg width="39" height="38" viewBox="0 0 39 38" fill="none" xmlns="http://www.w3.org/2000/svg">
<path d="M-0.00012207 19.0002C-0.00012207 8.50683 8.50647 0.000244141 18.9999 0.000244141H19.9999C30.4933 0.000244141 38.9999 8.50683 38.9999 19.0002C38.9999 29.4937 30.4933 38.0002 19.9999 38.0002H18.9999C8.50647 38.0002 -0.00012207 29.4937 -0.00012207 19.0002Z" fill="#FF9280"/>
<path d="M22.4683 18.9976L15.4555 11.9903C14.9369 11.4716 14.9369 10.633 15.4555 10.1198C15.9742 9.60118 16.8128 9.6067 17.3315 10.1198L25.2768 18.0596C25.7789 18.5617 25.7899 19.3673 25.3154 19.8859L17.337 27.8809C17.0777 28.1402 16.7356 28.2671 16.399 28.2671C16.0624 28.2671 15.7204 28.1402 15.461 27.8809C14.9424 27.3622 14.9424 26.5236 15.461 26.0104L22.4683 18.9976Z" fill="#FF2400"/>
</svg>
