<svg width="39" height="38" viewBox="0 0 39 38" fill="none" xmlns="http://www.w3.org/2000/svg">
<path d="M0 19.0002C0 8.50683 8.50659 0.000244141 19 0.000244141H20C30.4934 0.000244141 39 8.50683 39 19.0002C39 29.4937 30.4934 38.0002 20 38.0002H19C8.50659 38.0002 0 29.4937 0 19.0002Z" fill="#FF9280"/>
<path d="M16.5317 18.9976L23.5446 11.9903C24.0632 11.4716 24.0632 10.633 23.5446 10.1198C23.0259 9.60118 22.1873 9.6067 21.6686 10.1198L13.7233 18.0596C13.2212 18.5617 13.2102 19.3673 13.6847 19.8859L21.6631 27.8809C21.9224 28.1402 22.2645 28.2671 22.6011 28.2671C22.9376 28.2671 23.2797 28.1402 23.5391 27.8809C24.0577 27.3622 24.0577 26.5236 23.5391 26.0104L16.5317 18.9976Z" fill="#FF2400"/>
</svg>
