<svg width="65" height="68" viewBox="0 0 65 68" fill="none" xmlns="http://www.w3.org/2000/svg">
<path d="M46.8638 34.6492H39.2202C38.5317 34.6492 37.9714 34.0891 37.9714 33.4003V28.8955H33.4673C32.7786 28.8955 32.2185 28.3353 32.2185 27.6465V20.0027C32.2185 19.3138 32.7786 18.7538 33.4673 18.7538H37.9714V14.2489C37.9714 13.5602 38.5317 13 39.2202 13H46.8638C47.5522 13 48.1121 13.5602 48.1121 14.2489V18.7538H52.6167C53.3052 18.7538 53.8652 19.3138 53.8652 20.0027V27.6465C53.8652 28.3353 53.3052 28.8955 52.6167 28.8955H48.1121V33.4003C48.1121 34.0891 47.5522 34.6492 46.8638 34.6492ZM40.2122 32.4087H45.8716V27.9039C45.8716 27.2151 46.4319 26.655 47.1201 26.655H51.6248V20.9943H47.1201C46.4319 20.9943 45.8716 20.4341 45.8716 19.7452V15.2405H40.2122V19.7452C40.2122 20.4341 39.6519 20.9943 38.9634 20.9943H34.459V26.655H38.9634C39.6519 26.655 40.2122 27.2151 40.2122 27.9039V32.4087Z" fill="#FCC099"/>
<path d="M52.6167 20.9943H52.6311M46.8638 34.6492H39.2202C38.5317 34.6492 37.9714 34.0891 37.9714 33.4003V28.8955H33.4673C32.7786 28.8955 32.2185 28.3353 32.2185 27.6465V20.0027C32.2185 19.3138 32.7786 18.7538 33.4673 18.7538H37.9714V14.2489C37.9714 13.5602 38.5317 13 39.2202 13H46.8638C47.5522 13 48.1121 13.5602 48.1121 14.2489V18.7538H52.6167C53.3052 18.7538 53.8652 19.3138 53.8652 20.0027V27.6465C53.8652 28.3353 53.3052 28.8955 52.6167 28.8955H48.1121V33.4003C48.1121 34.0891 47.5522 34.6492 46.8638 34.6492ZM40.2122 32.4087H45.8716V27.9039C45.8716 27.2151 46.4319 26.655 47.1201 26.655H51.6248V20.9943H47.1201C46.4319 20.9943 45.8716 20.4341 45.8716 19.7452V15.2405H40.2122V19.7452C40.2122 20.4341 39.6519 20.9943 38.9634 20.9943H34.459V26.655H38.9634C39.6519 26.655 40.2122 27.2151 40.2122 27.9039V32.4087Z" stroke="#F36A10"/>
<path d="M42.5173 55.7894C40.4402 55.7894 38.113 55.1172 35.6687 53.77C26.4014 48.0352 18.832 40.4653 13.1245 31.2445C10.2359 25.8431 10.2979 21.7972 13.2783 18.8145L16.1475 15.9459C17.3506 14.7422 19.3084 14.7422 20.5122 15.9459L26.2244 21.6595C27.1846 22.6172 27.5449 24.0233 27.1641 25.327L26.0508 29.1422C25.8919 29.6878 26.0427 30.2756 26.4441 30.6778L36.1924 40.426C36.5928 40.8253 37.1795 40.9801 37.7227 40.8198L41.5632 39.7115C42.864 39.3375 44.2654 39.6961 45.2212 40.6551L50.9202 46.3548C52.1231 47.5571 52.1231 49.5161 50.9202 50.7184L48.051 53.5871C46.5838 55.0538 44.6875 55.7894 42.5173 55.7894ZM18.3301 17.203C18.0928 17.203 17.8552 17.2931 17.6748 17.473L14.8059 20.3419C12.5562 22.5932 12.6165 25.7151 14.9954 30.1673C20.491 39.0423 27.825 46.3758 36.7586 51.9052C38.6487 52.9459 43.4819 55.1003 46.5237 52.06L49.3928 49.1913C49.7537 48.8298 49.7537 48.2434 49.3928 47.8819L43.6936 42.1825C43.2932 41.7816 42.7061 41.634 42.1619 41.7872L38.3228 42.8955C37.023 43.2723 35.6213 42.9109 34.6648 41.9532L24.917 32.2049C23.9575 31.2459 23.5974 29.8412 23.9773 28.5374L25.0906 24.7223C25.2498 24.1766 25.0994 23.5888 24.698 23.1881L18.9851 17.473C18.8042 17.2931 18.5669 17.203 18.3301 17.203Z" fill="#FCC099" stroke="#F36A10"/>
<path d="M0.5 11C0.5 5.20101 5.20101 0.5 11 0.5H54C59.799 0.5 64.5 5.20101 64.5 11V57C64.5 62.799 59.799 67.5 54 67.5H11C5.20101 67.5 0.5 62.799 0.5 57V11Z" stroke="#FF2400"/>
</svg>
