<svg width="65" height="68" viewBox="0 0 65 68" fill="none" xmlns="http://www.w3.org/2000/svg">
<path d="M58.9263 45.6038C58.5992 41.3293 57.4053 38.376 55.2764 36.5762C53.4288 35.0139 51.1954 34.572 49.2247 34.1821C48.294 33.9978 47.4146 33.8237 46.6802 33.5488C45.5279 33.1174 44.8858 32.4795 44.6206 31.4929C45.4229 30.9453 46.2129 30.2273 46.9703 29.3555C47.7745 28.4304 48.5025 27.3789 49.1333 26.2296C49.7891 25.0359 50.3125 23.7869 50.6885 22.5173C51.0899 21.1622 51.3125 19.8174 51.3506 18.52C51.4634 14.6285 49.918 11.382 46.8814 9.13135C44.1646 7.11841 41.5542 7.0614 40.6963 7.0426C40.605 7.04065 40.5103 7.03845 40.482 7.03442L40.4463 7.02893L40.4102 7.0343C40.3887 7.03699 40.3081 7.03796 40.2369 7.03894C39.7901 7.04468 38.7437 7.05811 37.4122 7.44189C35.7525 7.92017 34.2339 8.80127 32.898 10.0604C30.4073 12.4095 29.2657 15.6262 29.5962 19.3625C29.8096 21.7756 30.6226 24.2688 31.9473 26.572C33.1553 28.6714 34.6851 30.4116 36.2706 31.4929C36.0059 32.4795 35.3638 33.1174 34.2115 33.5488C33.4766 33.8237 32.5972 33.9978 31.6661 34.1821C29.7115 34.5688 27.4966 35.0073 25.6573 36.5405C23.5376 38.3076 22.3355 41.2012 21.9825 45.3872L21.979 45.4312C21.9634 45.6104 21.9537 45.729 21.9585 45.8872C21.979 46.5649 22.2593 47.1997 22.7476 47.6746C23.2378 48.1511 23.8843 48.4136 24.5684 48.4136H37.4849L37.4883 47.4458L37.4947 45.6809C37.5059 42.6677 37.5152 39.9746 37.5152 39.9456C37.5186 39.1858 37.813 38.4695 38.3453 37.9292C38.8916 37.3745 39.629 37.0691 40.4209 37.0691C40.4371 37.0691 40.4517 37.0691 40.4649 37.0691H40.4693L40.4839 37.0696C41.25 37.0723 41.9712 37.3728 42.5132 37.9153C42.7803 38.1821 42.9893 38.4937 43.1353 38.8413C43.3687 39.3984 43.3638 39.8374 43.3589 40.2617V40.2642C43.3584 40.3174 43.358 40.3726 43.3575 40.4312L43.3472 43.4187C43.5479 43.3755 43.7544 43.3528 43.9624 43.3528H43.9639H43.9654H43.9751C44.3457 43.3545 44.7574 43.3875 45.252 43.6145C45.563 43.7571 45.8433 43.9521 46.085 44.1938C46.1138 44.2224 46.1426 44.2524 46.1729 44.2861C46.3677 44.4993 46.5279 44.738 46.6495 44.9937C46.9493 44.8916 47.2662 44.8379 47.5874 44.8379C48.3677 44.8379 49.1016 45.1418 49.6534 45.6941C49.8741 45.915 50.0552 46.165 50.1934 46.4355C50.5074 46.3242 50.8418 46.2656 51.1822 46.2656C51.9556 46.2656 52.6856 46.5696 53.2378 47.1221C53.3633 47.2476 53.479 47.3862 53.5806 47.5347C53.7666 47.8057 53.9043 48.1021 53.9898 48.4136H56.3233C57.0528 48.4136 57.7549 48.104 58.2496 47.5654C58.7403 47.0308 58.9869 46.3157 58.9263 45.6038Z" fill="#FCC099"/>
<path d="M53.1746 58.6169C53.2039 57.9609 53.2039 57.9609 53.217 53.9314C53.2214 52.7432 53.2263 51.2046 53.2337 49.1953C53.2351 48.7751 53.1096 48.3691 52.8713 48.0225C52.7991 47.917 52.718 47.8191 52.6296 47.7307C52.2395 47.3408 51.7258 47.1262 51.1824 47.1262C50.5916 47.1262 50.0374 47.3721 49.6492 47.7944C49.6492 47.7507 49.6492 47.7473 49.6492 47.7402L49.6487 47.7361C49.6428 47.1953 49.4285 46.686 49.0447 46.3027C48.6555 45.9131 48.1379 45.6982 47.5877 45.6982C46.9934 45.6982 46.4461 45.9556 46.0652 46.3723L46.0657 46.2329C46.0671 45.7258 45.8796 45.2407 45.5383 44.8672C45.5164 44.8433 45.4963 44.822 45.4768 44.8025C45.3074 44.6331 45.1111 44.4966 44.8928 44.3965C44.5295 44.2297 44.238 44.2146 43.971 44.2136H43.9627C43.4876 44.2136 43.0276 44.3787 42.6672 44.6782C42.6013 44.7332 42.5393 44.7922 42.4812 44.8545L42.4973 40.4285C42.4973 40.3665 42.4983 40.3079 42.4988 40.252C42.5032 39.8694 42.5066 39.5669 42.3411 39.1743C42.239 38.9304 42.092 38.7117 41.905 38.5239C41.5237 38.1428 41.0178 37.9316 40.4797 37.9299H40.4631C40.4504 37.9299 40.4363 37.9294 40.4212 37.9294C39.8616 37.9294 39.342 38.144 38.9587 38.5332C38.5847 38.9126 38.3777 39.4153 38.3762 39.9487C38.3757 39.9834 38.3621 43.8108 38.3489 47.4492L38.3386 50.3293C38.3337 51.7153 38.3289 52.8655 38.3274 53.4646C37.4963 52.9421 35.8289 51.8674 35.678 51.7651C35.3201 51.4607 34.8655 51.2935 34.3962 51.2935C33.8909 51.2935 33.408 51.4849 33.0364 51.8328C32.6287 52.2158 32.3933 52.7493 32.3909 53.2974C32.3894 53.8269 32.5945 54.3257 32.971 54.7017C32.9788 54.7095 33.0652 54.7944 33.2117 54.9387C33.7761 55.4956 35.2766 56.9734 36.5359 58.2209C37.0837 58.7634 37.5247 59.2019 37.8479 59.5251C38.3943 60.0715 38.4934 60.1787 38.511 60.1995C38.6677 60.3857 38.8342 60.5669 39.0056 60.7385C39.7844 61.5171 40.6921 62.1279 41.7034 62.5544C42.7356 62.989 43.8303 63.2117 44.9553 63.2156C45.0139 63.2161 48.5515 63.2285 48.5598 63.2285C49.7546 63.2285 50.8899 62.7761 51.7566 61.9543C52.614 61.1401 53.113 60.0603 53.1619 58.9133C53.1663 58.7969 53.1702 58.7012 53.1746 58.6169Z" fill="#FCC099"/>
<path d="M61.1716 44.1466C60.8259 39.632 59.5331 36.4869 57.2197 34.5309C56.3119 33.7633 55.2468 33.1766 53.9631 32.7373C52.8727 32.364 51.7607 32.1439 50.7795 31.9497C49.8842 31.7726 49.0383 31.6052 48.3696 31.3549C47.7184 31.1111 47.3066 30.819 47.0566 30.4043C47.7241 29.8837 48.3784 29.2562 49.0077 28.532C49.852 27.5608 50.6149 26.4586 51.2753 25.256C51.9609 24.0082 52.508 22.702 52.9015 21.3738C53.3242 19.9474 53.5583 18.5286 53.5983 17.157C53.6584 15.0826 53.2763 13.1635 52.4616 11.4524C51.6454 9.7373 50.4069 8.25671 48.7814 7.05188C47.5305 6.125 46.1518 5.47339 44.6838 5.11523C43.4931 4.82471 42.5544 4.8042 42.1032 4.79419C42.0629 4.79333 42.0004 4.79199 41.9667 4.79065L41.9626 4.79004L41.8361 4.771L41.7138 4.78894C41.685 4.78943 41.6406 4.79004 41.6137 4.79041C41.1323 4.79663 40.0046 4.81116 38.5617 5.22681C36.769 5.74353 35.1318 6.69202 33.6957 8.04639C32.3556 9.30994 31.3701 10.8135 30.766 12.5154C30.1664 14.2045 29.9511 16.0668 30.1266 18.0503C30.351 20.5872 31.2026 23.2023 32.5893 25.6129C33.2184 26.7067 33.9316 27.7097 34.7087 28.5941C35.3202 29.2902 35.9579 29.897 36.6103 30.4045C36.3605 30.8191 35.9484 31.1112 35.2975 31.3549C34.6281 31.6053 33.7824 31.7727 32.8867 31.95C31.9138 32.1426 30.8112 32.3608 29.7292 32.7288C28.4557 33.1619 27.3974 33.7384 26.4941 34.4915C24.1884 36.4133 22.8862 39.4995 22.5131 43.9266L22.5095 43.9705C22.4929 44.1643 22.4799 44.3174 22.4863 44.5251C22.5134 45.4276 22.8862 46.2722 23.5356 46.9036C24.1874 47.537 25.0468 47.8859 25.9557 47.8859H38.8698L38.8659 48.938L38.8603 50.5118C38.2707 50.1335 37.7297 49.7839 37.5815 49.6862C37.0746 49.2722 36.4387 49.0448 35.7841 49.0448C35.059 49.0448 34.3676 49.3191 33.8364 49.817C33.2558 50.3608 32.9213 51.1222 32.9184 51.906C32.9155 52.6665 33.2111 53.3826 33.7504 53.922C33.7575 53.9291 33.7775 53.9489 33.9955 54.1637C34.5597 54.7196 36.0588 56.1965 37.3183 57.4441C37.8637 57.9845 38.3041 58.4224 38.6274 58.7455C39.1098 59.2279 39.2241 59.3481 39.2485 59.3745C39.4184 59.576 39.5991 59.7727 39.7853 59.9589C40.6428 60.8164 41.6425 61.4893 42.7573 61.959C43.895 62.4384 45.1 62.6836 46.3403 62.6881C46.3979 62.6884 49.9387 62.7012 49.9479 62.7012C51.3639 62.7012 52.7094 62.1646 53.7365 61.1902C54.7573 60.2218 55.3513 58.933 55.4089 57.5612C55.4138 57.4457 55.4181 57.3512 55.4218 57.2677C55.4523 56.5935 55.4523 56.5935 55.4658 52.5458V52.5363C55.4697 51.3647 55.4743 49.8525 55.4816 47.8859H57.7111C58.6808 47.8859 59.6139 47.4752 60.2712 46.759C60.9235 46.0486 61.2516 45.0964 61.1716 44.1466ZM54.6052 52.543C54.592 56.5726 54.592 56.5726 54.5622 57.2286C54.5585 57.313 54.5541 57.4084 54.5493 57.525C54.5009 58.6722 54.0021 59.7522 53.1442 60.5659C52.2778 61.3879 51.1425 61.8407 49.9479 61.8407C49.9389 61.8407 46.4018 61.8278 46.3432 61.8276C45.2177 61.8236 44.1237 61.601 43.0915 61.1659C42.0798 60.7397 41.1723 60.1288 40.3937 59.3505C40.2223 59.1788 40.0556 58.9974 39.8991 58.8112C39.8818 58.7905 39.7822 58.6835 39.2358 58.1371C38.9128 57.814 38.4714 57.3751 37.9238 56.8329C36.6645 55.5852 35.1642 54.1072 34.5995 53.5507C34.4528 53.4064 34.3664 53.321 34.3588 53.3136C33.9828 52.9375 33.7768 52.4387 33.7787 51.9093C33.7807 51.3612 34.0163 50.8275 34.4245 50.4448C34.7956 50.0969 35.2785 49.9054 35.7839 49.9054C36.2531 49.9054 36.7082 50.0728 37.0661 50.3768C37.2167 50.4791 38.8842 51.5538 39.715 52.0768C39.717 51.4771 39.7214 50.3271 39.7263 48.941L39.7368 46.0612C39.7497 42.4226 39.7636 38.5955 39.7639 38.5607C39.7658 38.0271 39.9726 37.5244 40.3464 37.145C40.7297 36.7559 41.2492 36.5415 41.809 36.5415C41.8244 36.5415 41.8386 36.5416 41.8515 36.5416L41.8676 36.5419C42.4057 36.5438 42.9118 36.7548 43.2927 37.1357C43.4802 37.3232 43.6271 37.542 43.7297 37.786C43.8942 38.1788 43.8908 38.4812 43.8864 38.864C43.8857 38.9197 43.8852 38.9781 43.8849 39.04L43.8691 43.4664C43.9272 43.4039 43.9894 43.345 44.0551 43.2902C44.4152 42.9904 44.8754 42.8252 45.3505 42.8252H45.3591C45.6266 42.8264 45.9172 42.8416 46.2809 43.0084C46.4985 43.1085 46.6948 43.245 46.8642 43.4144C46.884 43.4341 46.9042 43.4551 46.9257 43.479C47.268 43.8525 47.455 44.3375 47.4533 44.8446L47.4528 44.9839C47.8339 44.5673 48.3808 44.3103 48.9753 44.3103C49.5253 44.3103 50.0431 44.5248 50.4328 44.9146C50.8161 45.298 51.0307 45.807 51.037 46.3477V46.3522C51.037 46.3589 51.0373 46.3624 51.037 46.4062C51.4252 45.9835 51.9797 45.738 52.5702 45.738C53.1135 45.738 53.6274 45.9526 54.017 46.3424C54.1056 46.4308 54.1869 46.5289 54.2592 46.6342C54.4975 46.981 54.623 47.3867 54.6213 47.8074C54.6142 49.8167 54.6091 51.3552 54.6052 52.543ZM59.6374 46.1771C59.1425 46.7162 58.4404 47.0254 57.7111 47.0254H55.3776C55.2917 46.7141 55.1547 46.4177 54.9682 46.1467C54.8664 45.9984 54.7512 45.8595 54.6257 45.7341C54.0734 45.1816 53.3432 44.8774 52.5702 44.8774C52.2299 44.8774 51.8954 44.9363 51.5812 45.0476C51.4433 44.777 51.2621 44.5269 51.0412 44.306C50.4889 43.7538 49.7556 43.4497 48.9755 43.4497C48.6537 43.4497 48.3368 43.5034 48.0373 43.6057C47.9157 43.3499 47.7558 43.1112 47.5607 42.8979C47.53 42.8645 47.5012 42.8344 47.4728 42.8058C47.2311 42.5642 46.9506 42.3691 46.6398 42.2264C46.1447 41.9993 45.7333 41.9663 45.3627 41.9648L45.3535 41.9647H45.3517H45.3505C45.142 41.9647 44.9357 41.9872 44.7346 42.0306L44.7455 39.0431C44.7458 38.9846 44.746 38.9292 44.7468 38.8763V38.8738C44.7516 38.4493 44.7568 38.0105 44.5229 37.4532C44.3774 37.1057 44.1681 36.7942 43.9011 36.5272C43.3586 35.9846 42.6379 35.6842 41.8715 35.6813L41.8571 35.6812H41.853C41.8393 35.6812 41.8251 35.681 41.809 35.681C41.017 35.681 40.2797 35.9865 39.7333 36.5413C39.2009 37.0817 38.9062 37.7976 38.9033 38.5574C38.903 38.5868 38.8932 41.2798 38.8825 44.293L38.8762 46.058L38.8727 47.0254H25.9557C25.2722 47.0254 24.6257 46.7631 24.1354 46.2865C23.6469 45.8118 23.3666 45.177 23.3464 44.499C23.3415 44.3408 23.3515 44.2224 23.3666 44.0431L23.3705 43.9989C23.7233 39.8131 24.9252 36.9193 27.0449 35.1525C28.8842 33.6194 31.0995 33.1809 33.0539 32.7942C33.9848 32.6099 34.8642 32.4358 35.5991 32.1608C36.7516 31.7292 37.3935 31.0913 37.6586 30.1047C36.0729 29.0234 34.5429 27.2833 33.3351 25.184C32.0104 22.8807 31.197 20.3877 30.9836 17.9744C30.6533 14.238 31.7951 11.0215 34.2861 8.67249C35.6215 7.41321 37.1403 6.5321 38.8 6.05383C40.1313 5.67017 41.1779 5.65662 41.6249 5.65088C41.696 5.65002 41.7765 5.64893 41.798 5.64624L41.8342 5.64099L41.8698 5.64624C41.8981 5.65039 41.9929 5.65259 42.0842 5.65454C42.9421 5.67334 45.5527 5.73047 48.2687 7.74329C51.3058 9.99377 52.851 13.2404 52.7382 17.1321C52.7004 18.4293 52.478 19.7743 52.0764 21.1293C51.7004 22.3987 51.1769 23.6478 50.5214 24.8417C49.8901 25.9908 49.1623 27.0424 48.3583 27.9674C47.6008 28.8394 46.8107 29.5575 46.0085 30.1047C46.2734 31.0914 46.9155 31.7294 48.0681 32.1608C48.8024 32.4357 49.6816 32.6096 50.6122 32.7938C52.5829 33.1838 54.8163 33.6259 56.6642 35.188C58.7931 36.988 59.987 39.9413 60.3141 44.2159C60.3747 44.9277 60.1284 45.6426 59.6374 46.1771Z" fill="#F36A10"/>
<path d="M11 0.5H54C59.799 0.5 64.5 5.20101 64.5 11V57C64.5 62.799 59.799 67.5 54 67.5H11C5.20101 67.5 0.5 62.799 0.5 57V11C0.5 5.20101 5.20101 0.5 11 0.5Z" stroke="#F36A10"/>
</svg>
