<svg width="555" height="528" viewBox="0 0 555 528" fill="none" xmlns="http://www.w3.org/2000/svg">
<g clip-path="url(#clip0_6_8561)">
<path d="M551.286 462.068H7.33597e-05V462.35H551.286V462.068Z" fill="#EBEBEB"/>
<path d="M56.5659 483.767H12.2109V484.105H56.5659V483.767Z" fill="#EBEBEB"/>
<path d="M180.138 487.43H168.496V487.768H180.138V487.43Z" fill="#EBEBEB"/>
<path d="M83.608 471.233H57.9069V471.571H83.608V471.233Z" fill="#EBEBEB"/>
<path d="M535.915 473.5H478.072V473.838H535.915V473.5Z" fill="#EBEBEB"/>
<path d="M466.149 473.5H457.669V473.838H466.149V473.5Z" fill="#EBEBEB"/>
<path d="M432.537 479.2H307.091V479.538H432.537V479.2Z" fill="#EBEBEB"/>
<path d="M288.768 401.842H547.356C549.382 401.84 551.325 401.027 552.758 399.583C554.192 398.139 554.998 396.18 555 394.137V27.7628C554.997 25.7203 554.191 23.7623 552.758 22.3182C551.325 20.8741 549.382 20.0619 547.356 20.0598H288.768C286.741 20.0625 284.799 20.8749 283.367 22.3189C281.934 23.7629 281.128 25.7206 281.125 27.7628V394.138C281.128 396.181 281.934 398.138 283.366 399.583C284.799 401.027 286.741 401.839 288.768 401.842ZM547.356 20.3977C549.293 20.3996 551.151 21.1762 552.522 22.5572C553.892 23.9382 554.663 25.8107 554.665 27.7638V394.138C554.663 396.092 553.892 397.964 552.522 399.345C551.151 400.726 549.294 401.503 547.356 401.505H288.768C286.83 401.503 284.972 400.726 283.602 399.345C282.232 397.964 281.461 396.091 281.459 394.138V27.7628C281.462 25.8098 282.232 23.9375 283.602 22.5565C284.972 21.1756 286.83 20.3988 288.768 20.3967L547.356 20.3977Z" fill="#EBEBEB"/>
<path d="M7.64433 401.842H266.232C268.259 401.84 270.202 401.027 271.634 399.583C273.067 398.138 273.873 396.18 273.875 394.137V27.7628C273.872 25.7206 273.066 23.7627 271.634 22.3186C270.201 20.8745 268.259 20.0622 266.232 20.0598H7.64433C5.61776 20.0617 3.67468 20.8737 2.2414 22.3178C0.808117 23.7619 0.00168261 25.7201 -0.000943357 27.7628V394.138C0.00168213 396.181 0.808085 398.139 2.24134 399.584C3.67459 401.028 5.61767 401.84 7.64433 401.842ZM266.232 20.3977C268.17 20.3998 270.028 21.1766 271.398 22.5575C272.768 23.9385 273.538 25.8108 273.54 27.7638V394.138C273.539 396.091 272.768 397.964 271.398 399.345C270.028 400.726 268.17 401.503 266.232 401.505H7.64433C5.70641 401.503 3.84845 400.726 2.47804 399.345C1.10763 397.964 0.336681 396.092 0.334318 394.138V27.7628C0.336682 25.8096 1.10767 23.9371 2.4781 22.5561C3.84854 21.1752 5.7065 20.3986 7.64433 20.3967L266.232 20.3977Z" fill="#EBEBEB"/>
<path d="M251.458 76.5139H81.3049V462.04H251.458V76.5139Z" fill="#F0F0F0"/>
<path d="M247.867 76.5139H81.3059V462.04H247.867V76.5139Z" fill="#F5F5F5"/>
<path d="M91.4557 85.2627V453.293H237.717V85.2627H91.4557Z" fill="#F0F0F0"/>
<path d="M223.343 153.707C223.343 143.049 219.142 132.826 211.665 125.289C204.187 117.752 194.045 113.518 183.471 113.518H145.705C135.13 113.518 124.989 117.752 117.511 125.289C110.033 132.826 105.833 143.049 105.833 153.707H223.343Z" fill="#FAFAFA"/>
<path d="M105.828 342.493V430.415H223.343V342.493H105.828Z" fill="#F5F5F5"/>
<path d="M171.51 331.151H223.344V178.498H171.51V331.151Z" fill="#F5F5F5"/>
<path d="M105.829 331.151H157.663V178.498H105.829V331.151Z" fill="#F5F5F5"/>
<path d="M124.627 254.138H103.397C102.524 254.136 101.688 253.785 101.071 253.163C100.454 252.541 100.106 251.699 100.104 250.819C100.107 249.94 100.454 249.097 101.071 248.475C101.688 247.854 102.524 247.503 103.397 247.5H124.627C125.5 247.503 126.336 247.854 126.953 248.475C127.57 249.097 127.918 249.94 127.92 250.819C127.918 251.699 127.57 252.541 126.953 253.163C126.336 253.785 125.5 254.136 124.627 254.138Z" fill="#E0E0E0"/>
<path d="M91.4556 85.2627V453.293H94.088V85.2627H91.4556Z" fill="#F0F0F0"/>
<path d="M511.906 312.263H350.017V81.2976C350.017 62.9024 511.907 62.9024 511.906 81.2976V312.263Z" fill="#E0E0E0"/>
<path d="M508.186 312.263H346.298V81.2976C346.298 62.9024 508.187 62.9024 508.187 81.2976L508.186 312.263Z" fill="#EBEBEB"/>
<path d="M354.332 300.67V85.8564C354.33 85.1361 354.55 84.4331 354.961 83.8439C355.372 83.2546 355.954 82.808 356.627 82.5653C365.614 79.3071 390.081 75.6001 427.241 75.6001C464.401 75.6001 488.868 79.3061 497.856 82.5633C498.529 82.8064 499.11 83.2533 499.521 83.8426C499.932 84.432 500.152 85.1351 500.151 85.8554V300.67C500.151 301.597 499.786 302.486 499.136 303.142C498.487 303.798 497.605 304.167 496.686 304.169H357.799C356.879 304.168 355.997 303.799 355.347 303.143C354.697 302.487 354.332 301.597 354.332 300.67Z" fill="#FAFAFA"/>
<path d="M388.559 77.1507L363.316 304.158H400.182L425.6 75.5991C411.27 75.6401 398.87 76.2459 388.559 77.1507Z" fill="white"/>
<path d="M436.234 75.6792L410.816 304.16H431.184L456.521 76.45C450.348 76.0711 443.573 75.8002 436.234 75.6792Z" fill="white"/>
<path d="M451.349 72.113V307.163H458.417V72.113H451.349Z" fill="#EBEBEB"/>
<path d="M394.409 72.113V307.163H401.477V72.113H394.409Z" fill="#EBEBEB"/>
<path d="M401.477 72.113V307.163H402.754V72.113H401.477Z" fill="#E0E0E0"/>
<path d="M458.417 72.113V307.163H459.694V72.113H458.417Z" fill="#E0E0E0"/>
<path d="M350.08 131.016H502.744V123.892H350.08V131.016Z" fill="#EBEBEB"/>
<path d="M338.921 317.961H504.083V310.087H338.921V317.961Z" fill="#F5F5F5"/>
<path d="M511.906 310.087H504.083V317.961H511.906V310.087Z" fill="#E0E0E0"/>
<path d="M15.8678 47.4886H56.2465V35.9856H15.8678V47.4886Z" fill="#F0F0F0"/>
<path d="M36.0572 58.9915H76.4359V47.4885H36.0572V58.9915Z" fill="#E6E6E6"/>
<path d="M294.813 216.702H335.192V205.199H294.813V216.702Z" fill="#F5F5F5"/>
<path d="M353.653 361.468H394.032V349.965H353.653V361.468Z" fill="#F5F5F5"/>
<path d="M56.2465 362.826H15.8678V374.329H56.2465V362.826Z" fill="#E6E6E6"/>
<path d="M314.647 11.503H355.026V0H314.647V11.503Z" fill="#F0F0F0"/>
<path d="M459.772 431.304H500.151V419.802H459.772V431.304Z" fill="#F5F5F5"/>
<path d="M491.716 347.813H532.095V336.31H491.716V347.813Z" fill="#F5F5F5"/>
<path d="M439.583 442.806H479.962V431.303H439.583V442.806Z" fill="#F0F0F0"/>
<path d="M508.186 37.6511H467.807V49.1541H508.186V37.6511Z" fill="#F0F0F0"/>
<path d="M284.751 528C141.352 528 25.1039 521.157 25.1039 512.716C25.1039 504.275 141.352 497.432 284.751 497.432C428.151 497.432 544.399 504.275 544.399 512.716C544.399 521.157 428.151 528 284.751 528Z" fill="#F5F5F5"/>
<path d="M442.59 117.749C450.507 119.527 459.726 130.724 450.625 142.159C441.523 153.594 456.774 148.592 459.134 168.604C461.493 188.615 443.415 185.244 449.087 198.365C454.76 211.485 415.364 232.274 390.766 216.517C366.168 200.76 363.878 166.842 371.559 154.857C379.24 142.872 390.468 142.122 385.388 129.276C380.307 116.43 386.293 103.083 402.169 102.969C414.137 102.88 406.959 94.4382 423.437 94.5112C437.172 94.5732 449.326 104.298 442.59 117.749Z" fill="#263238"/>
<path d="M398.511 134.476C399.282 134.477 400.036 134.709 400.677 135.142C401.318 135.574 401.817 136.189 402.111 136.907C402.406 137.626 402.483 138.416 402.332 139.179C402.181 139.941 401.809 140.642 401.264 141.191C400.719 141.741 400.024 142.116 399.267 142.268C398.511 142.42 397.727 142.342 397.014 142.045C396.301 141.749 395.691 141.245 395.262 140.6C394.832 139.954 394.603 139.194 394.601 138.417C394.599 137.898 394.699 137.385 394.895 136.906C395.091 136.427 395.379 135.992 395.742 135.625C396.105 135.259 396.537 134.969 397.013 134.772C397.488 134.574 397.997 134.474 398.511 134.476ZM398.511 141.427C399.103 141.426 399.682 141.247 400.173 140.915C400.665 140.582 401.048 140.11 401.273 139.558C401.499 139.007 401.557 138.4 401.44 137.815C401.323 137.23 401.037 136.693 400.617 136.272C400.198 135.85 399.664 135.564 399.083 135.449C398.502 135.334 397.9 135.395 397.353 135.625C396.807 135.854 396.34 136.242 396.012 136.739C395.685 137.236 395.51 137.82 395.512 138.417C395.512 138.813 395.59 139.205 395.741 139.571C395.892 139.937 396.113 140.269 396.392 140.549C396.67 140.828 397.001 141.05 397.365 141.201C397.728 141.351 398.118 141.428 398.511 141.427Z" fill="white"/>
<path d="M365.548 172.876C365.569 172.875 365.59 172.873 365.611 172.869C365.654 172.86 365.695 172.844 365.732 172.82C365.769 172.795 365.801 172.764 365.826 172.727C365.85 172.691 365.868 172.65 365.877 172.606C365.886 172.563 365.886 172.518 365.878 172.475C364.678 166.186 369.537 160.096 374.68 153.65C380.683 146.124 387.488 137.594 385.094 127.439C383.049 118.773 383.962 111.534 387.664 107.056C390.693 103.389 395.417 101.698 401.699 102.025C407.459 102.325 409.166 100.754 410.974 99.0891C412.925 97.2895 415.176 95.2431 423.442 95.3001C423.527 95.2954 423.608 95.2578 423.667 95.195C423.726 95.1322 423.759 95.0491 423.759 94.9627C423.759 94.8762 423.726 94.7931 423.667 94.7303C423.608 94.6675 423.527 94.6299 423.442 94.6252H423.151C414.819 94.6252 412.538 96.7247 410.518 98.5912C408.743 100.225 407.209 101.639 401.73 101.35C395.229 101.013 390.323 102.785 387.149 106.624C383.31 111.27 382.349 118.721 384.443 127.596C386.763 137.43 380.357 145.461 374.161 153.227C368.918 159.8 363.966 166.008 365.223 172.603C365.238 172.679 365.279 172.747 365.338 172.797C365.397 172.847 365.471 172.874 365.548 172.876Z" fill="#263238"/>
<path d="M334.055 147.085L335.861 150.621C336.196 151.276 336.371 152.002 336.371 152.739C336.371 153.477 336.196 154.203 335.861 154.858L332.687 161.07C332.062 162.294 331.154 163.349 330.041 164.147C328.928 164.946 327.641 165.463 326.289 165.658L324.591 165.902C321.197 160.245 321.665 151.611 321.665 151.611L321.528 149.136C321.485 148.628 321.542 148.117 321.696 147.632C321.851 147.147 322.099 146.698 322.427 146.31C322.755 145.923 323.156 145.605 323.607 145.375C324.058 145.145 324.55 145.007 325.054 144.97L329.914 144.631C330.766 144.592 331.611 144.803 332.346 145.239C333.081 145.674 333.675 146.316 334.055 147.085Z" fill="#FFC3BD"/>
<path d="M373.922 170.715C373.993 170.657 373.849 170.862 373.784 170.965L373.498 171.377L372.856 172.249C372.407 172.84 371.907 173.42 371.4 174.002C370.382 175.163 369.296 176.302 368.164 177.391C365.885 179.562 363.416 181.519 360.786 183.239C355.637 186.712 349.811 189.034 343.698 190.05L342.559 190.208L341.99 190.289C341.928 190.296 342.089 190.296 342.128 190.313C342.421 190.34 342.702 190.446 342.942 190.619C343.198 190.863 342.576 190.503 341.987 189.612C340.483 187.154 339.369 184.475 338.686 181.67C337.813 178.402 337.156 175.079 336.719 171.724C336.473 170.013 336.322 168.279 336.176 166.547C336.033 164.848 335.92 163.011 335.915 161.456L320.494 162.206C320.693 164.32 320.891 166.149 321.115 168.105C321.337 170.029 321.634 171.944 321.909 173.872C322.495 177.723 323.171 181.593 324.176 185.549C324.674 187.595 325.279 189.613 325.989 191.595C326.773 193.824 327.77 195.971 328.965 198.006C330.57 200.796 332.878 203.111 335.654 204.716C337.521 205.733 339.592 206.312 341.712 206.41C342.208 206.429 342.825 206.41 343.218 206.396L344.011 206.342L345.598 206.231C349.812 205.833 353.978 205.024 358.036 203.814C362.057 202.582 365.965 201.003 369.717 199.097C373.432 197.179 376.994 194.973 380.369 192.498C382.066 191.27 383.719 189.967 385.328 188.588C386.137 187.898 386.926 187.177 387.73 186.433L388.939 185.277L389.558 184.653C389.791 184.408 389.942 184.264 390.298 183.854L373.922 170.715Z" fill="#48A7A5"/>
<path opacity="0.5" d="M373.922 170.715C373.993 170.657 373.849 170.862 373.784 170.965L373.498 171.377L372.856 172.249C372.407 172.84 371.907 173.42 371.4 174.002C370.382 175.163 369.296 176.302 368.164 177.391C365.885 179.562 363.416 181.519 360.786 183.239C355.637 186.712 349.811 189.034 343.698 190.05L342.559 190.208L341.99 190.289C341.928 190.296 342.089 190.296 342.128 190.313C342.421 190.34 342.702 190.446 342.942 190.619C343.198 190.863 342.576 190.503 341.987 189.612C340.483 187.154 339.369 184.475 338.686 181.67C337.813 178.402 337.156 175.079 336.719 171.724C336.473 170.013 336.322 168.279 336.176 166.547C336.033 164.848 335.92 163.011 335.915 161.456L320.494 162.206C320.693 164.32 320.891 166.149 321.115 168.105C321.337 170.029 321.634 171.944 321.909 173.872C322.495 177.723 323.171 181.593 324.176 185.549C324.674 187.595 325.279 189.613 325.989 191.595C326.773 193.824 327.77 195.971 328.965 198.006C330.57 200.796 332.878 203.111 335.654 204.716C337.521 205.733 339.592 206.312 341.712 206.41C342.208 206.429 342.825 206.41 343.218 206.396L344.011 206.342L345.598 206.231C349.812 205.833 353.978 205.024 358.036 203.814C362.057 202.582 365.965 201.003 369.717 199.097C373.432 197.179 376.994 194.973 380.369 192.498C382.066 191.27 383.719 189.967 385.328 188.588C386.137 187.898 386.926 187.177 387.73 186.433L388.939 185.277L389.558 184.653C389.791 184.408 389.942 184.264 390.298 183.854L373.922 170.715Z" fill="#45315D"/>
<path d="M406.072 496.954C408.023 492.547 406.667 474.024 406.401 470.987C409.795 469.2 421.436 471.403 421.436 471.403C421.436 471.403 418.186 490.879 420.136 496.954C415.646 499.456 406.072 496.954 406.072 496.954Z" fill="#FFC3BD"/>
<path d="M262.301 479.186C265.971 476.087 273.689 459.183 274.772 456.335C278.601 456.235 287.244 463.042 287.244 463.042C287.244 463.042 275.832 479.095 274.933 485.416C269.808 485.674 262.301 479.186 262.301 479.186Z" fill="#FFC3BD"/>
<path d="M394.141 507.705C403.937 507.705 405.611 507.553 411.115 507.366C415.827 507.197 416.955 507.79 420.744 507.705C423.908 507.636 423.791 504.583 422.814 501.071C422.466 499.818 421.984 498.366 421.491 496.607C421.301 495.942 420.902 495.356 420.353 494.94C419.803 494.524 419.135 494.3 418.448 494.302H407.701C407.215 494.309 406.737 494.425 406.302 494.643C405.867 494.861 405.487 495.175 405.188 495.562C402.585 498.811 396.981 501.189 392.074 501.853C386.802 502.564 390.236 507.705 394.141 507.705Z" fill="#45315D"/>
<path d="M242.969 486.729C253.506 491.533 259.038 489.091 264.329 490.307C268.864 491.341 268.72 492.2 273.243 493.5C276.237 494.361 277.771 491.125 277.514 488.293C277.293 486.235 277.187 484.166 277.196 482.095C277.208 481.696 277.104 481.302 276.897 480.963C276.689 480.623 276.387 480.352 276.028 480.184L265.548 475.396C265.211 475.241 264.838 475.183 264.47 475.229C264.102 475.276 263.754 475.424 263.465 475.658C259.29 479.022 250.114 483.256 243.68 481.069C238.696 479.392 239.456 485.126 242.969 486.729Z" fill="#45315D"/>
<path d="M359.215 245.998C359.215 245.998 334.471 303.238 320.862 345.452C304.243 383.621 270.942 463.706 270.942 463.706C270.295 465.741 280.81 469.473 283.094 469.091C283.094 469.091 327.034 415.958 344.935 355.607C391.469 296.765 405.167 249.526 405.167 249.526L359.215 245.998Z" fill="#263238"/>
<path opacity="0.2" d="M379.051 277.341C372.228 284.88 367.417 311.072 364.966 328.188C373.36 315.769 381.039 302.873 387.965 289.566C387.278 283.165 384.491 278.463 379.051 277.341Z" fill="black"/>
<path d="M372.993 247.056C372.993 247.056 371.231 326.573 378.095 365.743C385.303 406.88 407.593 456.495 406.016 483.493C408.31 484.836 416.376 484.917 420.893 483.493C420.893 483.493 428.599 403.328 405.42 364.203C410.434 325.029 423.809 274.295 411.933 250.046L372.993 247.056Z" fill="#263238"/>
<path d="M404.89 477.869C404.85 479.728 404.677 481.581 404.373 483.414C404.343 483.568 404.345 483.726 404.378 483.879C404.411 484.032 404.474 484.177 404.564 484.304C404.654 484.432 404.769 484.54 404.902 484.621C405.035 484.703 405.182 484.756 405.336 484.779C410.781 485.657 418.664 484.385 421.165 483.93C421.398 483.887 421.611 483.772 421.776 483.601C421.941 483.429 422.048 483.211 422.084 482.975L422.895 477.787C422.921 477.621 422.91 477.451 422.864 477.289C422.817 477.127 422.736 476.977 422.627 476.85C422.517 476.723 422.381 476.622 422.228 476.553C422.075 476.485 421.91 476.451 421.742 476.454L406.013 476.76C405.719 476.763 405.439 476.88 405.229 477.087C405.02 477.294 404.898 477.574 404.89 477.869Z" fill="#263238"/>
<path opacity="0.1" d="M404.89 477.869C404.85 479.728 404.677 481.581 404.373 483.414C404.343 483.568 404.345 483.726 404.378 483.879C404.411 484.032 404.474 484.177 404.564 484.304C404.654 484.432 404.769 484.54 404.902 484.621C405.035 484.703 405.182 484.756 405.336 484.779C410.781 485.657 418.664 484.385 421.165 483.93C421.398 483.887 421.611 483.772 421.776 483.601C421.941 483.429 422.048 483.211 422.084 482.975L422.895 477.787C422.921 477.621 422.91 477.451 422.864 477.289C422.817 477.127 422.736 476.977 422.627 476.85C422.517 476.723 422.381 476.622 422.228 476.553C422.075 476.485 421.91 476.451 421.742 476.454L406.013 476.76C405.719 476.763 405.439 476.88 405.229 477.087C405.02 477.294 404.898 477.574 404.89 477.869Z" fill="white"/>
<path d="M272.142 457.829C271.468 459.108 270.253 461.386 269.289 463.037C269.137 463.298 269.094 463.609 269.168 463.903C269.242 464.196 269.429 464.448 269.686 464.604C273.699 467.094 280.819 469.603 283.169 470.397C283.395 470.474 283.64 470.476 283.868 470.404C284.096 470.332 284.296 470.19 284.439 469.997L287.633 465.75C287.735 465.614 287.806 465.457 287.841 465.29C287.876 465.123 287.874 464.951 287.835 464.785C287.796 464.619 287.721 464.464 287.615 464.331C287.509 464.198 287.375 464.09 287.223 464.015L273.649 457.339C273.384 457.207 273.078 457.184 272.797 457.275C272.515 457.367 272.281 457.565 272.142 457.829Z" fill="#263238"/>
<path opacity="0.1" d="M272.142 457.829C271.468 459.108 270.253 461.386 269.289 463.037C269.137 463.298 269.094 463.609 269.168 463.903C269.242 464.196 269.429 464.448 269.686 464.604C273.699 467.094 280.819 469.603 283.169 470.397C283.395 470.474 283.64 470.476 283.868 470.404C284.096 470.332 284.296 470.19 284.439 469.997L287.633 465.75C287.735 465.614 287.806 465.457 287.841 465.29C287.876 465.123 287.874 464.951 287.835 464.785C287.796 464.619 287.721 464.464 287.615 464.331C287.509 464.198 287.375 464.09 287.223 464.015L273.649 457.339C273.384 457.207 273.078 457.184 272.797 457.275C272.515 457.367 272.281 457.565 272.142 457.829Z" fill="white"/>
<path d="M369.729 178.622C368.421 183.696 366.306 189.272 363.759 201.535C361.412 211.862 359.706 230.023 359.213 245.998C366.089 252.181 388.975 251.13 411.936 250.046C412.007 234.995 418.137 221.108 434.822 190.287C438.69 183.141 435.556 174.709 428.087 172.177C426.092 171.501 423.964 170.83 421.765 170.213C413.214 167.814 406.193 165.908 398.351 164.852C395.754 164.501 393.044 164.22 390.442 163.996C385.843 163.637 381.263 164.899 377.485 167.567C373.707 170.235 370.965 174.143 369.729 178.622Z" fill="#48A7A5"/>
<path opacity="0.5" d="M369.729 178.622C368.421 183.696 366.306 189.272 363.759 201.535C361.412 211.862 359.706 230.023 359.213 245.998C366.089 252.181 388.975 251.13 411.936 250.046C412.007 234.995 418.137 221.108 434.822 190.287C438.69 183.141 435.556 174.709 428.087 172.177C426.092 171.501 423.964 170.83 421.765 170.213C413.214 167.814 406.193 165.908 398.351 164.852C395.754 164.501 393.044 164.22 390.442 163.996C385.843 163.637 381.263 164.899 377.485 167.567C373.707 170.235 370.965 174.143 369.729 178.622Z" fill="#45315D"/>
<path d="M396.837 164.82L420.481 169.918C420.481 169.918 401.347 177.957 386.026 190.366C381.844 169.163 396.837 164.82 396.837 164.82Z" fill="white"/>
<path d="M426.115 143.263C422.365 150.391 416.726 163.73 420.481 169.917C420.481 169.917 399.139 176.136 387.756 185.995C386.241 170.05 396.837 164.817 396.837 164.817C405.843 164.754 407.736 158.267 408.039 152.133L426.115 143.263Z" fill="#FFC3BD"/>
<path d="M406.064 171.968C410.937 171.863 415.789 171.287 420.552 170.247C420.638 170.228 420.713 170.175 420.761 170.1C420.808 170.025 420.824 169.934 420.805 169.847C420.786 169.761 420.733 169.685 420.659 169.637C420.585 169.589 420.495 169.572 420.408 169.591C420.282 169.621 407.646 172.436 400.294 170.748C397.949 170.209 396.579 169.344 396.227 168.173C395.748 166.596 397.272 164.931 397.289 164.915C397.319 164.882 397.343 164.844 397.358 164.803C397.374 164.761 397.381 164.717 397.379 164.672C397.378 164.628 397.368 164.584 397.35 164.544C397.331 164.504 397.306 164.467 397.273 164.437C397.241 164.407 397.203 164.383 397.162 164.367C397.121 164.352 397.077 164.344 397.033 164.346C396.989 164.347 396.946 164.358 396.906 164.376C396.865 164.394 396.829 164.42 396.799 164.453C396.726 164.533 394.995 166.425 395.587 168.37C396.019 169.788 397.553 170.81 400.15 171.405C402.095 171.809 404.078 171.998 406.064 171.968Z" fill="white"/>
<path d="M396.549 172.152C396.822 172.358 397.164 172.447 397.502 172.399C397.839 172.352 398.144 172.171 398.35 171.898L399.084 170.916C399.289 170.641 399.377 170.296 399.33 169.956C399.283 169.616 399.104 169.308 398.832 169.101C398.56 168.894 398.217 168.805 397.88 168.853C397.542 168.9 397.237 169.081 397.031 169.354L396.296 170.337C396.092 170.612 396.004 170.957 396.052 171.297C396.099 171.637 396.278 171.944 396.549 172.152Z" fill="#FF2400"/>
<path opacity="0.2" d="M418.744 146.884L408.047 152.127C407.997 153.568 407.819 155.001 407.515 156.41C410.865 156.685 416.336 154.205 417.69 150.952C418.284 149.672 418.641 148.293 418.744 146.884Z" fill="black"/>
<path d="M436.901 132.453C431.391 143.979 429.308 148.961 420.878 152.919C408.198 158.871 395.231 150.382 397.181 137.635C398.937 126.162 407.649 109.242 421.131 108.601C434.418 107.973 442.409 120.927 436.901 132.453Z" fill="#FFC3BD"/>
<path d="M432.071 115.716C426.084 124.292 426.388 138.348 433.444 140.253C444.204 138.587 446.489 135.782 446.489 135.782C446.489 135.782 443.016 109.34 432.071 115.716Z" fill="#263238"/>
<path d="M440.503 119.238C424.666 121.274 412.06 114.604 409.696 110.872C424.033 101.104 438.926 109.419 440.503 119.238Z" fill="#263238"/>
<path d="M407.45 125.794C407.45 125.794 403.978 129.46 401.276 130.867C402.049 132.539 404.482 132.758 404.482 132.758L407.45 125.794Z" fill="#ED847E"/>
<path d="M408.212 138.081C407.632 137.986 407.063 137.84 406.51 137.644C406.472 137.631 406.438 137.61 406.409 137.582C406.38 137.555 406.357 137.521 406.342 137.484C406.326 137.448 406.319 137.408 406.319 137.368C406.32 137.328 406.329 137.288 406.346 137.252C406.379 137.174 406.439 137.112 406.515 137.077C406.592 137.042 406.678 137.038 406.757 137.064C408.008 137.511 409.343 137.668 410.662 137.525C411.982 137.381 413.252 136.941 414.38 136.235C414.411 136.209 414.448 136.19 414.487 136.179C414.526 136.168 414.567 136.165 414.607 136.17C414.647 136.176 414.686 136.189 414.721 136.21C414.756 136.231 414.786 136.259 414.81 136.292C414.833 136.326 414.85 136.363 414.859 136.403C414.867 136.443 414.868 136.485 414.86 136.525C414.852 136.565 414.837 136.603 414.814 136.637C414.791 136.671 414.761 136.699 414.727 136.721C412.795 137.968 410.475 138.452 408.212 138.081Z" fill="#263238"/>
<path d="M436.203 144.302C435.159 144.928 433.998 145.327 432.793 145.475C431.587 145.622 430.365 145.515 429.203 145.159C426.37 144.153 427.204 140.665 429.876 138.447C432.281 136.447 436.652 134.566 438.587 136.778C440.495 138.958 439.057 142.693 436.203 144.302Z" fill="#FFC3BD"/>
<path d="M431.148 145.009C431.92 145.01 432.674 145.242 433.315 145.674C433.956 146.107 434.455 146.722 434.75 147.441C435.045 148.159 435.122 148.95 434.971 149.713C434.82 150.476 434.448 151.176 433.903 151.726C433.357 152.276 432.662 152.651 431.905 152.803C431.149 152.955 430.364 152.877 429.651 152.58C428.938 152.283 428.328 151.78 427.899 151.134C427.469 150.487 427.24 149.728 427.238 148.95C427.236 148.432 427.336 147.918 427.532 147.439C427.728 146.96 428.016 146.525 428.379 146.159C428.743 145.792 429.174 145.502 429.65 145.305C430.125 145.107 430.634 145.007 431.148 145.009ZM431.148 151.96C431.74 151.959 432.319 151.781 432.811 151.449C433.302 151.116 433.685 150.644 433.911 150.092C434.137 149.541 434.195 148.934 434.078 148.349C433.961 147.763 433.675 147.226 433.256 146.805C432.836 146.384 432.302 146.098 431.721 145.982C431.14 145.867 430.538 145.928 429.992 146.158C429.445 146.387 428.978 146.775 428.651 147.272C428.323 147.769 428.148 148.353 428.15 148.95C428.15 149.346 428.228 149.738 428.379 150.104C428.53 150.47 428.751 150.802 429.03 151.082C429.308 151.361 429.639 151.583 430.002 151.734C430.366 151.884 430.755 151.961 431.148 151.96Z" fill="white"/>
<path d="M422.429 124.895C422.36 124.851 422.301 124.793 422.257 124.724C422.213 124.655 422.184 124.577 422.172 124.495C422.081 123.74 421.805 123.019 421.37 122.398C420.935 121.776 420.353 121.273 419.677 120.934C419.604 120.905 419.538 120.86 419.482 120.803C419.427 120.747 419.384 120.679 419.356 120.604C419.328 120.53 419.315 120.45 419.32 120.371C419.324 120.291 419.344 120.213 419.38 120.142C419.458 119.993 419.588 119.879 419.745 119.821C419.902 119.763 420.075 119.765 420.23 119.827C421.093 120.241 421.839 120.866 422.399 121.646C422.959 122.426 423.316 123.336 423.436 124.291C423.453 124.457 423.405 124.623 423.302 124.754C423.199 124.884 423.05 124.97 422.886 124.991C422.727 125.016 422.565 124.982 422.429 124.895Z" fill="#263238"/>
<path d="M403.408 117.745C403.331 117.737 403.256 117.714 403.187 117.676C403.119 117.638 403.059 117.587 403.011 117.525C402.965 117.459 402.931 117.384 402.913 117.304C402.896 117.225 402.893 117.142 402.907 117.062C402.921 116.982 402.95 116.905 402.993 116.836C403.037 116.767 403.093 116.707 403.159 116.66C403.936 116.022 404.848 115.573 405.825 115.347C406.802 115.122 407.818 115.127 408.793 115.361C408.869 115.385 408.939 115.424 408.998 115.477C409.058 115.53 409.106 115.594 409.139 115.667C409.172 115.74 409.19 115.819 409.191 115.899C409.192 115.979 409.176 116.058 409.145 116.132C409.083 116.287 408.966 116.414 408.816 116.488C408.667 116.562 408.496 116.577 408.336 116.531C407.561 116.357 406.758 116.364 405.986 116.55C405.215 116.737 404.496 117.099 403.884 117.608C403.748 117.713 403.578 117.762 403.408 117.745Z" fill="#263238"/>
<path d="M403.605 122.297C403.261 123.297 403.513 124.296 404.167 124.513C404.82 124.73 405.629 124.1 405.973 123.096C406.317 122.092 406.064 121.096 405.41 120.878C404.757 120.66 403.948 121.293 403.605 122.297Z" fill="#263238"/>
<path d="M415.214 127.116C414.871 128.115 415.122 129.115 415.776 129.332C416.431 129.549 417.237 128.919 417.582 127.914C417.926 126.91 417.673 125.915 417.019 125.698C416.366 125.481 415.557 126.113 415.214 127.116Z" fill="#263238"/>
<path d="M417.582 126.286L416.491 123.913C416.491 123.913 415.858 126.172 417.582 126.286Z" fill="#263238"/>
<path d="M406.047 121.607L404.956 119.234C404.956 119.234 404.323 121.497 406.047 121.607Z" fill="#263238"/>
<path opacity="0.5" d="M420.064 191.747L431.68 196.145C426.9 205.08 423.113 212.483 420.206 218.901C420.914 209.862 420.867 200.778 420.064 191.747Z" fill="#45315D"/>
<path d="M331.959 507.717H347.244V285.797H331.959V507.717Z" fill="#45315D"/>
<path opacity="0.2" d="M347.243 285.796H331.958V323.12L347.243 319.149V285.796Z" fill="black"/>
<path d="M257.899 313.432H394.199V278.558C394.198 271.633 391.468 264.992 386.61 260.096C381.752 255.2 375.163 252.449 368.293 252.448H283.808C276.938 252.448 270.348 255.198 265.489 260.095C260.631 264.991 257.9 271.633 257.899 278.558V313.432Z" fill="#45315D"/>
<path d="M384.152 271.27L386.415 268.013C386.835 267.409 387.392 266.915 388.039 266.572C388.686 266.229 389.405 266.047 390.137 266.04L397.07 265.983C398.436 265.972 399.785 266.29 401.004 266.911C402.223 267.532 403.277 268.439 404.077 269.554L405.082 270.954C401.694 276.613 393.895 280.214 393.895 280.214L391.786 281.49C391.361 281.765 390.885 281.951 390.387 282.039C389.89 282.127 389.379 282.114 388.887 282.002C388.394 281.89 387.928 281.68 387.516 281.385C387.104 281.09 386.754 280.716 386.487 280.283L383.927 276.102C383.496 275.361 383.288 274.51 383.328 273.652C383.368 272.794 383.654 271.967 384.152 271.27Z" fill="#FFC3BD"/>
<path d="M415.718 188.414C416.067 189.148 416.527 190.23 416.92 191.182L418.11 194.17C418.883 196.181 419.613 198.219 420.292 200.268C421.629 204.313 422.73 208.433 423.591 212.607C423.998 214.656 424.336 216.693 424.583 218.706C424.798 220.656 424.913 222.617 424.927 224.58C425.032 227.892 424.453 231.189 423.226 234.263L422.73 235.346C422.689 235.435 422.656 235.528 422.631 235.623C421.776 238.308 420.456 240.82 418.734 243.043C416.74 245.748 414.545 248.295 412.168 250.664C409.708 253.106 407.075 255.463 404.332 257.731C402.963 258.862 401.555 259.952 400.132 261.022C398.736 262.076 397.214 263.17 395.89 264.05L403.486 276.141C405.296 274.986 406.842 273.942 408.484 272.814C410.098 271.701 411.682 270.548 413.262 269.38C416.428 267.051 419.522 264.581 422.533 261.916C425.663 259.209 428.59 256.273 431.291 253.132C432.738 251.438 434.07 249.648 435.277 247.774C436.632 245.706 437.77 243.501 438.674 241.197L438.078 242.556C440.936 237.285 442.589 231.437 442.918 225.44C443.261 220.184 443.12 214.907 442.496 209.678C441.904 204.686 441.043 199.731 439.917 194.834C439.376 192.406 438.781 189.994 438.132 187.599C437.807 186.399 437.463 185.199 437.106 184C436.734 182.763 436.402 181.667 435.908 180.242L415.718 188.414Z" fill="#48A7A5"/>
<path opacity="0.5" d="M415.718 188.414C416.067 189.148 416.527 190.23 416.92 191.182L418.11 194.17C418.883 196.181 419.613 198.219 420.292 200.268C421.629 204.313 422.73 208.433 423.591 212.607C423.998 214.656 424.336 216.693 424.583 218.706C424.798 220.656 424.913 222.617 424.927 224.58C425.032 227.892 424.453 231.189 423.226 234.263L422.73 235.346C422.689 235.435 422.656 235.528 422.631 235.623C421.776 238.308 420.456 240.82 418.734 243.043C416.74 245.748 414.545 248.295 412.168 250.664C409.708 253.106 407.075 255.463 404.332 257.731C402.963 258.862 401.555 259.952 400.132 261.022C398.736 262.076 397.214 263.17 395.89 264.05L403.486 276.141C405.296 274.986 406.842 273.942 408.484 272.814C410.098 271.701 411.682 270.548 413.262 269.38C416.428 267.051 419.522 264.581 422.533 261.916C425.663 259.209 428.59 256.273 431.291 253.132C432.738 251.438 434.07 249.648 435.277 247.774C436.632 245.706 437.77 243.501 438.674 241.197L438.078 242.556C440.936 237.285 442.589 231.437 442.918 225.44C443.261 220.184 443.12 214.907 442.496 209.678C441.904 204.686 441.043 199.731 439.917 194.834C439.376 192.406 438.781 189.994 438.132 187.599C437.807 186.399 437.463 185.199 437.106 184C436.734 182.763 436.402 181.667 435.908 180.242L415.718 188.414Z" fill="#45315D"/>
<path opacity="0.1" d="M327.862 305.809H394.2V288.814H327.862V305.809Z" fill="white"/>
<path opacity="0.2" d="M327.861 313.432V287.701C327.885 283.055 326.999 278.45 325.252 274.151C323.505 269.851 320.932 265.942 317.681 262.648C314.431 259.354 310.566 256.74 306.31 254.957C302.054 253.173 297.49 252.255 292.88 252.255C288.271 252.255 283.707 253.173 279.451 254.957C275.195 256.74 271.33 259.354 268.079 262.648C264.829 265.942 262.256 269.851 260.509 274.151C258.762 278.45 257.875 283.055 257.9 287.701V313.431" fill="black"/>
<path d="M232.136 317.958H327.862V313.432H232.136V317.958Z" fill="#45315D"/>
<path opacity="0.2" d="M232.136 317.958H302.098V313.432H232.136V317.958Z" fill="#CDE5FF"/>
<path d="M337.119 294.968H339.6V235.409H337.119V294.968Z" fill="#E0E0E0"/>
<path d="M353.704 246.964H336.37V238.417C336.37 238.115 336.49 237.824 336.702 237.61C336.914 237.396 337.202 237.276 337.503 237.276H353.704L350.866 242.12L353.704 246.964Z" fill="#45315D"/>
<path d="M67.5121 26.6099L161.758 48.2632L173.829 55.7802L67.5121 26.6099Z" fill="#5B0CBB"/>
<path opacity="0.2" d="M161.758 48.2632L173.829 55.7802L67.5121 26.6099" fill="#5B0CBB"/>
<path d="M67.5122 26.6089L161.755 48.2622L152.883 54.8425L67.5122 26.6089Z" fill="#45315D"/>
<path d="M79.0492 15.5958L128.564 13.3485C130.328 13.2685 131.821 14.6435 131.899 16.4196L132.948 40.234C133.026 42.0102 131.66 43.5149 129.896 43.595L80.3814 45.8422C78.6178 45.9223 77.1248 44.5473 77.0466 42.7712L75.9977 18.9567C75.9194 17.1806 77.2856 15.6758 79.0492 15.5958Z" fill="#48A7A5"/>
<path opacity="0.8" d="M79.0492 15.5958L128.564 13.3485C130.328 13.2685 131.821 14.6435 131.899 16.4196L132.948 40.234C133.026 42.0102 131.66 43.5149 129.896 43.595L80.3814 45.8422C78.6178 45.9223 77.1248 44.5473 77.0466 42.7712L75.9977 18.9567C75.9194 17.1806 77.2856 15.6758 79.0492 15.5958Z" fill="white"/>
<path opacity="0.4" d="M139.365 34.9826C139.5 34.982 139.632 34.9406 139.744 34.8637L164.18 17.8681C164.252 17.8178 164.314 17.7536 164.362 17.6791C164.41 17.6047 164.442 17.5215 164.458 17.4344C164.474 17.3472 164.473 17.2577 164.454 17.1711C164.436 17.0844 164.401 17.0023 164.351 16.9294C164.301 16.8565 164.237 16.7942 164.163 16.746C164.089 16.6979 164.007 16.665 163.92 16.649C163.834 16.633 163.745 16.6344 163.659 16.653C163.573 16.6716 163.492 16.7071 163.419 16.7574L139.331 33.515L113.961 18.8079C113.807 18.7188 113.624 18.695 113.453 18.7418C113.281 18.7886 113.135 18.9021 113.047 19.0573C112.959 19.2126 112.935 19.3968 112.981 19.5696C113.028 19.7424 113.14 19.8895 113.295 19.9786L139.029 34.8937C139.132 34.952 139.247 34.9826 139.365 34.9826Z" fill="#45315D"/>
<path opacity="0.4" d="M114.505 41.566C114.641 41.566 114.774 41.5242 114.886 41.446L128.893 31.6346C129.035 31.5313 129.132 31.3754 129.162 31.2007C129.192 31.026 129.152 30.8465 129.052 30.701C128.951 30.5555 128.798 30.4557 128.625 30.4231C128.452 30.3905 128.274 30.4278 128.128 30.5269L114.122 40.3383C114.005 40.4204 113.917 40.538 113.871 40.674C113.825 40.81 113.823 40.9573 113.865 41.0944C113.908 41.2315 113.993 41.3513 114.108 41.4363C114.223 41.5213 114.362 41.5661 114.505 41.566Z" fill="#45315D"/>
<path opacity="0.4" d="M164.676 39.4886C164.823 39.4892 164.967 39.4406 165.084 39.3504C165.201 39.2603 165.286 39.1336 165.324 38.9901C165.362 38.8466 165.352 38.6944 165.296 38.5571C165.24 38.4198 165.14 38.3051 165.012 38.2309L150.255 29.6102C150.101 29.5206 149.919 29.4962 149.747 29.5424C149.575 29.5886 149.429 29.7017 149.34 29.8566C149.251 30.0116 149.227 30.1958 149.273 30.3688C149.319 30.5418 149.431 30.6893 149.585 30.7789L164.343 39.3986C164.444 39.4578 164.559 39.4888 164.676 39.4886Z" fill="#45315D"/>
<path d="M67.5111 26.6089L148.307 43.2565L152.883 54.8425L67.5111 26.6089Z" fill="#48A7A5"/>
<path d="M67.5111 26.6089L148.307 43.2565L152.883 54.8425L67.5111 26.6089Z" fill="#5B0CBB"/>
<path d="M67.5121 26.6089L148.307 43.2565L122.863 52.5541L67.5121 26.6089Z" fill="#45315D"/>
<path d="M179.518 65.1057C179.683 65.1064 179.842 65.0457 179.965 64.9354C180.088 64.8251 180.167 64.6729 180.186 64.5079C180.204 64.3429 180.162 64.1767 180.067 64.0411C179.972 63.9056 179.83 63.8101 179.67 63.7731C178.182 63.4222 176.723 62.957 175.306 62.3815C175.141 62.3144 174.956 62.316 174.793 62.3859C174.629 62.4558 174.5 62.5884 174.434 62.7544C174.367 62.9203 174.369 63.1062 174.438 63.271C174.507 63.4358 174.639 63.566 174.804 63.6331C176.284 64.2344 177.807 64.7207 179.361 65.0877C179.413 65.0997 179.465 65.1058 179.518 65.1057Z" fill="#48A7A5"/>
<path d="M229.843 298.28C230.017 298.279 230.184 298.209 230.308 298.086C230.432 297.963 230.503 297.796 230.507 297.621C230.511 297.446 230.447 297.276 230.329 297.147C230.211 297.018 230.048 296.941 229.874 296.932C226.775 296.78 223.617 296.492 220.489 296.077C220.401 296.063 220.311 296.067 220.224 296.089C220.138 296.111 220.056 296.15 219.985 296.203C219.913 296.257 219.853 296.325 219.808 296.403C219.763 296.48 219.734 296.566 219.722 296.655C219.711 296.744 219.717 296.835 219.74 296.922C219.764 297.008 219.804 297.089 219.859 297.16C219.914 297.231 219.983 297.29 220.061 297.334C220.139 297.377 220.225 297.405 220.313 297.415C223.477 297.834 226.673 298.126 229.809 298.279L229.843 298.28ZM211.064 295.79C211.229 295.789 211.388 295.727 211.51 295.616C211.632 295.505 211.709 295.352 211.727 295.187C211.744 295.022 211.701 294.856 211.605 294.721C211.509 294.587 211.367 294.492 211.206 294.456C208.052 293.769 204.99 292.957 202.103 292.035C201.935 291.988 201.757 292.009 201.604 292.092C201.452 292.176 201.337 292.315 201.285 292.482C201.232 292.649 201.246 292.83 201.323 292.986C201.4 293.143 201.535 293.264 201.698 293.323C204.627 294.254 207.73 295.08 210.922 295.775C210.969 295.785 211.017 295.79 211.064 295.79ZM193.045 289.957C193.198 289.958 193.346 289.905 193.465 289.808C193.584 289.712 193.667 289.577 193.7 289.426C193.732 289.276 193.713 289.119 193.644 288.981C193.576 288.843 193.463 288.733 193.324 288.669C191.055 287.641 188.867 286.442 186.777 285.083C186.248 284.732 185.72 284.375 185.191 284.012C185.118 283.959 185.036 283.921 184.948 283.901C184.861 283.88 184.771 283.878 184.682 283.893C184.594 283.908 184.51 283.942 184.434 283.991C184.359 284.04 184.294 284.103 184.244 284.178C184.193 284.252 184.158 284.337 184.14 284.425C184.123 284.514 184.123 284.605 184.141 284.693C184.159 284.782 184.194 284.866 184.245 284.94C184.296 285.015 184.361 285.078 184.437 285.127C184.97 285.494 185.505 285.855 186.043 286.21C188.189 287.607 190.435 288.84 192.764 289.897C192.853 289.936 192.949 289.955 193.045 289.953V289.957ZM177.288 279.442C177.425 279.442 177.558 279.401 177.67 279.322C177.783 279.244 177.868 279.133 177.916 279.004C177.964 278.875 177.972 278.734 177.938 278.601C177.904 278.468 177.831 278.348 177.728 278.258C175.357 276.206 173.157 273.963 171.147 271.551C171.09 271.483 171.021 271.427 170.943 271.385C170.866 271.344 170.78 271.318 170.693 271.31C170.605 271.302 170.517 271.311 170.432 271.338C170.348 271.364 170.27 271.407 170.202 271.463C170.135 271.52 170.079 271.59 170.038 271.668C169.997 271.747 169.971 271.833 169.963 271.921C169.955 272.009 169.964 272.099 169.99 272.183C170.017 272.268 170.059 272.347 170.115 272.415C172.172 274.882 174.425 277.177 176.85 279.277C176.972 279.384 177.127 279.442 177.288 279.442ZM165.386 264.728C165.492 264.728 165.596 264.703 165.69 264.654C165.768 264.614 165.837 264.558 165.894 264.491C165.951 264.423 165.995 264.345 166.022 264.26C166.049 264.176 166.059 264.087 166.052 263.999C166.045 263.91 166.02 263.824 165.98 263.745C165.548 262.895 165.146 262.025 164.79 261.158C163.959 259.145 163.286 257.069 162.777 254.949C162.735 254.775 162.627 254.625 162.475 254.532C162.323 254.439 162.141 254.41 161.969 254.452C161.796 254.495 161.647 254.604 161.555 254.757C161.462 254.91 161.434 255.094 161.476 255.268C162.002 257.457 162.699 259.6 163.559 261.679C163.931 262.579 164.352 263.478 164.796 264.361C164.851 264.471 164.935 264.563 165.039 264.627C165.142 264.692 165.261 264.727 165.383 264.729L165.386 264.728ZM160.738 246.344H160.784C160.961 246.332 161.126 246.25 161.243 246.115C161.359 245.98 161.418 245.805 161.407 245.626C161.284 243.785 161.223 241.843 161.223 239.691C161.223 238.508 161.242 237.324 161.272 236.14C161.276 235.961 161.21 235.787 161.088 235.657C160.965 235.527 160.797 235.452 160.619 235.447C160.531 235.442 160.442 235.456 160.359 235.487C160.276 235.518 160.201 235.565 160.136 235.627C160.072 235.688 160.021 235.762 159.986 235.844C159.952 235.926 159.934 236.014 159.934 236.104C159.903 237.303 159.884 238.497 159.884 239.69C159.884 241.872 159.946 243.843 160.071 245.715C160.082 245.885 160.157 246.045 160.28 246.162C160.403 246.278 160.566 246.344 160.735 246.345L160.738 246.344ZM160.995 227.249C161.167 227.249 161.333 227.182 161.457 227.061C161.582 226.941 161.656 226.778 161.664 226.604C161.786 223.859 161.9 220.914 161.9 217.966V217.019C161.905 216.929 161.891 216.838 161.859 216.754C161.826 216.67 161.777 216.593 161.713 216.53C161.649 216.466 161.572 216.417 161.488 216.386C161.404 216.355 161.315 216.342 161.225 216.349C161.137 216.349 161.05 216.367 160.969 216.402C160.888 216.436 160.815 216.487 160.753 216.55C160.691 216.613 160.642 216.688 160.609 216.77C160.576 216.852 160.56 216.94 160.561 217.029V217.966C160.561 220.885 160.449 223.813 160.327 226.541C160.32 226.719 160.383 226.893 160.503 227.024C160.622 227.155 160.789 227.233 160.965 227.241L160.995 227.249ZM103.738 218.934C104.955 218.934 106.147 218.902 107.292 218.852C107.469 218.844 107.636 218.766 107.756 218.634C107.876 218.502 107.939 218.327 107.931 218.148C107.924 217.97 107.846 217.801 107.715 217.68C107.584 217.559 107.411 217.496 107.233 217.504C106.107 217.554 104.935 217.585 103.738 217.585C101.776 217.59 99.8153 217.49 97.8641 217.285C97.6917 217.274 97.5217 217.33 97.3897 217.442C97.2576 217.555 97.1736 217.714 97.1552 217.887C97.1368 218.06 97.1854 218.234 97.2908 218.372C97.3963 218.51 97.5504 218.601 97.7212 218.627C99.7206 218.838 101.73 218.942 103.74 218.937L103.738 218.934ZM116.719 218.247H116.772C119.911 218.004 123.091 217.716 126.229 217.391C126.405 217.371 126.567 217.283 126.678 217.144C126.79 217.005 126.842 216.827 126.824 216.65C126.816 216.562 126.79 216.476 126.749 216.398C126.707 216.32 126.651 216.251 126.582 216.195C126.514 216.139 126.435 216.097 126.351 216.073C126.266 216.048 126.178 216.04 126.09 216.05C122.965 216.374 119.795 216.662 116.668 216.905C116.497 216.921 116.339 217.002 116.227 217.131C116.114 217.261 116.054 217.429 116.061 217.602C116.067 217.774 116.139 217.937 116.261 218.058C116.383 218.179 116.546 218.248 116.717 218.251L116.719 218.247ZM88.6358 216.315C88.7886 216.315 88.9368 216.262 89.0557 216.165C89.1746 216.069 89.2572 215.934 89.2896 215.783C89.322 215.633 89.3024 215.476 89.234 215.338C89.1656 215.2 89.0525 215.09 88.9135 215.026C86.1082 213.827 83.7324 211.794 82.1034 209.199C82.0077 209.054 81.8601 208.952 81.6914 208.914C81.5228 208.876 81.3461 208.905 81.1984 208.996C81.0507 209.086 80.9434 209.23 80.8989 209.399C80.8544 209.567 80.8763 209.746 80.9598 209.899C82.7275 212.726 85.3093 214.943 88.36 216.252C88.4457 216.293 88.539 216.315 88.6338 216.317L88.6358 216.315ZM135.573 216.291C135.602 216.291 135.63 216.291 135.66 216.286C138.778 215.88 141.941 215.425 145.061 214.936C145.236 214.909 145.394 214.812 145.498 214.667C145.603 214.523 145.647 214.342 145.619 214.165C145.592 213.989 145.496 213.83 145.352 213.724C145.209 213.619 145.03 213.575 144.854 213.603C141.746 214.089 138.595 214.542 135.488 214.947C135.319 214.968 135.164 215.054 135.055 215.186C134.945 215.318 134.891 215.488 134.901 215.66C134.912 215.831 134.988 215.993 135.112 216.11C135.237 216.228 135.402 216.292 135.573 216.291ZM154.302 213.353C154.342 213.353 154.382 213.349 154.422 213.342C157.519 212.774 160.653 212.155 163.745 211.504C163.919 211.467 164.072 211.363 164.169 211.213C164.266 211.063 164.3 210.88 164.264 210.705C164.227 210.53 164.123 210.376 163.975 210.278C163.826 210.18 163.645 210.146 163.471 210.183C160.396 210.831 157.272 211.447 154.186 212.014C154.021 212.043 153.872 212.134 153.77 212.268C153.668 212.402 153.62 212.57 153.635 212.738C153.65 212.906 153.727 213.063 153.851 213.177C153.975 213.29 154.137 213.353 154.305 213.352L154.302 213.353ZM172.85 209.444C172.902 209.444 172.954 209.438 173.005 209.426C176.07 208.697 179.17 207.917 182.218 207.106C182.39 207.061 182.536 206.948 182.626 206.793C182.715 206.639 182.74 206.455 182.695 206.282C182.65 206.108 182.538 205.96 182.385 205.87C182.231 205.78 182.048 205.755 181.877 205.801C178.84 206.607 175.751 207.384 172.698 208.111C172.539 208.15 172.4 208.246 172.307 208.381C172.213 208.516 172.172 208.681 172.191 208.844C172.209 209.008 172.287 209.159 172.408 209.269C172.53 209.379 172.687 209.44 172.851 209.442L172.85 209.444ZM160.558 208.178C160.591 208.178 160.624 208.175 160.657 208.171C160.832 208.144 160.99 208.049 161.096 207.905C161.202 207.761 161.246 207.58 161.22 207.403C160.76 204.203 159.975 201.058 158.879 198.019C158.849 197.936 158.803 197.859 158.743 197.794C158.683 197.73 158.612 197.677 158.532 197.64C158.452 197.603 158.366 197.582 158.278 197.579C158.19 197.575 158.103 197.589 158.02 197.62C157.938 197.65 157.862 197.697 157.798 197.757C157.734 197.817 157.681 197.89 157.645 197.97C157.608 198.05 157.587 198.137 157.584 198.226C157.58 198.314 157.594 198.403 157.625 198.486C158.688 201.439 159.449 204.494 159.896 207.603C159.921 207.763 160.001 207.909 160.123 208.013C160.245 208.118 160.4 208.176 160.561 208.175L160.558 208.178ZM191.178 204.579C191.242 204.579 191.305 204.57 191.366 204.552C194.39 203.664 197.444 202.721 200.445 201.753C200.532 201.729 200.614 201.687 200.684 201.631C200.755 201.574 200.814 201.504 200.857 201.424C200.9 201.344 200.927 201.256 200.935 201.165C200.944 201.075 200.934 200.983 200.906 200.897C200.879 200.81 200.834 200.73 200.775 200.661C200.717 200.592 200.644 200.536 200.563 200.496C200.482 200.456 200.394 200.433 200.304 200.428C200.214 200.423 200.123 200.437 200.039 200.468C197.048 201.432 194.004 202.368 190.991 203.255C190.836 203.301 190.703 203.401 190.616 203.538C190.528 203.674 190.493 203.838 190.516 203.999C190.538 204.159 190.618 204.307 190.74 204.413C190.861 204.519 191.017 204.579 191.178 204.579ZM79.6148 201.098C79.7699 201.098 79.9202 201.043 80.04 200.944C80.1597 200.845 80.2415 200.706 80.2714 200.553C80.9923 197.576 82.6589 194.917 85.0175 192.983C85.1326 192.86 85.1975 192.697 85.1994 192.528C85.2013 192.359 85.1399 192.195 85.0276 192.069C84.9152 191.943 84.76 191.865 84.5928 191.849C84.4255 191.833 84.2585 191.881 84.1248 191.983C81.5486 194.112 79.7349 197.032 78.9612 200.298C78.9444 200.385 78.9449 200.475 78.9626 200.562C78.9802 200.648 79.0146 200.731 79.0639 200.804C79.1132 200.878 79.1763 200.941 79.2498 200.99C79.3232 201.038 79.4054 201.072 79.4918 201.089C79.5338 201.096 79.5763 201.098 79.6188 201.096L79.6148 201.098ZM209.228 198.738C209.304 198.738 209.38 198.725 209.451 198.699C212.499 197.609 215.495 196.478 218.352 195.335C218.434 195.303 218.509 195.254 218.572 195.192C218.635 195.13 218.685 195.056 218.72 194.975C218.754 194.894 218.773 194.806 218.774 194.718C218.775 194.629 218.759 194.541 218.726 194.459C218.694 194.376 218.645 194.301 218.584 194.238C218.523 194.174 218.45 194.124 218.369 194.089C218.288 194.054 218.201 194.035 218.113 194.034C218.025 194.033 217.938 194.049 217.856 194.082C215.014 195.218 212.035 196.344 209.002 197.428C208.853 197.481 208.728 197.586 208.649 197.723C208.569 197.86 208.54 198.021 208.567 198.178C208.593 198.335 208.674 198.477 208.794 198.579C208.915 198.682 209.068 198.738 209.225 198.739L209.228 198.738ZM226.845 191.679C226.938 191.68 227.031 191.659 227.116 191.62C230.065 190.294 232.956 188.907 235.706 187.5C235.791 187.465 235.868 187.412 235.932 187.345C235.996 187.278 236.045 187.198 236.077 187.111C236.109 187.024 236.122 186.931 236.117 186.838C236.112 186.745 236.087 186.655 236.045 186.572C236.004 186.489 235.945 186.416 235.874 186.357C235.803 186.298 235.721 186.254 235.632 186.228C235.543 186.203 235.45 186.196 235.359 186.209C235.268 186.221 235.18 186.253 235.101 186.301C232.369 187.7 229.499 189.073 226.571 190.392C226.431 190.454 226.316 190.564 226.246 190.702C226.176 190.84 226.156 190.998 226.188 191.149C226.22 191.3 226.302 191.436 226.422 191.533C226.541 191.631 226.69 191.684 226.844 191.683L226.845 191.679ZM153.838 190.515C153.981 190.515 154.12 190.469 154.235 190.383C154.305 190.33 154.365 190.264 154.41 190.188C154.456 190.112 154.486 190.028 154.499 189.94C154.512 189.853 154.508 189.763 154.487 189.677C154.465 189.591 154.428 189.51 154.375 189.439C152.621 187.02 150.465 184.923 148.005 183.241C147.776 183.085 147.544 182.934 147.31 182.787C147.16 182.692 146.978 182.662 146.805 182.702C146.632 182.743 146.482 182.851 146.388 183.003C146.294 183.155 146.264 183.338 146.304 183.512C146.344 183.687 146.451 183.838 146.602 183.932C146.821 184.071 147.042 184.213 147.257 184.36C149.59 185.957 151.634 187.947 153.296 190.244C153.359 190.328 153.441 190.396 153.535 190.442C153.629 190.489 153.733 190.513 153.838 190.512V190.515ZM92.4078 187.815C92.519 187.816 92.6285 187.788 92.7262 187.734C93.848 187.121 94.9529 186.556 95.9994 186.035C97.7004 185.187 99.4599 184.403 101.23 183.703C101.312 183.671 101.387 183.623 101.45 183.561C101.514 183.5 101.564 183.426 101.6 183.345C101.635 183.264 101.654 183.177 101.655 183.088C101.657 182.999 101.641 182.911 101.609 182.829C101.577 182.746 101.529 182.671 101.468 182.607C101.407 182.543 101.334 182.492 101.254 182.457C101.173 182.421 101.087 182.402 100.999 182.4C100.911 182.399 100.823 182.414 100.741 182.447C98.9353 183.16 97.14 183.959 95.4062 184.825C94.3499 185.352 93.2301 185.925 92.0934 186.545C91.9622 186.616 91.8584 186.73 91.7985 186.867C91.7385 187.005 91.7258 187.158 91.7623 187.304C91.7989 187.45 91.8826 187.579 92.0003 187.671C92.1179 187.763 92.2627 187.813 92.4118 187.813L92.4078 187.815ZM243.733 183.017C243.851 183.016 243.967 182.985 244.069 182.925C246.865 181.289 249.583 179.58 252.146 177.847C252.22 177.798 252.284 177.735 252.334 177.661C252.384 177.587 252.419 177.504 252.437 177.416C252.455 177.329 252.455 177.239 252.438 177.151C252.421 177.063 252.386 176.98 252.337 176.905C252.287 176.831 252.224 176.768 252.15 176.718C252.076 176.669 251.993 176.635 251.906 176.618C251.819 176.602 251.729 176.603 251.642 176.621C251.555 176.64 251.473 176.675 251.4 176.726C248.861 178.443 246.168 180.135 243.398 181.758C243.271 181.833 243.172 181.947 243.116 182.084C243.06 182.222 243.051 182.373 243.089 182.516C243.127 182.659 243.211 182.786 243.328 182.876C243.444 182.966 243.587 183.015 243.734 183.016L243.733 183.017ZM110.018 180.899C110.071 180.899 110.123 180.893 110.174 180.88C113.219 180.153 116.31 179.641 119.426 179.35C119.597 179.326 119.752 179.237 119.859 179.101C119.966 178.965 120.017 178.792 120.002 178.62C119.986 178.447 119.905 178.286 119.775 178.172C119.645 178.058 119.476 177.999 119.304 178.007C116.125 178.304 112.971 178.825 109.865 179.568C109.704 179.605 109.562 179.7 109.467 179.836C109.372 179.972 109.33 180.138 109.349 180.303C109.368 180.468 109.447 180.621 109.57 180.731C109.694 180.841 109.853 180.9 110.018 180.899ZM138.212 180.459C138.376 180.459 138.534 180.398 138.656 180.289C138.778 180.179 138.857 180.028 138.876 179.864C138.895 179.7 138.854 179.535 138.761 179.399C138.667 179.264 138.528 179.168 138.369 179.129C136.017 178.568 133.627 178.185 131.219 177.983C130.437 177.912 129.654 177.855 128.869 177.814C128.779 177.806 128.688 177.815 128.602 177.843C128.517 177.871 128.437 177.916 128.369 177.975C128.301 178.034 128.245 178.107 128.205 178.189C128.165 178.27 128.142 178.359 128.138 178.45C128.133 178.541 128.146 178.631 128.177 178.717C128.208 178.802 128.256 178.88 128.317 178.947C128.379 179.013 128.453 179.066 128.536 179.103C128.618 179.14 128.707 179.159 128.797 179.161C129.566 179.203 130.333 179.258 131.098 179.327C133.441 179.522 135.766 179.895 138.054 180.44C138.106 180.453 138.16 180.459 138.213 180.459H138.212ZM259.444 172.361C259.594 172.362 259.739 172.311 259.857 172.217C262.396 170.21 264.834 168.112 267.105 165.98C267.235 165.858 267.312 165.689 267.318 165.51C267.324 165.331 267.26 165.157 267.139 165.026C267.017 164.895 266.85 164.818 266.672 164.812C266.495 164.805 266.322 164.87 266.192 164.992C263.949 167.098 261.54 169.171 259.03 171.157C258.92 171.243 258.84 171.362 258.801 171.497C258.761 171.632 258.765 171.775 258.81 171.908C258.856 172.041 258.941 172.156 259.055 172.237C259.168 172.319 259.304 172.363 259.443 172.362L259.444 172.361ZM273.269 159.325C273.364 159.325 273.458 159.305 273.544 159.265C273.631 159.226 273.708 159.168 273.771 159.096C275.877 156.686 277.841 154.153 279.654 151.512C279.755 151.365 279.794 151.183 279.762 151.007C279.73 150.831 279.63 150.675 279.484 150.573C279.338 150.472 279.157 150.433 278.983 150.465C278.808 150.497 278.653 150.598 278.552 150.745C276.769 153.343 274.836 155.834 272.765 158.205C272.68 158.303 272.624 158.423 272.605 158.551C272.586 158.68 272.604 158.811 272.658 158.93C272.711 159.048 272.797 159.148 272.905 159.219C273.014 159.289 273.14 159.325 273.269 159.325ZM283.987 143.622C284.11 143.622 284.23 143.588 284.335 143.524C284.44 143.459 284.526 143.367 284.582 143.257C286.049 140.4 287.315 137.442 288.369 134.405C288.398 134.322 288.41 134.233 288.405 134.145C288.4 134.056 288.378 133.97 288.339 133.89C288.262 133.729 288.124 133.605 287.957 133.546C287.789 133.487 287.605 133.498 287.445 133.576C287.285 133.654 287.163 133.793 287.104 133.962C286.071 136.938 284.83 139.838 283.391 142.638C283.309 142.797 283.294 142.983 283.348 143.153C283.402 143.324 283.521 143.466 283.678 143.548C283.774 143.597 283.88 143.622 283.987 143.622ZM290.149 125.627C290.306 125.626 290.458 125.571 290.578 125.469C290.699 125.368 290.78 125.227 290.808 125.071C290.935 124.353 291.049 123.631 291.151 122.905C291.482 120.526 291.648 118.125 291.647 115.722V115.445C291.646 115.266 291.575 115.095 291.449 114.969C291.323 114.843 291.153 114.772 290.975 114.773C290.797 114.774 290.627 114.846 290.502 114.973C290.377 115.1 290.307 115.271 290.308 115.45V115.721C290.309 118.063 290.148 120.401 289.827 122.72C289.728 123.427 289.616 124.132 289.491 124.835C289.46 125.011 289.499 125.192 289.601 125.339C289.702 125.486 289.857 125.586 290.031 125.618C290.07 125.625 290.11 125.63 290.149 125.631V125.627ZM290.082 106.626C290.123 106.626 290.164 106.622 290.204 106.614C290.378 106.581 290.533 106.48 290.633 106.333C290.734 106.185 290.773 106.004 290.74 105.828C290.159 102.656 289.31 99.5404 288.202 96.5144C288.137 96.3517 288.012 96.221 287.853 96.1499C287.693 96.0789 287.513 96.0731 287.35 96.1338C287.186 96.1945 287.053 96.317 286.978 96.4752C286.902 96.6334 286.891 96.8149 286.947 96.9813C288.029 99.9346 288.859 102.976 289.426 106.072C289.454 106.227 289.534 106.368 289.654 106.47C289.774 106.572 289.925 106.628 290.082 106.63V106.626ZM283.544 88.7915C283.662 88.7911 283.778 88.7596 283.879 88.7001C283.981 88.6405 284.065 88.5551 284.124 88.4522C284.183 88.3494 284.213 88.2329 284.213 88.1143C284.213 87.9957 284.182 87.8793 284.123 87.7767C282.513 84.986 280.654 82.3494 278.568 79.8998C278.451 79.7701 278.288 79.6917 278.114 79.6811C277.94 79.6705 277.769 79.7286 277.637 79.8431C277.505 79.9576 277.423 80.1194 277.407 80.2943C277.391 80.4691 277.444 80.6432 277.554 80.7796C279.586 83.1668 281.397 85.7361 282.965 88.4555C283.023 88.5587 283.108 88.6445 283.209 88.7042C283.311 88.7639 283.427 88.7954 283.544 88.7955V88.7915ZM271.221 74.4282C271.36 74.4278 271.496 74.3836 271.609 74.3019C271.722 74.2201 271.807 74.1048 271.853 73.972C271.898 73.8392 271.901 73.6955 271.862 73.5608C271.822 73.4261 271.742 73.3072 271.632 73.2206C269.099 71.2448 266.385 69.5155 263.528 68.0559C263.449 68.0091 263.362 67.9791 263.271 67.9676C263.18 67.9561 263.088 67.9634 263.001 67.9891C262.913 68.0147 262.831 68.0583 262.761 68.1169C262.691 68.1756 262.633 68.2481 262.591 68.3301C262.55 68.4121 262.525 68.5018 262.519 68.5937C262.513 68.6856 262.526 68.7777 262.557 68.8644C262.588 68.9511 262.636 69.0305 262.698 69.0978C262.761 69.1651 262.836 69.2188 262.92 69.2556C265.702 70.6759 268.343 72.359 270.81 74.2823C270.926 74.3773 271.071 74.4302 271.221 74.4322V74.4282ZM188.927 66.0524H188.941C192.13 65.9846 195.311 65.7017 198.463 65.2057C198.55 65.1935 198.635 65.1639 198.711 65.1186C198.788 65.0733 198.854 65.0131 198.907 64.9416C198.961 64.8702 198.999 64.7887 199.021 64.7021C199.042 64.6155 199.047 64.5255 199.034 64.4371C199.021 64.3488 198.99 64.264 198.944 64.1876C198.898 64.1112 198.838 64.0447 198.766 63.9921C198.695 63.9394 198.613 63.9016 198.527 63.8808C198.441 63.86 198.352 63.8567 198.264 63.871C195.171 64.358 192.048 64.6359 188.918 64.7028C188.74 64.7039 188.57 64.776 188.446 64.9033C188.321 65.0306 188.251 65.2026 188.252 65.3816C188.253 65.5606 188.325 65.7318 188.451 65.8576C188.578 65.9834 188.748 66.0535 188.926 66.0524H188.927ZM254.466 65.7025C254.625 65.7024 254.779 65.6452 254.9 65.5411C255.021 65.437 255.101 65.2929 255.127 65.1345C255.152 64.9762 255.12 64.814 255.038 64.677C254.955 64.54 254.826 64.4371 254.675 64.3869C251.642 63.4003 248.555 62.5928 245.428 61.9685C245.254 61.9334 245.073 61.9695 244.925 62.0688C244.777 62.1682 244.675 62.3227 244.64 62.4984C244.605 62.674 244.641 62.8565 244.739 63.0055C244.838 63.1546 244.991 63.258 245.165 63.2932C248.24 63.9061 251.276 64.7003 254.259 65.6715C254.326 65.6937 254.396 65.7055 254.466 65.7065V65.7025ZM207.7 63.5811C207.741 63.581 207.782 63.577 207.823 63.5691C210.699 63.0302 213.953 62.4194 217.136 61.9645C217.223 61.9521 217.307 61.9225 217.383 61.8775C217.459 61.8324 217.525 61.7728 217.578 61.702C217.631 61.6311 217.669 61.5505 217.691 61.4647C217.713 61.3788 217.718 61.2895 217.706 61.2017C217.693 61.1139 217.664 61.0295 217.619 60.9531C217.575 60.8768 217.515 60.8101 217.445 60.7568C217.375 60.7035 217.295 60.6647 217.21 60.6426C217.125 60.6205 217.036 60.6155 216.949 60.6279C213.736 61.0867 210.463 61.7006 207.578 62.2424C207.413 62.2727 207.266 62.364 207.165 62.4983C207.064 62.6326 207.016 62.8001 207.031 62.968C207.047 63.1359 207.124 63.2919 207.248 63.4053C207.371 63.5188 207.533 63.5815 207.7 63.5811ZM235.932 61.8425C236.104 61.8435 236.269 61.778 236.394 61.6596C236.519 61.5412 236.594 61.3789 236.604 61.2063C236.614 61.0336 236.558 60.8637 236.447 60.7317C236.336 60.5997 236.179 60.5157 236.009 60.4969C234.303 60.297 232.489 60.124 230.617 59.973C229.427 59.8781 228.182 59.8301 226.917 59.8301H226.477C226.389 59.8307 226.302 59.8488 226.221 59.8834C226.14 59.9179 226.067 59.9682 226.005 60.0314C225.944 60.0945 225.895 60.1693 225.863 60.2514C225.83 60.3335 225.813 60.4214 225.814 60.5099C225.825 60.6859 225.9 60.8516 226.025 60.9752C226.149 61.0988 226.315 61.1717 226.49 61.1797H226.918C228.149 61.1797 229.357 61.2267 230.513 61.3187C232.368 61.4686 234.168 61.6426 235.857 61.8385C235.882 61.8425 235.907 61.8452 235.932 61.8465V61.8425Z" fill="#48A7A5"/>
<path d="M239.457 298.314H239.488C241.084 298.242 242.669 298.132 244.196 297.983C244.369 297.961 244.527 297.872 244.635 297.734C244.744 297.597 244.795 297.422 244.778 297.248C244.761 297.073 244.678 296.911 244.545 296.798C244.412 296.684 244.24 296.627 244.066 296.639C242.563 296.786 241.001 296.896 239.428 296.966C239.255 296.975 239.092 297.052 238.973 297.18C238.855 297.309 238.791 297.478 238.795 297.653C238.798 297.829 238.869 297.995 238.993 298.119C239.116 298.242 239.282 298.312 239.456 298.314H239.457Z" fill="#407BFF"/>
<path d="M179.518 65.1057C179.683 65.1064 179.842 65.0457 179.965 64.9354C180.088 64.8251 180.167 64.6729 180.186 64.5079C180.204 64.3429 180.162 64.1767 180.067 64.0411C179.972 63.9056 179.83 63.8101 179.67 63.7731C178.182 63.4222 176.723 62.957 175.306 62.3815C175.141 62.3144 174.956 62.316 174.793 62.3859C174.629 62.4558 174.5 62.5884 174.434 62.7544C174.367 62.9203 174.369 63.1062 174.438 63.271C174.507 63.4358 174.639 63.566 174.804 63.6331C176.284 64.2344 177.807 64.7207 179.361 65.0877C179.413 65.0997 179.465 65.1058 179.518 65.1057Z" fill="#45315D"/>
<path d="M229.843 298.28C230.017 298.279 230.184 298.209 230.308 298.086C230.432 297.963 230.503 297.796 230.507 297.621C230.511 297.446 230.447 297.276 230.329 297.147C230.211 297.018 230.048 296.941 229.874 296.932C226.775 296.78 223.617 296.492 220.489 296.077C220.401 296.063 220.311 296.067 220.224 296.089C220.138 296.111 220.056 296.15 219.985 296.203C219.913 296.257 219.853 296.325 219.808 296.403C219.763 296.48 219.734 296.566 219.722 296.655C219.711 296.744 219.717 296.835 219.74 296.922C219.764 297.008 219.804 297.089 219.859 297.16C219.914 297.231 219.983 297.29 220.061 297.334C220.139 297.377 220.225 297.405 220.313 297.415C223.477 297.834 226.673 298.126 229.809 298.279L229.843 298.28ZM211.064 295.79C211.229 295.789 211.388 295.727 211.51 295.616C211.632 295.505 211.709 295.352 211.727 295.187C211.744 295.022 211.701 294.856 211.605 294.721C211.509 294.587 211.367 294.492 211.206 294.456C208.052 293.769 204.99 292.957 202.103 292.035C201.935 291.988 201.757 292.009 201.604 292.092C201.452 292.176 201.337 292.315 201.285 292.482C201.232 292.649 201.246 292.83 201.323 292.986C201.4 293.143 201.535 293.264 201.698 293.323C204.627 294.254 207.73 295.08 210.922 295.775C210.969 295.785 211.017 295.79 211.064 295.79ZM193.045 289.957C193.198 289.958 193.346 289.905 193.465 289.808C193.584 289.712 193.667 289.577 193.7 289.426C193.732 289.276 193.713 289.119 193.644 288.981C193.576 288.843 193.463 288.733 193.324 288.669C191.055 287.641 188.867 286.442 186.777 285.083C186.248 284.732 185.72 284.375 185.191 284.012C185.118 283.959 185.036 283.921 184.948 283.901C184.861 283.88 184.771 283.878 184.682 283.893C184.594 283.908 184.51 283.942 184.434 283.991C184.359 284.04 184.294 284.103 184.244 284.178C184.193 284.252 184.158 284.337 184.14 284.425C184.123 284.514 184.123 284.605 184.141 284.693C184.159 284.782 184.194 284.866 184.245 284.94C184.296 285.015 184.361 285.078 184.437 285.127C184.97 285.494 185.505 285.855 186.043 286.21C188.189 287.607 190.435 288.84 192.764 289.897C192.853 289.936 192.949 289.955 193.045 289.953V289.957ZM177.288 279.442C177.425 279.442 177.558 279.401 177.67 279.322C177.783 279.244 177.868 279.133 177.916 279.004C177.964 278.875 177.972 278.734 177.938 278.601C177.904 278.468 177.831 278.348 177.728 278.258C175.357 276.206 173.157 273.963 171.147 271.551C171.09 271.483 171.021 271.427 170.943 271.385C170.866 271.344 170.78 271.318 170.693 271.31C170.605 271.302 170.517 271.311 170.432 271.338C170.348 271.364 170.27 271.407 170.202 271.463C170.135 271.52 170.079 271.59 170.038 271.668C169.997 271.747 169.971 271.833 169.963 271.921C169.955 272.009 169.964 272.099 169.99 272.183C170.017 272.268 170.059 272.347 170.115 272.415C172.172 274.882 174.425 277.177 176.85 279.277C176.972 279.384 177.127 279.442 177.288 279.442ZM165.386 264.728C165.492 264.728 165.596 264.703 165.69 264.654C165.768 264.614 165.837 264.558 165.894 264.491C165.951 264.423 165.995 264.345 166.022 264.26C166.049 264.176 166.059 264.087 166.052 263.999C166.045 263.91 166.02 263.824 165.98 263.745C165.548 262.895 165.146 262.025 164.79 261.158C163.959 259.145 163.286 257.069 162.777 254.949C162.735 254.775 162.627 254.625 162.475 254.532C162.323 254.439 162.141 254.41 161.969 254.452C161.796 254.495 161.647 254.604 161.555 254.757C161.462 254.91 161.434 255.094 161.476 255.268C162.002 257.457 162.699 259.6 163.559 261.679C163.931 262.579 164.352 263.478 164.796 264.361C164.851 264.471 164.935 264.563 165.039 264.627C165.142 264.692 165.261 264.727 165.383 264.729L165.386 264.728ZM160.738 246.344H160.784C160.961 246.332 161.126 246.25 161.243 246.115C161.359 245.98 161.418 245.805 161.407 245.626C161.284 243.785 161.223 241.843 161.223 239.691C161.223 238.508 161.242 237.324 161.272 236.14C161.276 235.961 161.21 235.787 161.088 235.657C160.965 235.527 160.797 235.452 160.619 235.447C160.531 235.442 160.442 235.456 160.359 235.487C160.276 235.518 160.201 235.565 160.136 235.627C160.072 235.688 160.021 235.762 159.986 235.844C159.952 235.926 159.934 236.014 159.934 236.104C159.903 237.303 159.884 238.497 159.884 239.69C159.884 241.872 159.946 243.843 160.071 245.715C160.082 245.885 160.157 246.045 160.28 246.162C160.403 246.278 160.566 246.344 160.735 246.345L160.738 246.344ZM160.995 227.249C161.167 227.249 161.333 227.182 161.457 227.061C161.582 226.941 161.656 226.778 161.664 226.604C161.786 223.859 161.9 220.914 161.9 217.966V217.019C161.905 216.929 161.891 216.838 161.859 216.754C161.826 216.67 161.777 216.593 161.713 216.53C161.649 216.466 161.572 216.417 161.488 216.386C161.404 216.355 161.315 216.342 161.225 216.349C161.137 216.349 161.05 216.367 160.969 216.402C160.888 216.436 160.815 216.487 160.753 216.55C160.691 216.613 160.642 216.688 160.609 216.77C160.576 216.852 160.56 216.94 160.561 217.029V217.966C160.561 220.885 160.449 223.813 160.327 226.541C160.32 226.719 160.383 226.893 160.503 227.024C160.622 227.155 160.789 227.233 160.965 227.241L160.995 227.249ZM103.738 218.934C104.955 218.934 106.147 218.902 107.292 218.852C107.469 218.844 107.636 218.766 107.756 218.634C107.876 218.502 107.939 218.327 107.931 218.148C107.924 217.97 107.846 217.801 107.715 217.68C107.584 217.559 107.411 217.496 107.233 217.504C106.107 217.554 104.935 217.585 103.738 217.585C101.776 217.59 99.8153 217.49 97.8641 217.285C97.6917 217.274 97.5217 217.33 97.3897 217.442C97.2576 217.555 97.1736 217.714 97.1552 217.887C97.1368 218.06 97.1854 218.234 97.2908 218.372C97.3963 218.51 97.5504 218.601 97.7212 218.627C99.7206 218.838 101.73 218.942 103.74 218.937L103.738 218.934ZM116.719 218.247H116.772C119.911 218.004 123.091 217.716 126.229 217.391C126.405 217.371 126.567 217.283 126.678 217.144C126.79 217.005 126.842 216.827 126.824 216.65C126.816 216.562 126.79 216.476 126.749 216.398C126.707 216.32 126.651 216.251 126.582 216.195C126.514 216.139 126.435 216.097 126.351 216.073C126.266 216.048 126.178 216.04 126.09 216.05C122.965 216.374 119.795 216.662 116.668 216.905C116.497 216.921 116.339 217.002 116.227 217.131C116.114 217.261 116.054 217.429 116.061 217.602C116.067 217.774 116.139 217.937 116.261 218.058C116.383 218.179 116.546 218.248 116.717 218.251L116.719 218.247ZM88.6358 216.315C88.7886 216.315 88.9368 216.262 89.0557 216.165C89.1746 216.069 89.2572 215.934 89.2896 215.783C89.322 215.633 89.3024 215.476 89.234 215.338C89.1656 215.2 89.0525 215.09 88.9135 215.026C86.1082 213.827 83.7324 211.794 82.1034 209.199C82.0077 209.054 81.8601 208.952 81.6914 208.914C81.5228 208.876 81.3461 208.905 81.1984 208.996C81.0507 209.086 80.9434 209.23 80.8989 209.399C80.8544 209.567 80.8763 209.746 80.9598 209.899C82.7275 212.726 85.3093 214.943 88.36 216.252C88.4457 216.293 88.539 216.315 88.6338 216.317L88.6358 216.315ZM135.573 216.291C135.602 216.291 135.63 216.291 135.66 216.286C138.778 215.88 141.941 215.425 145.061 214.936C145.236 214.909 145.394 214.812 145.498 214.667C145.603 214.523 145.647 214.342 145.619 214.165C145.592 213.989 145.496 213.83 145.352 213.724C145.209 213.619 145.03 213.575 144.854 213.603C141.746 214.089 138.595 214.542 135.488 214.947C135.319 214.968 135.164 215.054 135.055 215.186C134.945 215.318 134.891 215.488 134.901 215.66C134.912 215.831 134.988 215.993 135.112 216.11C135.237 216.228 135.402 216.292 135.573 216.291ZM154.302 213.353C154.342 213.353 154.382 213.349 154.422 213.342C157.519 212.774 160.653 212.155 163.745 211.504C163.919 211.467 164.072 211.363 164.169 211.213C164.266 211.063 164.3 210.88 164.264 210.705C164.227 210.53 164.123 210.376 163.975 210.278C163.826 210.18 163.645 210.146 163.471 210.183C160.396 210.831 157.272 211.447 154.186 212.014C154.021 212.043 153.872 212.134 153.77 212.268C153.668 212.402 153.62 212.57 153.635 212.738C153.65 212.906 153.727 213.063 153.851 213.177C153.975 213.29 154.137 213.353 154.305 213.352L154.302 213.353ZM172.85 209.444C172.902 209.444 172.954 209.438 173.005 209.426C176.07 208.697 179.17 207.917 182.218 207.106C182.39 207.061 182.536 206.948 182.626 206.793C182.715 206.639 182.74 206.455 182.695 206.282C182.65 206.108 182.538 205.96 182.385 205.87C182.231 205.78 182.048 205.755 181.877 205.801C178.84 206.607 175.751 207.384 172.698 208.111C172.539 208.15 172.4 208.246 172.307 208.381C172.213 208.516 172.172 208.681 172.191 208.844C172.209 209.008 172.287 209.159 172.408 209.269C172.53 209.379 172.687 209.44 172.851 209.442L172.85 209.444ZM160.558 208.178C160.591 208.178 160.624 208.175 160.657 208.171C160.832 208.144 160.99 208.049 161.096 207.905C161.202 207.761 161.246 207.58 161.22 207.403C160.76 204.203 159.975 201.058 158.879 198.019C158.849 197.936 158.803 197.859 158.743 197.794C158.683 197.73 158.612 197.677 158.532 197.64C158.452 197.603 158.366 197.582 158.278 197.579C158.19 197.575 158.103 197.589 158.02 197.62C157.938 197.65 157.862 197.697 157.798 197.757C157.734 197.817 157.681 197.89 157.645 197.97C157.608 198.05 157.587 198.137 157.584 198.226C157.58 198.314 157.594 198.403 157.625 198.486C158.688 201.439 159.449 204.494 159.896 207.603C159.921 207.763 160.001 207.909 160.123 208.013C160.245 208.118 160.4 208.176 160.561 208.175L160.558 208.178ZM191.178 204.579C191.242 204.579 191.305 204.57 191.366 204.552C194.39 203.664 197.444 202.721 200.445 201.753C200.532 201.729 200.614 201.687 200.684 201.631C200.755 201.574 200.814 201.504 200.857 201.424C200.9 201.344 200.927 201.256 200.935 201.165C200.944 201.075 200.934 200.983 200.906 200.897C200.879 200.81 200.834 200.73 200.775 200.661C200.717 200.592 200.644 200.536 200.563 200.496C200.482 200.456 200.394 200.433 200.304 200.428C200.214 200.423 200.123 200.437 200.039 200.468C197.048 201.432 194.004 202.368 190.991 203.255C190.836 203.301 190.703 203.401 190.616 203.538C190.528 203.674 190.493 203.838 190.516 203.999C190.538 204.159 190.618 204.307 190.74 204.413C190.861 204.519 191.017 204.579 191.178 204.579ZM79.6148 201.098C79.7699 201.098 79.9202 201.043 80.04 200.944C80.1597 200.845 80.2415 200.706 80.2714 200.553C80.9923 197.576 82.6589 194.917 85.0175 192.983C85.1326 192.86 85.1975 192.697 85.1994 192.528C85.2013 192.359 85.1399 192.195 85.0276 192.069C84.9152 191.943 84.76 191.865 84.5928 191.849C84.4255 191.833 84.2585 191.881 84.1248 191.983C81.5486 194.112 79.7349 197.032 78.9612 200.298C78.9444 200.385 78.9449 200.475 78.9626 200.562C78.9802 200.648 79.0146 200.731 79.0639 200.804C79.1132 200.878 79.1763 200.941 79.2498 200.99C79.3232 201.038 79.4054 201.072 79.4918 201.089C79.5338 201.096 79.5763 201.098 79.6188 201.096L79.6148 201.098ZM209.228 198.738C209.304 198.738 209.38 198.725 209.451 198.699C212.499 197.609 215.495 196.478 218.352 195.335C218.434 195.303 218.509 195.254 218.572 195.192C218.635 195.13 218.685 195.056 218.72 194.975C218.754 194.894 218.773 194.806 218.774 194.718C218.775 194.629 218.759 194.541 218.726 194.459C218.694 194.376 218.645 194.301 218.584 194.238C218.523 194.174 218.45 194.124 218.369 194.089C218.288 194.054 218.201 194.035 218.113 194.034C218.025 194.033 217.938 194.049 217.856 194.082C215.014 195.218 212.035 196.344 209.002 197.428C208.853 197.481 208.728 197.586 208.649 197.723C208.569 197.86 208.54 198.021 208.567 198.178C208.593 198.335 208.674 198.477 208.794 198.579C208.915 198.682 209.068 198.738 209.225 198.739L209.228 198.738ZM226.845 191.679C226.938 191.68 227.031 191.659 227.116 191.62C230.065 190.294 232.956 188.907 235.706 187.5C235.791 187.465 235.868 187.412 235.932 187.345C235.996 187.278 236.045 187.198 236.077 187.111C236.109 187.024 236.122 186.931 236.117 186.838C236.112 186.745 236.087 186.655 236.045 186.572C236.004 186.489 235.945 186.416 235.874 186.357C235.803 186.298 235.721 186.254 235.632 186.228C235.543 186.203 235.45 186.196 235.359 186.209C235.268 186.221 235.18 186.253 235.101 186.301C232.369 187.7 229.499 189.073 226.571 190.392C226.431 190.454 226.316 190.564 226.246 190.702C226.176 190.84 226.156 190.998 226.188 191.149C226.22 191.3 226.302 191.436 226.422 191.533C226.541 191.631 226.69 191.684 226.844 191.683L226.845 191.679ZM153.838 190.515C153.981 190.515 154.12 190.469 154.235 190.383C154.305 190.33 154.365 190.264 154.41 190.188C154.456 190.112 154.486 190.028 154.499 189.94C154.512 189.853 154.508 189.763 154.487 189.677C154.465 189.591 154.428 189.51 154.375 189.439C152.621 187.02 150.465 184.923 148.005 183.241C147.776 183.085 147.544 182.934 147.31 182.787C147.16 182.692 146.978 182.662 146.805 182.702C146.632 182.743 146.482 182.851 146.388 183.003C146.294 183.155 146.264 183.338 146.304 183.512C146.344 183.687 146.451 183.838 146.602 183.932C146.821 184.071 147.042 184.213 147.257 184.36C149.59 185.957 151.634 187.947 153.296 190.244C153.359 190.328 153.441 190.396 153.535 190.442C153.629 190.489 153.733 190.513 153.838 190.512V190.515ZM92.4078 187.815C92.519 187.816 92.6285 187.788 92.7262 187.734C93.848 187.121 94.9529 186.556 95.9994 186.035C97.7004 185.187 99.4599 184.403 101.23 183.703C101.312 183.671 101.387 183.623 101.45 183.561C101.514 183.5 101.564 183.426 101.6 183.345C101.635 183.264 101.654 183.177 101.655 183.088C101.657 182.999 101.641 182.911 101.609 182.829C101.577 182.746 101.529 182.671 101.468 182.607C101.407 182.543 101.334 182.492 101.254 182.457C101.173 182.421 101.087 182.402 100.999 182.4C100.911 182.399 100.823 182.414 100.741 182.447C98.9353 183.16 97.14 183.959 95.4062 184.825C94.3499 185.352 93.2301 185.925 92.0934 186.545C91.9622 186.616 91.8584 186.73 91.7985 186.867C91.7385 187.005 91.7258 187.158 91.7623 187.304C91.7989 187.45 91.8826 187.579 92.0003 187.671C92.1179 187.763 92.2627 187.813 92.4118 187.813L92.4078 187.815ZM243.733 183.017C243.851 183.016 243.967 182.985 244.069 182.925C246.865 181.289 249.583 179.58 252.146 177.847C252.22 177.798 252.284 177.735 252.334 177.661C252.384 177.587 252.419 177.504 252.437 177.416C252.455 177.329 252.455 177.239 252.438 177.151C252.421 177.063 252.386 176.98 252.337 176.905C252.287 176.831 252.224 176.768 252.15 176.718C252.076 176.669 251.993 176.635 251.906 176.618C251.819 176.602 251.729 176.603 251.642 176.621C251.555 176.64 251.473 176.675 251.4 176.726C248.861 178.443 246.168 180.135 243.398 181.758C243.271 181.833 243.172 181.947 243.116 182.084C243.06 182.222 243.051 182.373 243.089 182.516C243.127 182.659 243.211 182.786 243.328 182.876C243.444 182.966 243.587 183.015 243.734 183.016L243.733 183.017ZM110.018 180.899C110.071 180.899 110.123 180.893 110.174 180.88C113.219 180.153 116.31 179.641 119.426 179.35C119.597 179.326 119.752 179.237 119.859 179.101C119.966 178.965 120.017 178.792 120.002 178.62C119.986 178.447 119.905 178.286 119.775 178.172C119.645 178.058 119.476 177.999 119.304 178.007C116.125 178.304 112.971 178.825 109.865 179.568C109.704 179.605 109.562 179.7 109.467 179.836C109.372 179.972 109.33 180.138 109.349 180.303C109.368 180.468 109.447 180.621 109.57 180.731C109.694 180.841 109.853 180.9 110.018 180.899ZM138.212 180.459C138.376 180.459 138.534 180.398 138.656 180.289C138.778 180.179 138.857 180.028 138.876 179.864C138.895 179.7 138.854 179.535 138.761 179.399C138.667 179.264 138.528 179.168 138.369 179.129C136.017 178.568 133.627 178.185 131.219 177.983C130.437 177.912 129.654 177.855 128.869 177.814C128.779 177.806 128.688 177.815 128.602 177.843C128.517 177.871 128.437 177.916 128.369 177.975C128.301 178.034 128.245 178.107 128.205 178.189C128.165 178.27 128.142 178.359 128.138 178.45C128.133 178.541 128.146 178.631 128.177 178.717C128.208 178.802 128.256 178.88 128.317 178.947C128.379 179.013 128.453 179.066 128.536 179.103C128.618 179.14 128.707 179.159 128.797 179.161C129.566 179.203 130.333 179.258 131.098 179.327C133.441 179.522 135.766 179.895 138.054 180.44C138.106 180.453 138.16 180.459 138.213 180.459H138.212ZM259.444 172.361C259.594 172.362 259.739 172.311 259.857 172.217C262.396 170.21 264.834 168.112 267.105 165.98C267.235 165.858 267.312 165.689 267.318 165.51C267.324 165.331 267.26 165.157 267.139 165.026C267.017 164.895 266.85 164.818 266.672 164.812C266.495 164.805 266.322 164.87 266.192 164.992C263.949 167.098 261.54 169.171 259.03 171.157C258.92 171.243 258.84 171.362 258.801 171.497C258.761 171.632 258.765 171.775 258.81 171.908C258.856 172.041 258.941 172.156 259.055 172.237C259.168 172.319 259.304 172.363 259.443 172.362L259.444 172.361ZM273.269 159.325C273.364 159.325 273.458 159.305 273.544 159.265C273.631 159.226 273.708 159.168 273.771 159.096C275.877 156.686 277.841 154.153 279.654 151.512C279.755 151.365 279.794 151.183 279.762 151.007C279.73 150.831 279.63 150.675 279.484 150.573C279.338 150.472 279.157 150.433 278.983 150.465C278.808 150.497 278.653 150.598 278.552 150.745C276.769 153.343 274.836 155.834 272.765 158.205C272.68 158.303 272.624 158.423 272.605 158.551C272.586 158.68 272.604 158.811 272.658 158.93C272.711 159.048 272.797 159.148 272.905 159.219C273.014 159.289 273.14 159.325 273.269 159.325ZM283.987 143.622C284.11 143.622 284.23 143.588 284.335 143.524C284.44 143.459 284.526 143.367 284.582 143.257C286.049 140.4 287.315 137.442 288.369 134.405C288.398 134.322 288.41 134.233 288.405 134.145C288.4 134.056 288.378 133.97 288.339 133.89C288.262 133.729 288.124 133.605 287.957 133.546C287.789 133.487 287.605 133.498 287.445 133.576C287.285 133.654 287.163 133.793 287.104 133.962C286.071 136.938 284.83 139.838 283.391 142.638C283.309 142.797 283.294 142.983 283.348 143.153C283.402 143.324 283.521 143.466 283.678 143.548C283.774 143.597 283.88 143.622 283.987 143.622ZM290.149 125.627C290.306 125.626 290.458 125.571 290.578 125.469C290.699 125.368 290.78 125.227 290.808 125.071C290.935 124.353 291.049 123.631 291.151 122.905C291.482 120.526 291.648 118.125 291.647 115.722V115.445C291.646 115.266 291.575 115.095 291.449 114.969C291.323 114.843 291.153 114.772 290.975 114.773C290.797 114.774 290.627 114.846 290.502 114.973C290.377 115.1 290.307 115.271 290.308 115.45V115.721C290.309 118.063 290.148 120.401 289.827 122.72C289.728 123.427 289.616 124.132 289.491 124.835C289.46 125.011 289.499 125.192 289.601 125.339C289.702 125.486 289.857 125.586 290.031 125.618C290.07 125.625 290.11 125.63 290.149 125.631V125.627ZM290.082 106.626C290.123 106.626 290.164 106.622 290.204 106.614C290.378 106.581 290.533 106.48 290.633 106.333C290.734 106.185 290.773 106.004 290.74 105.828C290.159 102.656 289.31 99.5404 288.202 96.5144C288.137 96.3517 288.012 96.221 287.853 96.1499C287.693 96.0789 287.513 96.0731 287.35 96.1338C287.186 96.1945 287.053 96.317 286.978 96.4752C286.902 96.6334 286.891 96.8149 286.947 96.9813C288.029 99.9346 288.859 102.976 289.426 106.072C289.454 106.227 289.534 106.368 289.654 106.47C289.774 106.572 289.925 106.628 290.082 106.63V106.626ZM283.544 88.7915C283.662 88.7911 283.778 88.7596 283.879 88.7001C283.981 88.6405 284.065 88.5551 284.124 88.4522C284.183 88.3494 284.213 88.2329 284.213 88.1143C284.213 87.9957 284.182 87.8793 284.123 87.7767C282.513 84.986 280.654 82.3494 278.568 79.8998C278.451 79.7701 278.288 79.6917 278.114 79.6811C277.94 79.6705 277.769 79.7286 277.637 79.8431C277.505 79.9576 277.423 80.1194 277.407 80.2943C277.391 80.4691 277.444 80.6432 277.554 80.7796C279.586 83.1668 281.397 85.7361 282.965 88.4555C283.023 88.5587 283.108 88.6445 283.209 88.7042C283.311 88.7639 283.427 88.7954 283.544 88.7955V88.7915ZM271.221 74.4282C271.36 74.4278 271.496 74.3836 271.609 74.3019C271.722 74.2201 271.807 74.1048 271.853 73.972C271.898 73.8392 271.901 73.6955 271.862 73.5608C271.822 73.4261 271.742 73.3072 271.632 73.2206C269.099 71.2448 266.385 69.5155 263.528 68.0559C263.449 68.0091 263.362 67.9791 263.271 67.9676C263.18 67.9561 263.088 67.9634 263.001 67.9891C262.913 68.0147 262.831 68.0583 262.761 68.1169C262.691 68.1756 262.633 68.2481 262.591 68.3301C262.55 68.4121 262.525 68.5018 262.519 68.5937C262.513 68.6856 262.526 68.7777 262.557 68.8644C262.588 68.9511 262.636 69.0305 262.698 69.0978C262.761 69.1651 262.836 69.2188 262.92 69.2556C265.702 70.6759 268.343 72.359 270.81 74.2823C270.926 74.3773 271.071 74.4302 271.221 74.4322V74.4282ZM188.927 66.0524H188.941C192.13 65.9846 195.311 65.7017 198.463 65.2057C198.55 65.1935 198.635 65.1639 198.711 65.1186C198.788 65.0733 198.854 65.0131 198.907 64.9416C198.961 64.8702 198.999 64.7887 199.021 64.7021C199.042 64.6155 199.047 64.5255 199.034 64.4371C199.021 64.3488 198.99 64.264 198.944 64.1876C198.898 64.1112 198.838 64.0447 198.766 63.9921C198.695 63.9394 198.613 63.9016 198.527 63.8808C198.441 63.86 198.352 63.8567 198.264 63.871C195.171 64.358 192.048 64.6359 188.918 64.7028C188.74 64.7039 188.57 64.776 188.446 64.9033C188.321 65.0306 188.251 65.2026 188.252 65.3816C188.253 65.5606 188.325 65.7318 188.451 65.8576C188.578 65.9834 188.748 66.0535 188.926 66.0524H188.927ZM254.466 65.7025C254.625 65.7024 254.779 65.6452 254.9 65.5411C255.021 65.437 255.101 65.2929 255.127 65.1345C255.152 64.9762 255.12 64.814 255.038 64.677C254.955 64.54 254.826 64.4371 254.675 64.3869C251.642 63.4003 248.555 62.5928 245.428 61.9685C245.254 61.9334 245.073 61.9695 244.925 62.0688C244.777 62.1682 244.675 62.3227 244.64 62.4984C244.605 62.674 244.641 62.8565 244.739 63.0055C244.838 63.1546 244.991 63.258 245.165 63.2932C248.24 63.9061 251.276 64.7003 254.259 65.6715C254.326 65.6937 254.396 65.7055 254.466 65.7065V65.7025ZM207.7 63.5811C207.741 63.581 207.782 63.577 207.823 63.5691C210.699 63.0302 213.953 62.4194 217.136 61.9645C217.223 61.9521 217.307 61.9225 217.383 61.8775C217.459 61.8324 217.525 61.7728 217.578 61.702C217.631 61.6311 217.669 61.5505 217.691 61.4647C217.713 61.3788 217.718 61.2895 217.706 61.2017C217.693 61.1139 217.664 61.0295 217.619 60.9531C217.575 60.8768 217.515 60.8101 217.445 60.7568C217.375 60.7035 217.295 60.6647 217.21 60.6426C217.125 60.6205 217.036 60.6155 216.949 60.6279C213.736 61.0867 210.463 61.7006 207.578 62.2424C207.413 62.2727 207.266 62.364 207.165 62.4983C207.064 62.6326 207.016 62.8001 207.031 62.968C207.047 63.1359 207.124 63.2919 207.248 63.4053C207.371 63.5188 207.533 63.5815 207.7 63.5811ZM235.932 61.8425C236.104 61.8435 236.269 61.778 236.394 61.6596C236.519 61.5412 236.594 61.3789 236.604 61.2063C236.614 61.0336 236.558 60.8637 236.447 60.7317C236.336 60.5997 236.179 60.5157 236.009 60.4969C234.303 60.297 232.489 60.124 230.617 59.973C229.427 59.8781 228.182 59.8301 226.917 59.8301H226.477C226.389 59.8307 226.302 59.8488 226.221 59.8834C226.14 59.9179 226.067 59.9682 226.005 60.0314C225.944 60.0945 225.895 60.1693 225.863 60.2514C225.83 60.3335 225.813 60.4214 225.814 60.5099C225.825 60.6859 225.9 60.8516 226.025 60.9752C226.149 61.0988 226.315 61.1717 226.49 61.1797H226.918C228.149 61.1797 229.357 61.2267 230.513 61.3187C232.368 61.4686 234.168 61.6426 235.857 61.8385C235.882 61.8425 235.907 61.8452 235.932 61.8465V61.8425Z" fill="#45315D"/>
<path d="M239.457 298.314H239.488C241.084 298.242 242.669 298.132 244.196 297.983C244.369 297.961 244.527 297.872 244.635 297.734C244.744 297.597 244.795 297.422 244.778 297.248C244.761 297.073 244.678 296.911 244.545 296.798C244.412 296.684 244.24 296.627 244.066 296.639C242.563 296.786 241.001 296.896 239.428 296.966C239.255 296.975 239.092 297.052 238.973 297.18C238.855 297.309 238.791 297.478 238.795 297.653C238.798 297.829 238.869 297.995 238.993 298.119C239.116 298.242 239.282 298.312 239.456 298.314H239.457Z" fill="#45315D"/>
</g>
<defs>
<clipPath id="clip0_6_8561">
<rect width="555" height="528" fill="white" transform="matrix(-1 0 0 1 555 0)"/>
</clipPath>
</defs>
</svg>
