<svg width="118" height="111" viewBox="0 0 118 111" fill="none" xmlns="http://www.w3.org/2000/svg">
<g opacity="0.15">
<g opacity="0.7">
<path d="M27.7587 78.6018L15.9606 64.143C11.4093 64.5024 7.28242 61.5228 6.63895 57.3194L1.20663 21.8331C0.541254 17.4866 3.85121 13.454 8.58562 12.8432L51.6723 7.28383C56.4067 6.67297 60.8005 9.71158 61.4659 14.0581L65.051 37.4775L56.1359 38.6278C52.2628 39.1276 49.5542 42.426 50.0986 45.9817L52.1656 59.4844L34.7524 61.7312L27.7587 78.6018ZM8.80504 14.2765C4.93195 14.7762 2.22359 18.0759 2.76792 21.6317L8.20024 57.1179C8.74457 60.6737 12.3389 63.1615 16.212 62.6617L16.6741 62.6021L27.3041 75.6322L33.6101 60.4169L50.3849 58.2525L48.5373 46.1832C47.8719 41.8367 51.1819 37.8041 55.9163 37.1932L63.2701 36.2444L59.9046 14.2595C59.3603 10.7038 55.7662 8.21727 51.8917 8.71718L8.80504 14.2765Z" fill="#FF9280"/>
<path d="M33.5531 40.4819L32.4685 34.5448C33.1523 34.285 33.8612 33.9888 34.5928 33.6589C35.3244 33.329 35.982 32.9344 36.5652 32.4726C37.1471 32.0123 37.597 31.4717 37.9107 30.8527C38.2231 30.2339 38.3162 29.5038 38.1873 28.6616C38.0684 27.8847 37.8243 27.2468 37.4577 26.7462C37.0872 26.2475 36.6516 25.8699 36.1454 25.6139C35.6391 25.358 35.0712 25.1996 34.4446 25.1409C33.8169 25.0837 33.194 25.0949 32.576 25.1747C31.7052 25.287 30.8693 25.464 30.0657 25.7059C29.2623 25.9491 28.4755 26.2286 27.7064 26.5415L27.0303 24.4107C27.8643 24.0663 28.7559 23.7528 29.7053 23.4704C30.6545 23.1866 31.6447 22.9795 32.6742 22.8467C33.6353 22.7227 34.5803 22.7121 35.507 22.819C36.4334 22.9235 37.2721 23.175 38.0214 23.5711C38.7708 23.9671 39.4055 24.5342 39.9281 25.2705C40.4479 26.0072 40.7961 26.9427 40.9698 28.0774C41.1339 29.1492 41.0689 30.0907 40.7718 30.9008C40.4762 31.7107 40.041 32.4196 39.4694 33.0297C38.8978 33.6397 38.228 34.1549 37.4643 34.576C36.7003 34.9945 35.9311 35.3524 35.159 35.6453L35.7856 40.1939L35.8725 40.7612L33.6399 41.0492L33.5531 40.4819ZM35.6861 46.6383C35.1365 46.7092 34.6855 46.6227 34.3328 46.3765C33.9803 46.1327 33.7674 45.771 33.6933 45.2866C33.6162 44.7832 33.7102 44.368 33.9758 44.0444C34.2413 43.7209 34.6489 43.5237 35.1984 43.4528C35.7713 43.3789 36.2387 43.4632 36.6034 43.7054C36.9667 43.9478 37.1872 44.3225 37.2642 44.8258C37.3384 45.3103 37.2368 45.7125 36.9604 46.0374C36.6829 46.365 36.2589 46.5644 35.6861 46.6383Z" fill="#FF9280"/>
<path d="M100.332 99.695L88.5428 85.2478L63.762 88.4452C59.0276 89.056 54.6352 86.0173 53.9698 81.6707L48.5373 46.1832C47.8719 41.8367 51.1819 37.8041 55.9163 37.1933L99.0193 31.6318C103.752 31.0211 108.146 34.0597 108.812 38.4062L114.244 73.8937C114.887 78.0959 111.815 82.0057 107.332 82.8107L100.332 99.695ZM56.1359 38.6279C52.2628 39.1276 49.5542 42.426 50.0986 45.9818L55.5311 81.4693C56.0756 85.0263 59.6695 87.5115 63.5426 87.0118L89.2475 83.6952L99.8775 96.7253L106.184 81.51L106.646 81.4504C110.519 80.9506 113.227 77.6523 112.683 74.0952L107.25 38.6077C106.706 35.0519 103.112 32.5667 99.2389 33.0664L56.1359 38.6279Z" fill="#FF9280"/>
<path d="M99.7895 44.6222L99.4135 44.6707L99.1941 43.2374L99.5701 43.1889L99.7895 44.6222ZM96.0996 45.0983L92.7843 45.5261L92.5649 44.0927L95.8802 43.665L96.0996 45.0983ZM89.4717 45.9535L86.1578 46.381L85.9384 44.9477L89.2523 44.5201L89.4717 45.9535ZM82.8438 46.8086L79.5299 47.2362L79.3105 45.8029L82.6244 45.3753L82.8438 46.8086ZM76.2159 47.6638L72.902 48.0914L72.6826 46.6581L75.9965 46.2305L76.2159 47.6638ZM69.5881 48.519L66.2741 48.9466L66.0547 47.5132L69.3687 47.0856L69.5881 48.519ZM62.9602 49.3742L59.6463 49.8017L59.4268 48.3684L62.7408 47.9408L62.9602 49.3742Z" fill="#FF9280"/>
<path d="M101.745 57.3957L101.369 57.4443L101.149 56.0096L101.525 55.9611L101.745 57.3957ZM98.055 57.8718L94.7397 58.2996L94.52 56.8649L97.8353 56.4372L98.055 57.8718ZM91.4271 58.727L88.1132 59.1546L87.8935 57.7199L91.2075 57.2923L91.4271 58.727ZM84.7992 59.5822L81.4853 60.0098L81.2656 58.5751L84.5796 58.1475L84.7992 59.5822ZM78.1713 60.4374L74.8574 60.8649L74.6378 59.4303L77.9517 59.0027L78.1713 60.4374ZM71.5435 61.2925L68.2295 61.7201L68.0099 60.2855L71.3238 59.8579L71.5435 61.2925ZM64.9156 62.1477L61.6016 62.5753L61.382 61.1406L64.696 60.713L64.9156 62.1477Z" fill="#FF9280"/>
<path d="M103.7 70.1678L103.324 70.2163L103.105 68.783L103.481 68.7345L103.7 70.1678ZM100.01 70.6439L96.6949 71.0717L96.4755 69.6384L99.7908 69.2106L100.01 70.6439ZM93.3823 71.4991L90.0684 71.9267L89.849 70.4934L93.1629 70.0658L93.3823 71.4991ZM86.7544 72.3543L83.4405 72.7818L83.221 71.3485L86.535 70.921L86.7544 72.3543ZM80.1265 73.2094L76.8126 73.637L76.5932 72.2037L79.9071 71.7761L80.1265 73.2094ZM73.4987 74.0646L70.1847 74.4922L69.9653 73.0589L73.2793 72.6313L73.4987 74.0646ZM66.8708 74.9198L63.5568 75.3474L63.3374 73.9141L66.6514 73.4865L66.8708 74.9198Z" fill="#FF9280"/>
</g>
</g>
</svg>
