<svg width="142" height="170" viewBox="0 0 142 170" fill="none" xmlns="http://www.w3.org/2000/svg">
<g opacity="0.15">
<path d="M100.713 90.393C101.969 89.2393 104.007 89.239 105.263 90.3928L114.363 98.7482C115.62 99.9017 115.62 101.772 114.363 102.926C113.107 104.079 111.07 104.079 109.813 102.926L100.713 94.5705C99.4569 93.4173 99.4569 91.5467 100.713 90.393Z" fill="#FF9280" stroke="#F8F8FA" stroke-width="5"/>
<path d="M82.5138 90.3928C83.7698 89.2393 85.807 89.2391 87.0637 90.3928L96.1635 98.748C97.42 99.9015 97.42 101.772 96.1635 102.926C94.9072 104.079 92.8701 104.079 91.6136 102.926L82.5136 94.5704C81.2573 93.4171 81.2573 91.5465 82.5138 90.3928Z" fill="#FF9280" stroke="#F8F8FA" stroke-width="5"/>
<path d="M100.713 73.6824C101.969 72.5287 104.007 72.5287 105.263 73.6824L114.363 82.0377C115.62 83.1912 115.62 85.0616 114.363 86.2153C113.107 87.3689 111.07 87.3689 109.813 86.2153L100.713 77.8601C99.4569 76.7066 99.4569 74.8361 100.713 73.6824Z" fill="#FF9280" stroke="#F8F8FA" stroke-width="5"/>
<path d="M8.32629 30.6309L35.626 5.565C39.3912 2.10768 45.515 2.11201 49.2759 5.565L99.3245 51.519C103.075 54.9624 103.113 60.5739 99.3245 64.0519L72.0252 89.1176C68.2533 92.581 62.1478 92.5816 58.3755 89.1176L8.32629 43.1636C4.56944 39.7141 4.55744 34.0912 8.32629 30.6309ZM46.6945 11.5502L51.8121 46.654C52.0042 47.9709 53.1398 49.0137 54.5743 49.19L92.8059 53.8888L46.6945 11.5502ZM66.7296 85.451C67.0003 85.3163 67.2514 85.1456 67.4753 84.9402L94.5657 60.0658L63.1909 56.2096L66.7296 85.451ZM59.8522 82.1185L56.6193 55.4019L53.7205 55.0457C49.4175 54.5168 46.0104 51.3881 45.4346 47.4379L45.0467 44.7761L15.9491 41.8075L59.8522 82.1185ZM44.167 38.7422L39.9671 9.93441L12.8762 34.8085C12.6503 35.0159 12.4665 35.2475 12.3222 35.4932L44.167 38.7422Z" fill="#FF9280" stroke="#F8F8FA" stroke-width="5"/>
</g>
<g opacity="0.15">
<path d="M65.2293 149.141C66.0636 148.375 67.4165 148.375 68.2509 149.141L74.2943 154.69C75.1288 155.456 75.1288 156.698 74.2943 157.464C73.46 158.23 72.1071 158.23 71.2727 157.464L65.2293 151.915C64.395 151.15 64.395 149.907 65.2293 149.141Z" fill="#FF9280" stroke="#F8F8FA" stroke-width="3"/>
<path d="M53.1429 149.141C53.977 148.375 55.3299 148.375 56.1645 149.141L62.2078 154.69C63.0422 155.456 63.0422 156.698 62.2078 157.464C61.3735 158.23 60.0206 158.23 59.1862 157.464L53.1427 151.915C52.3085 151.149 52.3085 149.907 53.1429 149.141Z" fill="#FF9280" stroke="#F8F8FA" stroke-width="3"/>
<path d="M65.2293 138.043C66.0636 137.277 67.4165 137.277 68.2509 138.043L74.2943 143.592C75.1288 144.358 75.1288 145.6 74.2943 146.367C73.46 147.133 72.1071 147.133 71.2727 146.367L65.2293 140.818C64.395 140.052 64.395 138.81 65.2293 138.043Z" fill="#FF9280" stroke="#F8F8FA" stroke-width="3"/>
<path d="M3.8743 109.452L22.0043 92.8059C24.5049 90.5099 28.5717 90.5127 31.0694 92.8059L64.3071 123.324C66.7978 125.611 66.8229 129.338 64.3071 131.648L46.1774 148.294C43.6725 150.594 39.6177 150.595 37.1125 148.294L3.8743 117.776C1.37933 115.485 1.37137 111.75 3.8743 109.452ZM29.355 96.7808L32.7537 120.094C32.8813 120.968 33.6354 121.661 34.588 121.778L59.9781 124.898L29.355 96.7808ZM42.6605 145.859C42.8403 145.77 43.0071 145.656 43.1557 145.52L61.1468 129L40.3104 126.44L42.6605 145.859ZM38.0932 143.646L35.9462 125.903L34.0211 125.667C31.1634 125.315 28.9007 123.237 28.5183 120.614L28.2607 118.846L8.93668 116.875L38.0932 143.646ZM27.6764 114.839L24.8873 95.7077L6.8959 112.227C6.74595 112.365 6.62388 112.518 6.52804 112.682L27.6764 114.839Z" fill="#FF9280" stroke="#F8F8FA" stroke-width="3"/>
</g>
<g opacity="0.15">
<path d="M131.344 159.599C132.089 158.915 133.296 158.915 134.041 159.598L139.433 164.55C140.178 165.234 140.178 166.342 139.433 167.026C138.689 167.71 137.482 167.71 136.737 167.026L131.344 162.074C130.6 161.391 130.6 160.282 131.344 159.599Z" fill="#004A9C" stroke="#F8F8FA" stroke-width="3"/>
<path d="M120.558 159.598C121.303 158.915 122.51 158.915 123.255 159.598L128.648 164.55C129.392 165.234 129.392 166.342 128.648 167.026C127.903 167.71 126.696 167.71 125.951 167.026L120.558 162.074C119.814 161.391 119.814 160.282 120.558 159.598Z" fill="#004A9C" stroke="#F8F8FA" stroke-width="3"/>
<path d="M131.344 149.695C132.089 149.012 133.296 149.012 134.041 149.695L139.433 154.647C140.178 155.331 140.178 156.439 139.433 157.123C138.689 157.807 137.482 157.807 136.737 157.123L131.344 152.171C130.6 151.488 130.6 150.379 131.344 149.695Z" fill="#004A9C" stroke="#F8F8FA" stroke-width="3"/>
<path d="M76.5925 124.182L92.7712 109.327C95.0026 107.278 98.6318 107.28 100.861 109.327L130.521 136.561C132.744 138.601 132.766 141.927 130.521 143.988L114.343 158.843C112.107 160.895 108.489 160.896 106.253 158.843L76.5925 131.609C74.3661 129.565 74.359 126.232 76.5925 124.182ZM99.3308 112.874L102.364 133.677C102.477 134.458 103.15 135.076 104.001 135.18L126.658 137.965L99.3308 112.874ZM111.204 156.67C111.365 156.59 111.513 156.489 111.646 156.367L127.701 141.626L109.107 139.34L111.204 156.67ZM107.128 154.695L105.213 138.862L103.495 138.651C100.944 138.337 98.9254 136.483 98.5841 134.142L98.3542 132.565L81.11 130.805L107.128 154.695ZM97.8329 128.989L95.3439 111.916L79.2889 126.657C79.1551 126.78 79.0462 126.918 78.9606 127.063L97.8329 128.989Z" fill="#004A9C" stroke="#F8F8FA" stroke-width="3"/>
</g>
</svg>
