<svg width="560" height="529" viewBox="0 0 560 529" fill="none" xmlns="http://www.w3.org/2000/svg">
<path d="M3.745 462.19H559.554V462.472H3.745V462.19Z" fill="#EBEBEB"/>
<path d="M502.524 483.894H547.243V484.232H502.524V483.894Z" fill="#EBEBEB"/>
<path d="M377.938 487.558H389.675V487.896H377.938V487.558Z" fill="#EBEBEB"/>
<path d="M475.26 471.357H501.172V471.695H475.26V471.357Z" fill="#EBEBEB"/>
<path d="M19.242 473.625H77.559V473.963H19.242V473.625Z" fill="#EBEBEB"/>
<path d="M89.58 473.625H98.13V473.963H89.58V473.625Z" fill="#EBEBEB"/>
<path d="M123.468 479.326H249.943V479.664H123.468V479.326Z" fill="#EBEBEB"/>
<path d="M268.417 401.948H7.707C5.66371 401.946 3.70479 401.133 2.25996 399.688C0.815132 398.243 0.00238192 396.284 0 394.241L0 27.7699C0.00264703 25.7269 0.815546 23.7684 2.26037 22.3239C3.7052 20.8794 5.66397 20.0671 7.707 20.0649H268.417C270.46 20.0676 272.418 20.8802 273.862 22.3246C275.307 23.769 276.119 25.7273 276.122 27.7699V394.242C276.119 396.285 275.307 398.243 273.862 399.688C272.418 401.132 270.46 401.945 268.417 401.948ZM7.707 20.4029C5.75336 20.4048 3.88026 21.1816 2.49873 22.563C1.1172 23.9443 0.340118 25.8173 0.338 27.7709V394.242C0.340118 396.196 1.11717 398.069 2.49867 399.45C3.88017 400.832 5.75327 401.609 7.707 401.611H268.417C270.371 401.609 272.244 400.832 273.625 399.45C275.006 398.069 275.783 396.196 275.785 394.242V27.7699C275.783 25.8165 275.006 23.9436 273.625 22.5623C272.243 21.181 270.37 20.4041 268.417 20.4019L7.707 20.4029Z" fill="#EBEBEB"/>
<path d="M551.847 401.948H291.137C289.094 401.945 287.135 401.132 285.691 399.688C284.246 398.243 283.434 396.284 283.432 394.241V27.7699C283.434 25.7272 284.247 23.7688 285.691 22.3243C287.136 20.8799 289.094 20.0673 291.137 20.0649H551.847C553.89 20.0668 555.849 20.8791 557.294 22.3235C558.739 23.768 559.552 25.7267 559.555 27.7699V394.242C559.552 396.285 558.739 398.244 557.294 399.689C555.849 401.133 553.89 401.946 551.847 401.948ZM291.137 20.4029C289.184 20.4051 287.311 21.182 285.929 22.5633C284.548 23.9446 283.771 25.8175 283.769 27.7709V394.242C283.771 396.196 284.548 398.069 285.929 399.45C287.31 400.832 289.183 401.609 291.137 401.611H551.847C553.801 401.609 555.674 400.832 557.056 399.45C558.437 398.069 559.215 396.196 559.217 394.242V27.7699C559.215 25.8162 558.437 23.9432 557.056 22.5619C555.674 21.1806 553.801 20.4038 551.847 20.4019L291.137 20.4029Z" fill="#EBEBEB"/>
<path d="M306.033 76.5339H477.582V462.162H306.033V76.5339Z" fill="#F0F0F0"/>
<path d="M309.653 76.5339H477.581V462.162H309.653V76.5339Z" fill="#F5F5F5"/>
<path d="M467.348 85.2849V453.412H319.887V85.2849H467.348Z" fill="#F0F0F0"/>
<path d="M334.378 153.748C334.378 143.086 338.613 132.861 346.152 125.322C353.691 117.783 363.916 113.548 374.578 113.548H412.653C423.315 113.548 433.54 117.783 441.079 125.322C448.618 132.861 452.853 143.086 452.853 153.748H334.378Z" fill="#FAFAFA"/>
<path d="M452.858 342.583V430.528H334.378V342.583H452.858Z" fill="#F5F5F5"/>
<path d="M386.637 331.238H334.377V178.545H386.637V331.238Z" fill="#F5F5F5"/>
<path d="M452.857 331.238H400.597V178.545H452.857V331.238Z" fill="#F5F5F5"/>
<path d="M433.904 254.205H455.309C456.189 254.202 457.032 253.852 457.654 253.23C458.276 252.608 458.626 251.765 458.629 250.885C458.626 250.005 458.275 249.163 457.653 248.541C457.031 247.919 456.189 247.568 455.309 247.565H433.904C433.024 247.568 432.182 247.919 431.56 248.541C430.938 249.163 430.587 250.005 430.584 250.885C430.587 251.765 430.937 252.608 431.559 253.23C432.181 253.852 433.024 254.202 433.904 254.205Z" fill="#E0E0E0"/>
<path d="M467.348 85.2849V453.412H464.694V85.2849H467.348Z" fill="#F0F0F0"/>
<path d="M43.448 312.345H206.665V81.319C206.665 62.919 43.447 62.919 43.448 81.319V312.345Z" fill="#E0E0E0"/>
<path d="M47.198 312.345H210.415V81.319C210.415 62.919 47.197 62.919 47.197 81.319L47.198 312.345Z" fill="#EBEBEB"/>
<path d="M202.315 300.749V85.8791C202.316 85.1587 202.094 84.4555 201.68 83.866C201.266 83.2766 200.679 82.8299 200.001 82.5871C190.94 79.3281 166.272 75.6201 128.807 75.6201C91.342 75.6201 66.675 79.3271 57.613 82.5851C56.9347 82.8283 56.3483 83.2753 55.934 83.8648C55.5198 84.4544 55.298 85.1576 55.299 85.8781V300.749C55.299 301.676 55.6669 302.566 56.322 303.222C56.9771 303.878 57.8658 304.248 58.793 304.249H198.819C199.747 304.248 200.636 303.879 201.291 303.223C201.947 302.566 202.315 301.677 202.315 300.749Z" fill="#FAFAFA"/>
<path d="M167.807 77.1711L193.257 304.238H156.088L130.462 75.6191C144.909 75.6601 157.411 76.2661 167.807 77.1711Z" fill="white"/>
<path d="M119.741 75.6992L145.367 304.24H124.832L99.287 76.4702C105.511 76.0912 112.341 75.8202 119.741 75.6992Z" fill="white"/>
<path d="M104.502 72.1321V307.244H97.376V72.1321H104.502Z" fill="#EBEBEB"/>
<path d="M161.909 72.1321V307.244H154.783V72.1321H161.909Z" fill="#EBEBEB"/>
<path d="M154.783 72.1321V307.244H153.495V72.1321H154.783Z" fill="#E0E0E0"/>
<path d="M97.376 72.1321V307.244H96.088V72.1321H97.376Z" fill="#E0E0E0"/>
<path d="M206.601 131.051H52.685V123.925H206.601V131.051Z" fill="#EBEBEB"/>
<path d="M217.852 318.045H51.335V310.169H217.852V318.045Z" fill="#F5F5F5"/>
<path d="M43.448 310.169H51.335V318.045H43.448V310.169Z" fill="#E0E0E0"/>
<path d="M543.556 47.5011H502.846V35.9951H543.556V47.5011Z" fill="#F0F0F0"/>
<path d="M523.201 59.007H482.491V47.501H523.201V59.007Z" fill="#E6E6E6"/>
<path d="M262.322 216.759H221.612V205.253H262.322V216.759Z" fill="#F5F5F5"/>
<path d="M202.999 361.563H162.289V350.057H202.999V361.563Z" fill="#F5F5F5"/>
<path d="M502.846 362.922H543.556V374.428H502.846V362.922Z" fill="#E6E6E6"/>
<path d="M242.325 11.506H201.615V0H242.325V11.506Z" fill="#F0F0F0"/>
<path d="M96.009 431.418H55.299V419.912H96.009V431.418Z" fill="#F5F5F5"/>
<path d="M63.803 347.904H23.093V336.398H63.803V347.904Z" fill="#F5F5F5"/>
<path d="M116.364 442.923H75.654V431.417H116.364V442.923Z" fill="#F0F0F0"/>
<path d="M47.198 37.6609H87.908V49.1669H47.198V37.6609Z" fill="#F0F0F0"/>
<path d="M272.466 528.139C417.042 528.139 534.244 521.294 534.244 512.851C534.244 504.408 417.042 497.563 272.466 497.563C127.89 497.563 10.688 504.408 10.688 512.851C10.688 521.294 127.89 528.139 272.466 528.139Z" fill="#F5F5F5"/>
<path d="M113.332 117.78C105.35 119.558 96.056 130.758 105.232 142.196C114.408 153.634 99.032 148.631 96.653 168.648C94.274 188.665 112.501 185.293 106.782 198.417C101.063 211.541 140.782 232.335 165.582 216.574C190.382 200.813 192.69 166.886 184.946 154.898C177.202 142.91 165.882 142.159 171.004 129.31C176.126 116.461 170.091 103.11 154.085 102.996C142.019 102.907 149.256 94.4631 132.643 94.5361C118.795 94.5981 106.541 104.325 113.332 117.78Z" fill="#263238"/>
<path d="M157.773 134.511C156.995 134.512 156.235 134.744 155.589 135.177C154.943 135.61 154.44 136.225 154.143 136.943C153.846 137.662 153.769 138.453 153.921 139.215C154.073 139.978 154.448 140.679 154.998 141.228C155.547 141.778 156.248 142.153 157.011 142.305C157.773 142.457 158.564 142.38 159.283 142.083C160.001 141.786 160.616 141.283 161.049 140.637C161.482 139.991 161.714 139.231 161.715 138.453C161.717 137.935 161.616 137.421 161.419 136.942C161.222 136.463 160.931 136.028 160.565 135.661C160.198 135.295 159.763 135.004 159.284 134.807C158.805 134.61 158.291 134.509 157.773 134.511ZM157.773 141.464C157.176 141.463 156.593 141.285 156.097 140.952C155.601 140.619 155.216 140.147 154.988 139.595C154.761 139.043 154.703 138.436 154.82 137.851C154.938 137.266 155.227 136.729 155.65 136.307C156.073 135.886 156.611 135.6 157.197 135.485C157.782 135.37 158.389 135.431 158.94 135.66C159.491 135.89 159.962 136.278 160.292 136.775C160.623 137.272 160.798 137.856 160.797 138.453C160.797 138.849 160.718 139.242 160.566 139.608C160.413 139.974 160.19 140.306 159.91 140.586C159.629 140.866 159.295 141.087 158.929 141.238C158.562 141.388 158.169 141.465 157.773 141.464Z" fill="white"/>
<path d="M191.007 172.921C190.985 172.921 190.964 172.918 190.943 172.914C190.899 172.906 190.858 172.889 190.821 172.865C190.784 172.841 190.752 172.81 190.727 172.773C190.702 172.736 190.684 172.695 190.675 172.652C190.666 172.608 190.666 172.564 190.674 172.52C191.884 166.23 186.985 160.138 181.8 153.69C175.747 146.162 168.887 137.63 171.3 127.472C173.362 118.804 172.441 111.563 168.709 107.084C165.655 103.416 160.892 101.725 154.559 102.052C148.752 102.352 147.031 100.78 145.208 99.1151C143.241 97.3151 140.971 95.2681 132.638 95.3251C132.552 95.3204 132.47 95.2828 132.411 95.2201C132.351 95.1573 132.318 95.0741 132.318 94.9876C132.318 94.9012 132.351 94.818 132.411 94.7552C132.47 94.6925 132.552 94.6548 132.638 94.6501H132.931C141.331 94.6501 143.631 96.7501 145.668 98.6171C147.457 100.251 149.004 101.666 154.528 101.377C161.082 101.039 166.028 102.812 169.228 106.652C173.099 111.299 174.068 118.752 171.957 127.629C169.617 137.466 176.076 145.499 182.323 153.267C187.609 159.842 192.602 166.052 191.334 172.648C191.319 172.724 191.278 172.793 191.219 172.842C191.159 172.892 191.084 172.92 191.007 172.921Z" fill="#263238"/>
<path d="M222.758 147.124L220.937 150.66C220.599 151.316 220.423 152.042 220.423 152.78C220.423 153.517 220.599 154.244 220.937 154.899L224.137 161.112C224.768 162.337 225.683 163.392 226.805 164.191C227.927 164.989 229.224 165.507 230.588 165.701L232.3 165.945C235.721 160.287 235.25 151.651 235.25 151.651L235.388 149.175C235.431 148.668 235.374 148.156 235.218 147.671C235.062 147.186 234.812 146.736 234.481 146.349C234.15 145.961 233.746 145.643 233.291 145.413C232.837 145.183 232.341 145.045 231.833 145.008L226.933 144.669C226.074 144.63 225.222 144.841 224.481 145.277C223.74 145.713 223.141 146.354 222.758 147.124Z" fill="#FFC3BD"/>
<path d="M182.564 170.76C182.492 170.702 182.637 170.907 182.703 171.01L182.991 171.422L183.639 172.294C184.091 172.885 184.595 173.466 185.107 174.048C186.133 175.209 187.228 176.348 188.369 177.438C190.667 179.609 193.156 181.567 195.808 183.287C200.999 186.761 206.873 189.084 213.036 190.1L214.184 190.258L214.758 190.339C214.82 190.346 214.658 190.346 214.619 190.363C214.323 190.39 214.04 190.496 213.798 190.669C213.54 190.913 214.167 190.553 214.761 189.662C216.277 187.204 217.4 184.523 218.089 181.718C218.969 178.449 219.631 175.125 220.072 171.769C220.32 170.058 220.472 168.323 220.62 166.591C220.764 164.891 220.878 163.054 220.883 161.498L236.43 162.249C236.23 164.363 236.03 166.193 235.804 168.149C235.58 170.074 235.281 171.989 235.004 173.918C234.413 177.77 233.731 181.641 232.718 185.598C232.216 187.645 231.606 189.663 230.89 191.645C230.099 193.875 229.095 196.022 227.89 198.058C226.271 200.849 223.945 203.164 221.146 204.77C219.263 205.787 217.175 206.366 215.038 206.464C214.538 206.483 213.916 206.464 213.52 206.45L212.72 206.396L211.12 206.285C206.872 205.887 202.672 205.078 198.58 203.868C194.527 202.635 190.586 201.056 186.803 199.149C183.057 197.231 179.467 195.025 176.064 192.549C174.353 191.32 172.687 190.017 171.064 188.638C170.249 187.947 169.453 187.226 168.643 186.482L167.424 185.326L166.8 184.702C166.565 184.456 166.412 184.312 166.053 183.902L182.564 170.76Z" fill="#48A7A5"/>
<path opacity="0.5" d="M182.564 170.76C182.492 170.702 182.637 170.907 182.703 171.01L182.991 171.422L183.639 172.294C184.091 172.885 184.595 173.466 185.107 174.048C186.133 175.209 187.228 176.348 188.369 177.438C190.667 179.609 193.156 181.567 195.808 183.287C200.999 186.761 206.873 189.084 213.036 190.1L214.184 190.258L214.758 190.339C214.82 190.346 214.658 190.346 214.619 190.363C214.323 190.39 214.04 190.496 213.798 190.669C213.54 190.913 214.167 190.553 214.761 189.662C216.277 187.204 217.4 184.523 218.089 181.718C218.969 178.449 219.631 175.125 220.072 171.769C220.32 170.058 220.472 168.323 220.62 166.591C220.764 164.891 220.878 163.054 220.883 161.498L236.43 162.249C236.23 164.363 236.03 166.193 235.804 168.149C235.58 170.074 235.281 171.989 235.004 173.918C234.413 177.77 233.731 181.641 232.718 185.598C232.216 187.645 231.606 189.663 230.89 191.645C230.099 193.875 229.095 196.022 227.89 198.058C226.271 200.849 223.945 203.164 221.146 204.77C219.263 205.787 217.175 206.366 215.038 206.464C214.538 206.483 213.916 206.464 213.52 206.45L212.72 206.396L211.12 206.285C206.872 205.887 202.672 205.078 198.58 203.868C194.527 202.635 190.586 201.056 186.803 199.149C183.057 197.231 179.467 195.025 176.064 192.549C174.353 191.32 172.687 190.017 171.064 188.638C170.249 187.947 169.453 187.226 168.643 186.482L167.424 185.326L166.8 184.702C166.565 184.456 166.412 184.312 166.053 183.902L182.564 170.76Z" fill="#45315D"/>
<path d="M150.15 497.085C148.183 492.677 149.55 474.149 149.818 471.111C146.397 469.323 134.66 471.527 134.66 471.527C134.66 471.527 137.937 491.008 135.971 497.085C140.498 499.587 150.15 497.085 150.15 497.085Z" fill="#FFC3BD"/>
<path d="M295.101 479.312C291.401 476.212 283.619 459.304 282.527 456.455C278.667 456.355 269.953 463.164 269.953 463.164C269.953 463.164 281.459 479.221 282.365 485.544C287.532 485.802 295.101 479.312 295.101 479.312Z" fill="#FFC3BD"/>
<path d="M162.179 507.839C152.303 507.839 150.615 507.686 145.066 507.499C140.315 507.33 139.178 507.924 135.358 507.839C132.168 507.77 132.286 504.716 133.271 501.203C133.622 499.949 134.108 498.497 134.605 496.738C134.796 496.072 135.199 495.487 135.752 495.071C136.306 494.655 136.98 494.43 137.673 494.432H148.508C148.998 494.439 149.48 494.556 149.918 494.774C150.356 494.992 150.74 495.306 151.041 495.692C153.666 498.942 159.316 501.321 164.263 501.985C169.578 502.696 166.116 507.839 162.179 507.839Z" fill="#45315D"/>
<path d="M314.591 486.857C303.968 491.662 298.391 489.22 293.056 490.436C288.484 491.47 288.629 492.33 284.069 493.63C281.05 494.491 279.504 491.254 279.763 488.422C279.985 486.363 280.093 484.293 280.084 482.222C280.071 481.823 280.176 481.429 280.385 481.089C280.595 480.749 280.899 480.478 281.261 480.31L291.827 475.521C292.167 475.366 292.543 475.308 292.914 475.355C293.285 475.401 293.636 475.549 293.927 475.783C298.137 479.148 307.388 483.383 313.875 481.196C318.899 479.518 318.133 485.254 314.591 486.857Z" fill="#45315D"/>
<path d="M197.392 246.063C197.392 246.063 222.339 303.318 236.059 345.543C252.815 383.722 286.389 463.828 286.389 463.828C287.041 465.864 276.44 469.597 274.137 469.214C274.137 469.214 229.837 416.067 211.789 355.701C164.873 296.843 151.062 249.592 151.062 249.592L197.392 246.063Z" fill="#263238"/>
<path opacity="0.2" d="M177.393 277.414C184.272 284.955 189.122 311.154 191.593 328.274C183.13 315.852 175.388 302.953 168.406 289.642C169.098 283.239 171.908 278.536 177.393 277.414Z" fill="black"/>
<path d="M183.5 247.121C183.5 247.121 185.277 326.659 178.357 365.839C171.089 406.987 148.617 456.615 150.207 483.62C147.894 484.963 139.762 485.044 135.207 483.62C135.207 483.62 127.438 403.434 150.807 364.299C145.752 325.114 132.268 274.367 144.241 250.112L183.5 247.121Z" fill="#263238"/>
<path d="M151.342 477.995C151.382 479.854 151.556 481.707 151.863 483.541C151.893 483.695 151.891 483.853 151.858 484.006C151.825 484.159 151.761 484.304 151.67 484.432C151.579 484.559 151.464 484.667 151.33 484.749C151.196 484.83 151.047 484.884 150.892 484.906C145.402 485.785 137.455 484.512 134.933 484.057C134.698 484.014 134.483 483.899 134.317 483.728C134.151 483.557 134.043 483.338 134.007 483.102L133.189 477.913C133.163 477.746 133.174 477.576 133.22 477.414C133.267 477.252 133.349 477.103 133.459 476.976C133.57 476.848 133.707 476.747 133.861 476.679C134.015 476.61 134.182 476.576 134.351 476.579L150.21 476.885C150.506 476.888 150.788 477.005 150.999 477.212C151.21 477.419 151.333 477.7 151.342 477.995Z" fill="#263238"/>
<path opacity="0.1" d="M151.342 477.995C151.382 479.854 151.556 481.707 151.863 483.541C151.893 483.695 151.891 483.853 151.858 484.006C151.825 484.159 151.761 484.304 151.67 484.432C151.579 484.559 151.464 484.667 151.33 484.749C151.196 484.83 151.047 484.884 150.892 484.906C145.402 485.785 137.455 484.512 134.933 484.057C134.698 484.014 134.483 483.899 134.317 483.728C134.151 483.557 134.043 483.338 134.007 483.102L133.189 477.913C133.163 477.746 133.174 477.576 133.22 477.414C133.267 477.252 133.349 477.103 133.459 476.976C133.57 476.848 133.707 476.747 133.861 476.679C134.015 476.61 134.182 476.576 134.351 476.579L150.21 476.885C150.506 476.888 150.788 477.005 150.999 477.212C151.21 477.419 151.333 477.7 151.342 477.995Z" fill="white"/>
<path d="M285.179 457.949C285.859 459.229 287.084 461.507 288.055 463.159C288.208 463.42 288.252 463.731 288.177 464.025C288.102 464.318 287.915 464.57 287.655 464.726C283.609 467.217 276.431 469.726 274.062 470.521C273.834 470.597 273.587 470.6 273.357 470.528C273.127 470.456 272.925 470.314 272.781 470.121L269.561 465.872C269.458 465.736 269.386 465.579 269.351 465.412C269.316 465.246 269.318 465.073 269.357 464.907C269.397 464.741 269.473 464.586 269.579 464.453C269.686 464.32 269.821 464.212 269.974 464.137L283.66 457.459C283.927 457.327 284.235 457.304 284.519 457.396C284.803 457.487 285.039 457.686 285.179 457.949Z" fill="#263238"/>
<path opacity="0.1" d="M285.179 457.949C285.859 459.229 287.084 461.507 288.055 463.159C288.208 463.42 288.252 463.731 288.177 464.025C288.102 464.318 287.915 464.57 287.655 464.726C283.609 467.217 276.431 469.726 274.062 470.521C273.834 470.597 273.587 470.6 273.357 470.528C273.127 470.456 272.925 470.314 272.781 470.121L269.561 465.872C269.458 465.736 269.386 465.579 269.351 465.412C269.316 465.246 269.318 465.073 269.357 464.907C269.397 464.741 269.473 464.586 269.579 464.453C269.686 464.32 269.821 464.212 269.974 464.137L283.66 457.459C283.927 457.327 284.235 457.304 284.519 457.396C284.803 457.487 285.039 457.686 285.179 457.949Z" fill="white"/>
<path d="M186.791 178.669C188.11 183.744 190.242 189.322 192.81 201.588C195.177 211.918 196.897 230.083 197.394 246.063C190.461 252.247 167.387 251.196 144.238 250.112C144.166 235.057 137.986 221.166 121.164 190.337C117.264 183.189 120.424 174.755 127.954 172.222C129.966 171.546 132.111 170.875 134.328 170.258C142.949 167.858 150.028 165.952 157.934 164.895C160.553 164.544 163.285 164.263 165.908 164.039C170.545 163.68 175.163 164.943 178.972 167.611C182.781 170.28 185.545 174.188 186.791 178.669Z" fill="#48A7A5"/>
<path opacity="0.5" d="M186.791 178.669C188.11 183.744 190.242 189.322 192.81 201.588C195.177 211.918 196.897 230.083 197.394 246.063C190.461 252.247 167.387 251.196 144.238 250.112C144.166 235.057 137.986 221.166 121.164 190.337C117.264 183.189 120.424 174.755 127.954 172.222C129.966 171.546 132.111 170.875 134.328 170.258C142.949 167.858 150.028 165.952 157.934 164.895C160.553 164.544 163.285 164.263 165.908 164.039C170.545 163.68 175.163 164.943 178.972 167.611C182.781 170.28 185.545 174.188 186.791 178.669Z" fill="#45315D"/>
<path d="M159.461 164.863L135.623 169.963C135.623 169.963 154.914 178.004 170.361 190.416C174.577 169.207 159.461 164.863 159.461 164.863Z" fill="white"/>
<path d="M129.943 143.301C133.723 150.43 139.409 163.773 135.623 169.962C135.623 169.962 157.14 176.182 168.616 186.044C170.144 170.095 159.461 164.86 159.461 164.86C150.381 164.797 148.472 158.309 148.167 152.173L129.943 143.301Z" fill="#FFC3BD"/>
<path d="M150.158 172.013C145.245 171.908 140.354 171.332 135.551 170.292C135.464 170.273 135.389 170.22 135.341 170.145C135.293 170.07 135.277 169.979 135.296 169.892C135.316 169.805 135.369 169.73 135.443 169.682C135.518 169.634 135.609 169.617 135.696 169.635C135.824 169.665 148.563 172.481 155.976 170.793C158.34 170.254 159.721 169.388 160.076 168.217C160.559 166.64 159.022 164.974 159.005 164.958C158.975 164.926 158.951 164.888 158.935 164.846C158.92 164.804 158.912 164.76 158.914 164.716C158.915 164.671 158.926 164.628 158.944 164.587C158.962 164.547 158.989 164.51 159.021 164.48C159.053 164.45 159.091 164.426 159.133 164.411C159.175 164.395 159.219 164.388 159.263 164.389C159.308 164.391 159.351 164.401 159.392 164.419C159.432 164.438 159.469 164.464 159.499 164.496C159.573 164.576 161.318 166.469 160.721 168.414C160.286 169.833 158.739 170.855 156.121 171.45C154.16 171.854 152.16 172.043 150.158 172.013Z" fill="white"/>
<path d="M159.751 172.197C159.476 172.403 159.131 172.492 158.791 172.445C158.45 172.397 158.143 172.217 157.935 171.943L157.195 170.961C156.989 170.686 156.9 170.341 156.947 170.001C156.995 169.66 157.175 169.353 157.449 169.145C157.724 168.939 158.069 168.85 158.409 168.897C158.75 168.945 159.057 169.125 159.265 169.399L160.006 170.382C160.212 170.657 160.301 171.002 160.253 171.342C160.205 171.682 160.025 171.99 159.751 172.197Z" fill="#FF2400"/>
<path opacity="0.2" d="M137.374 146.922L148.159 152.167C148.209 153.608 148.388 155.042 148.695 156.451C145.318 156.726 139.802 154.245 138.437 150.992C137.838 149.711 137.478 148.332 137.374 146.922Z" fill="black"/>
<path d="M119.068 132.488C124.623 144.017 126.723 149 135.223 152.959C148.007 158.913 161.08 150.421 159.114 137.671C157.344 126.195 148.56 109.271 134.967 108.629C121.571 108.001 113.515 120.959 119.068 132.488Z" fill="#FFC3BD"/>
<path d="M123.938 115.746C129.974 124.325 129.667 138.384 122.553 140.29C111.705 138.623 109.401 135.818 109.401 135.818C109.401 135.818 112.903 109.369 123.938 115.746Z" fill="#263238"/>
<path d="M115.437 119.269C131.404 121.306 144.113 114.634 146.496 110.901C132.042 101.131 117.026 109.448 115.437 119.269Z" fill="#263238"/>
<path d="M148.761 125.827C148.761 125.827 152.261 129.494 154.985 130.901C154.206 132.574 151.753 132.793 151.753 132.793L148.761 125.827Z" fill="#ED847E"/>
<path d="M147.993 138.117C148.577 138.023 149.151 137.876 149.709 137.68C149.747 137.667 149.781 137.646 149.811 137.618C149.84 137.591 149.863 137.558 149.878 137.521C149.894 137.484 149.902 137.444 149.901 137.404C149.9 137.364 149.891 137.324 149.874 137.288C149.841 137.21 149.78 137.148 149.703 137.113C149.626 137.078 149.539 137.074 149.459 137.1C148.198 137.547 146.852 137.704 145.522 137.561C144.192 137.417 142.911 136.977 141.774 136.271C141.742 136.245 141.706 136.226 141.666 136.215C141.627 136.204 141.586 136.201 141.545 136.206C141.505 136.212 141.465 136.225 141.43 136.246C141.395 136.267 141.365 136.295 141.341 136.328C141.317 136.361 141.3 136.399 141.291 136.439C141.283 136.479 141.282 136.521 141.29 136.561C141.298 136.601 141.313 136.639 141.337 136.673C141.36 136.707 141.389 136.735 141.424 136.757C143.371 138.004 145.711 138.488 147.993 138.117Z" fill="#263238"/>
<path d="M119.772 144.34C120.824 144.966 121.995 145.365 123.21 145.513C124.425 145.661 125.658 145.553 126.829 145.197C129.685 144.191 128.845 140.702 126.151 138.483C123.726 136.483 119.319 134.601 117.368 136.814C115.445 138.995 116.894 142.731 119.772 144.34Z" fill="#FFC3BD"/>
<path d="M124.868 145.047C124.09 145.048 123.33 145.28 122.684 145.713C122.037 146.146 121.534 146.761 121.236 147.48C120.939 148.199 120.862 148.99 121.014 149.753C121.166 150.515 121.541 151.216 122.091 151.766C122.641 152.316 123.342 152.691 124.105 152.843C124.868 152.995 125.658 152.918 126.377 152.621C127.096 152.324 127.711 151.82 128.144 151.174C128.577 150.527 128.809 149.767 128.81 148.989C128.812 148.471 128.711 147.957 128.514 147.478C128.317 146.999 128.026 146.564 127.66 146.197C127.293 145.831 126.858 145.541 126.379 145.343C125.9 145.146 125.386 145.045 124.868 145.047ZM124.868 152C124.271 151.999 123.688 151.821 123.192 151.489C122.696 151.156 122.31 150.684 122.083 150.132C121.855 149.58 121.797 148.973 121.914 148.388C122.032 147.802 122.32 147.265 122.743 146.844C123.166 146.423 123.705 146.136 124.29 146.021C124.876 145.906 125.483 145.967 126.034 146.196C126.585 146.426 127.056 146.814 127.386 147.311C127.717 147.808 127.892 148.392 127.891 148.989C127.891 149.385 127.812 149.778 127.66 150.144C127.508 150.51 127.285 150.842 127.004 151.122C126.723 151.401 126.39 151.623 126.023 151.774C125.657 151.924 125.264 152.001 124.868 152Z" fill="white"/>
<path d="M133.659 124.928C133.728 124.884 133.788 124.826 133.832 124.757C133.877 124.688 133.906 124.61 133.918 124.528C134.01 123.773 134.288 123.052 134.727 122.43C135.166 121.809 135.752 121.306 136.433 120.966C136.507 120.937 136.574 120.892 136.63 120.835C136.686 120.779 136.729 120.711 136.757 120.636C136.786 120.562 136.798 120.482 136.794 120.403C136.79 120.323 136.769 120.245 136.733 120.174C136.654 120.025 136.523 119.911 136.365 119.852C136.207 119.794 136.033 119.797 135.876 119.859C135.006 120.273 134.254 120.898 133.689 121.678C133.124 122.459 132.765 123.369 132.644 124.324C132.627 124.49 132.675 124.656 132.779 124.787C132.882 124.918 133.033 125.003 133.198 125.024C133.358 125.049 133.522 125.015 133.659 124.928Z" fill="#263238"/>
<path d="M152.836 117.776C152.914 117.768 152.99 117.744 153.058 117.707C153.127 117.669 153.187 117.618 153.236 117.556C153.283 117.49 153.317 117.414 153.335 117.335C153.353 117.255 153.355 117.173 153.341 117.093C153.327 117.012 153.298 116.936 153.254 116.867C153.21 116.798 153.154 116.738 153.087 116.691C152.304 116.053 151.384 115.603 150.399 115.378C149.414 115.152 148.39 115.157 147.407 115.391C147.331 115.415 147.26 115.454 147.2 115.507C147.14 115.56 147.091 115.625 147.058 115.698C147.024 115.77 147.007 115.849 147.006 115.929C147.005 116.009 147.02 116.089 147.052 116.162C147.115 116.318 147.233 116.445 147.383 116.519C147.534 116.593 147.707 116.608 147.868 116.562C148.649 116.388 149.459 116.394 150.237 116.581C151.015 116.767 151.739 117.129 152.356 117.639C152.493 117.744 152.664 117.793 152.836 117.776Z" fill="#263238"/>
<path d="M152.637 122.329C152.984 123.329 152.73 124.329 152.071 124.546C151.412 124.763 150.597 124.132 150.25 123.128C149.903 122.124 150.158 121.128 150.817 120.91C151.476 120.692 152.291 121.325 152.637 122.329Z" fill="#263238"/>
<path d="M140.933 127.149C141.279 128.149 141.026 129.149 140.366 129.366C139.706 129.583 138.893 128.953 138.546 127.948C138.199 126.943 138.454 125.948 139.113 125.731C139.772 125.514 140.587 126.146 140.933 127.149Z" fill="#263238"/>
<path d="M138.546 126.319L139.646 123.945C139.646 123.945 140.284 126.205 138.546 126.319Z" fill="#263238"/>
<path d="M150.175 121.639L151.275 119.265C151.275 119.265 151.913 121.529 150.175 121.639Z" fill="#263238"/>
<path opacity="0.5" d="M136.043 191.797L124.332 196.197C129.151 205.134 132.969 212.539 135.9 218.959C135.186 209.917 135.234 200.831 136.043 191.797Z" fill="#45315D"/>
<path d="M224.871 507.851H209.461V285.872H224.871V507.851Z" fill="#45315D"/>
<path opacity="0.2" d="M209.462 285.871H224.872V323.205L209.462 319.233V285.871Z" fill="black"/>
<path d="M299.539 313.514H162.12V278.631C162.121 271.705 164.874 265.062 169.772 260.164C174.67 255.267 181.312 252.515 188.239 252.514H273.417C280.344 252.514 286.988 255.266 291.886 260.163C296.785 265.061 299.538 271.704 299.539 278.631V313.514Z" fill="#45315D"/>
<path d="M172.25 271.341L169.968 268.083C169.545 267.479 168.984 266.985 168.331 266.642C167.678 266.299 166.953 266.116 166.216 266.11L159.226 266.053C157.849 266.041 156.489 266.359 155.26 266.981C154.03 267.602 152.968 268.509 152.161 269.625L151.148 271.025C154.564 276.686 162.427 280.288 162.427 280.288L164.553 281.564C164.982 281.839 165.462 282.025 165.963 282.113C166.465 282.201 166.98 282.188 167.477 282.076C167.973 281.964 168.443 281.754 168.859 281.459C169.274 281.164 169.626 280.789 169.896 280.357L172.477 276.174C172.911 275.433 173.121 274.582 173.081 273.724C173.04 272.866 172.752 272.038 172.25 271.341Z" fill="#FFC3BD"/>
<path d="M140.425 188.463C140.073 189.198 139.609 190.28 139.213 191.232L138.013 194.221C137.234 196.233 136.498 198.271 135.813 200.321C134.465 204.367 133.355 208.488 132.487 212.663C132.077 214.712 131.736 216.75 131.487 218.763C131.27 220.714 131.154 222.676 131.14 224.639C131.034 227.952 131.618 231.25 132.855 234.325L133.355 235.408C133.396 235.497 133.43 235.59 133.455 235.685C134.318 238.371 135.648 240.884 137.384 243.107C139.394 245.812 141.607 248.361 144.004 250.73C146.484 253.172 149.139 255.53 151.904 257.799C153.285 258.93 154.704 260.02 156.139 261.091C157.546 262.145 159.081 263.239 160.416 264.119L152.757 276.214C150.932 275.058 149.374 274.014 147.718 272.886C146.091 271.772 144.494 270.619 142.901 269.451C139.709 267.121 136.59 264.651 133.554 261.985C130.399 259.277 127.447 256.34 124.724 253.198C123.265 251.505 121.922 249.714 120.705 247.839C119.339 245.77 118.192 243.565 117.281 241.26L117.881 242.62C115 237.347 113.333 231.498 113.002 225.499C112.656 220.242 112.798 214.964 113.427 209.733C114.024 204.74 114.892 199.784 116.027 194.885C116.572 192.456 117.172 190.044 117.827 187.648C118.155 186.448 118.501 185.248 118.861 184.048C119.236 182.811 119.571 181.715 120.069 180.289L140.425 188.463Z" fill="#48A7A5"/>
<path opacity="0.5" d="M140.425 188.463C140.073 189.198 139.609 190.28 139.213 191.232L138.013 194.221C137.234 196.233 136.498 198.271 135.813 200.321C134.465 204.367 133.355 208.488 132.487 212.663C132.077 214.712 131.736 216.75 131.487 218.763C131.27 220.714 131.154 222.676 131.14 224.639C131.034 227.952 131.618 231.25 132.855 234.325L133.355 235.408C133.396 235.497 133.43 235.59 133.455 235.685C134.318 238.371 135.648 240.884 137.384 243.107C139.394 245.812 141.607 248.361 144.004 250.73C146.484 253.172 149.139 255.53 151.904 257.799C153.285 258.93 154.704 260.02 156.139 261.091C157.546 262.145 159.081 263.239 160.416 264.119L152.757 276.214C150.932 275.058 149.374 274.014 147.718 272.886C146.091 271.772 144.494 270.619 142.901 269.451C139.709 267.121 136.59 264.651 133.554 261.985C130.399 259.277 127.447 256.34 124.724 253.198C123.265 251.505 121.922 249.714 120.705 247.839C119.339 245.77 118.192 243.565 117.281 241.26L117.881 242.62C115 237.347 113.333 231.498 113.002 225.499C112.656 220.242 112.798 214.964 113.427 209.733C114.024 204.74 114.892 199.784 116.027 194.885C116.572 192.456 117.172 190.044 117.827 187.648C118.155 186.448 118.501 185.248 118.861 184.048C119.236 182.811 119.571 181.715 120.069 180.289L140.425 188.463Z" fill="#45315D"/>
<path opacity="0.1" d="M229.002 305.889H162.119V288.89H229.002V305.889Z" fill="white"/>
<path opacity="0.2" d="M229.003 313.514V287.777C228.978 283.13 229.872 278.524 231.633 274.223C233.395 269.922 235.989 266.012 239.266 262.718C242.543 259.423 246.44 256.808 250.731 255.024C255.022 253.24 259.623 252.321 264.271 252.321C268.918 252.321 273.519 253.24 277.81 255.024C282.101 256.808 285.998 259.423 289.275 262.718C292.552 266.012 295.146 269.922 296.908 274.223C298.669 278.524 299.563 283.13 299.538 287.777V313.513" fill="black"/>
<path d="M325.513 318.042H229.002V313.514H325.513V318.042Z" fill="#45315D"/>
<path opacity="0.2" d="M325.513 318.042H254.977V313.514H325.513V318.042Z" fill="#CDE5FF"/>
<path d="M219.669 295.046H217.167V235.471H219.669V295.046Z" fill="#E0E0E0"/>
<path d="M202.948 247.029H220.424V238.48C220.424 238.177 220.303 237.887 220.089 237.673C219.875 237.459 219.585 237.338 219.282 237.338H202.948L205.809 242.184L202.948 247.029Z" fill="#45315D"/>
<path d="M491.488 26.6172L396.469 48.2762L384.299 55.7952L491.488 26.6172Z" fill="#5B0CBB"/>
<path opacity="0.2" d="M396.469 48.2762L384.299 55.7952L491.488 26.6172" fill="#5B0CBB"/>
<path d="M491.488 26.6162L396.472 48.2752L405.417 54.8572L491.488 26.6162Z" fill="#45315D"/>
<path d="M479.857 15.5828L429.945 13.3512C428.167 13.2717 426.662 14.6484 426.582 16.4261L425.516 40.2612C425.437 42.0389 426.814 43.5445 428.591 43.6239L478.503 45.8555C480.281 45.935 481.787 44.5583 481.866 42.7807L482.932 18.9455C483.011 17.1678 481.635 15.6622 479.857 15.5828Z" fill="#48A7A5"/>
<path opacity="0.8" d="M479.857 15.5828L429.945 13.3512C428.167 13.2717 426.662 14.6484 426.582 16.4261L425.516 40.2612C425.437 42.0389 426.814 43.5445 428.591 43.6239L478.503 45.8555C480.281 45.935 481.787 44.5583 481.866 42.7807L482.932 18.9455C483.011 17.1678 481.635 15.6622 479.857 15.5828Z" fill="white"/>
<path opacity="0.4" d="M419.046 34.9921C418.909 34.9915 418.776 34.95 418.663 34.8731L394.027 17.8731C393.954 17.8227 393.892 17.7585 393.844 17.6841C393.796 17.6096 393.763 17.5264 393.747 17.4392C393.731 17.352 393.732 17.2625 393.751 17.1759C393.769 17.0892 393.805 17.007 393.855 16.9341C393.905 16.8611 393.97 16.7988 394.044 16.7507C394.119 16.7026 394.202 16.6696 394.289 16.6536C394.376 16.6377 394.466 16.639 394.552 16.6576C394.639 16.6762 394.721 16.7117 394.794 16.7621L419.08 33.5241L444.658 18.8131C444.813 18.724 444.998 18.7002 445.17 18.747C445.343 18.7938 445.49 18.9073 445.58 19.0626C445.669 19.2179 445.692 19.4022 445.646 19.575C445.599 19.7478 445.485 19.895 445.33 19.9841L419.384 34.9031C419.281 34.9615 419.165 34.9921 419.046 34.9921Z" fill="#45315D"/>
<path opacity="0.4" d="M444.11 41.577C443.973 41.577 443.838 41.5352 443.725 41.457L429.604 31.643C429.46 31.5396 429.363 31.3837 429.332 31.2089C429.302 31.0342 429.342 30.8547 429.444 30.7091C429.545 30.5636 429.699 30.4638 429.874 30.4312C430.048 30.3986 430.228 30.4359 430.375 30.535L444.496 40.349C444.614 40.4311 444.703 40.5488 444.749 40.6848C444.796 40.8208 444.798 40.9681 444.754 41.1053C444.711 41.2424 444.626 41.3622 444.51 41.4472C444.394 41.5323 444.254 41.5771 444.11 41.577Z" fill="#45315D"/>
<path opacity="0.4" d="M393.527 39.499C393.378 39.4996 393.234 39.451 393.116 39.3608C392.997 39.2706 392.912 39.1439 392.874 39.0004C392.835 38.8569 392.845 38.7046 392.902 38.5673C392.959 38.4299 393.059 38.3152 393.188 38.241L408.066 29.618C408.221 29.5284 408.405 29.504 408.578 29.5502C408.751 29.5965 408.899 29.7095 408.989 29.8645C409.078 30.0196 409.103 30.2038 409.056 30.3768C409.01 30.5498 408.897 30.6974 408.742 30.787L393.863 39.409C393.761 39.4682 393.645 39.4993 393.527 39.499Z" fill="#45315D"/>
<path d="M491.489 26.6162L410.03 43.2682L405.417 54.8572L491.489 26.6162Z" fill="#48A7A5"/>
<path d="M491.489 26.6162L410.03 43.2682L405.417 54.8572L491.489 26.6162Z" fill="#5B0CBB"/>
<path d="M491.488 26.6162L410.03 43.2682L435.683 52.5682L491.488 26.6162Z" fill="#45315D"/>
<path d="M378.563 65.1233C378.397 65.1239 378.236 65.0633 378.112 64.9529C377.988 64.8426 377.909 64.6903 377.89 64.5253C377.871 64.3603 377.914 64.194 378.01 64.0584C378.106 63.9228 378.248 63.8274 378.41 63.7903C379.91 63.4394 381.381 62.974 382.81 62.3983C382.976 62.3312 383.162 62.3328 383.327 62.4028C383.492 62.4727 383.622 62.6053 383.689 62.7713C383.756 62.9373 383.755 63.1232 383.685 63.2881C383.615 63.4529 383.482 63.5832 383.316 63.6503C381.824 64.2517 380.288 64.7382 378.721 65.1053C378.669 65.1173 378.616 65.1233 378.563 65.1233Z" fill="#48A7A5"/>
<path d="M327.825 298.359C327.65 298.358 327.482 298.288 327.357 298.165C327.232 298.042 327.16 297.875 327.156 297.7C327.152 297.524 327.216 297.354 327.335 297.226C327.454 297.097 327.619 297.02 327.794 297.01C330.918 296.858 334.102 296.57 337.256 296.155C337.345 296.141 337.436 296.145 337.523 296.167C337.61 296.189 337.692 296.228 337.764 296.282C337.836 296.336 337.897 296.403 337.942 296.481C337.988 296.559 338.017 296.645 338.029 296.734C338.041 296.823 338.034 296.913 338.011 297C337.987 297.087 337.946 297.168 337.891 297.239C337.835 297.31 337.766 297.368 337.688 297.412C337.609 297.456 337.522 297.483 337.433 297.493C334.243 297.913 331.021 298.205 327.859 298.358L327.825 298.359ZM346.758 295.868C346.592 295.867 346.432 295.805 346.309 295.694C346.186 295.583 346.108 295.43 346.09 295.265C346.072 295.1 346.116 294.934 346.213 294.799C346.31 294.665 346.453 294.57 346.615 294.534C349.795 293.847 352.882 293.034 355.793 292.112C355.962 292.066 356.142 292.086 356.296 292.17C356.449 292.253 356.565 292.393 356.618 292.56C356.67 292.726 356.657 292.907 356.579 293.064C356.501 293.221 356.366 293.341 356.201 293.4C353.248 294.332 350.12 295.158 346.901 295.853C346.854 295.863 346.806 295.868 346.758 295.868ZM364.925 290.034C364.771 290.034 364.621 289.982 364.501 289.885C364.381 289.788 364.298 289.654 364.265 289.503C364.232 289.352 364.252 289.195 364.321 289.057C364.39 288.919 364.504 288.809 364.644 288.745C366.931 287.717 369.137 286.518 371.244 285.158C371.777 284.807 372.311 284.45 372.844 284.087C372.917 284.034 373 283.996 373.088 283.976C373.176 283.955 373.267 283.953 373.356 283.968C373.445 283.984 373.531 284.017 373.606 284.066C373.682 284.115 373.748 284.178 373.799 284.253C373.85 284.328 373.885 284.412 373.903 284.5C373.921 284.589 373.92 284.68 373.902 284.769C373.884 284.857 373.848 284.941 373.797 285.016C373.746 285.09 373.68 285.154 373.604 285.202C373.067 285.57 372.527 285.931 371.984 286.286C369.821 287.684 367.556 288.916 365.208 289.973C365.119 290.012 365.022 290.032 364.925 290.03V290.034ZM380.811 279.516C380.673 279.516 380.539 279.474 380.426 279.396C380.313 279.318 380.226 279.206 380.178 279.078C380.13 278.949 380.122 278.808 380.156 278.675C380.19 278.541 380.264 278.421 380.368 278.331C382.758 276.279 384.977 274.035 387.003 271.623C387.06 271.555 387.129 271.498 387.208 271.457C387.286 271.416 387.372 271.39 387.461 271.382C387.549 271.374 387.638 271.383 387.723 271.409C387.808 271.436 387.887 271.478 387.955 271.535C388.023 271.592 388.08 271.662 388.121 271.74C388.163 271.819 388.188 271.905 388.196 271.993C388.204 272.081 388.195 272.171 388.169 272.255C388.142 272.34 388.1 272.419 388.043 272.487C385.969 274.955 383.698 277.25 381.253 279.351C381.13 279.458 380.973 279.516 380.811 279.516ZM392.811 264.798C392.705 264.799 392.6 264.773 392.505 264.724C392.426 264.684 392.356 264.628 392.298 264.561C392.241 264.493 392.197 264.415 392.17 264.33C392.143 264.246 392.133 264.157 392.14 264.069C392.147 263.98 392.172 263.894 392.212 263.815C392.648 262.964 393.053 262.094 393.412 261.227C394.25 259.213 394.929 257.137 395.441 255.016C395.483 254.842 395.593 254.692 395.746 254.599C395.899 254.506 396.083 254.477 396.257 254.52C396.431 254.562 396.581 254.672 396.674 254.825C396.767 254.978 396.795 255.161 396.753 255.335C396.223 257.525 395.521 259.669 394.653 261.748C394.278 262.648 393.853 263.548 393.406 264.431C393.35 264.541 393.265 264.633 393.161 264.697C393.057 264.762 392.937 264.797 392.814 264.799L392.811 264.798ZM397.497 246.409H397.451C397.273 246.397 397.106 246.315 396.988 246.18C396.871 246.045 396.811 245.87 396.823 245.691C396.947 243.849 397.008 241.907 397.008 239.754C397.008 238.571 396.989 237.387 396.959 236.202C396.954 236.023 397.021 235.849 397.145 235.719C397.268 235.59 397.438 235.514 397.617 235.509C397.706 235.505 397.795 235.518 397.879 235.549C397.963 235.58 398.039 235.628 398.104 235.689C398.168 235.751 398.22 235.825 398.255 235.907C398.29 235.989 398.308 236.077 398.308 236.166C398.339 237.366 398.358 238.56 398.358 239.753C398.358 241.936 398.296 243.907 398.17 245.78C398.158 245.95 398.083 246.11 397.959 246.227C397.834 246.344 397.671 246.409 397.5 246.41L397.497 246.409ZM397.238 227.309C397.064 227.309 396.897 227.242 396.772 227.122C396.646 227.001 396.572 226.838 396.564 226.664C396.441 223.918 396.326 220.972 396.326 218.024V217.076C396.321 216.986 396.335 216.896 396.367 216.811C396.4 216.727 396.45 216.651 396.514 216.587C396.579 216.524 396.656 216.475 396.741 216.444C396.825 216.412 396.916 216.4 397.006 216.406C397.095 216.407 397.182 216.425 397.264 216.459C397.346 216.494 397.42 216.544 397.482 216.607C397.544 216.67 397.594 216.745 397.627 216.827C397.66 216.91 397.677 216.997 397.676 217.086V218.024C397.676 220.943 397.789 223.872 397.912 226.601C397.919 226.779 397.855 226.953 397.735 227.084C397.614 227.215 397.446 227.293 397.268 227.301L397.238 227.309ZM454.965 218.992C453.738 218.992 452.536 218.96 451.382 218.91C451.203 218.902 451.035 218.824 450.914 218.692C450.793 218.56 450.729 218.385 450.737 218.206C450.745 218.027 450.823 217.859 450.955 217.738C451.087 217.617 451.262 217.553 451.441 217.561C452.576 217.611 453.758 217.642 454.965 217.642C456.943 217.648 458.92 217.548 460.887 217.342C461.061 217.331 461.232 217.388 461.365 217.5C461.498 217.612 461.583 217.772 461.602 217.945C461.62 218.118 461.571 218.292 461.465 218.43C461.359 218.567 461.203 218.659 461.031 218.685C459.015 218.896 456.99 219 454.963 218.995L454.965 218.992ZM441.877 218.305H441.824C438.659 218.062 435.453 217.773 432.289 217.448C432.111 217.429 431.949 217.34 431.836 217.201C431.724 217.063 431.671 216.885 431.689 216.707C431.697 216.619 431.723 216.533 431.765 216.455C431.807 216.377 431.864 216.308 431.933 216.252C432.002 216.196 432.081 216.155 432.167 216.13C432.252 216.105 432.341 216.097 432.429 216.107C435.58 216.431 438.776 216.719 441.929 216.962C442.101 216.978 442.26 217.059 442.374 217.189C442.488 217.319 442.548 217.487 442.541 217.659C442.535 217.832 442.463 217.995 442.339 218.116C442.216 218.237 442.052 218.306 441.879 218.309L441.877 218.305ZM470.191 216.372C470.037 216.372 469.888 216.319 469.768 216.223C469.648 216.126 469.565 215.991 469.532 215.84C469.499 215.69 469.519 215.533 469.588 215.395C469.657 215.257 469.771 215.147 469.911 215.083C472.739 213.884 475.135 211.85 476.777 209.254C476.874 209.109 477.022 209.007 477.192 208.969C477.362 208.931 477.54 208.961 477.689 209.051C477.838 209.141 477.947 209.286 477.991 209.454C478.036 209.623 478.014 209.802 477.93 209.954C476.148 212.782 473.545 215 470.469 216.309C470.383 216.35 470.289 216.372 470.193 216.374L470.191 216.372ZM422.869 216.348C422.839 216.348 422.811 216.348 422.781 216.343C419.637 215.937 416.448 215.482 413.303 214.993C413.126 214.966 412.967 214.869 412.862 214.724C412.756 214.58 412.712 214.399 412.74 214.222C412.768 214.045 412.864 213.887 413.009 213.781C413.154 213.675 413.334 213.632 413.511 213.659C416.645 214.146 419.822 214.599 422.954 215.004C423.125 215.025 423.281 215.111 423.391 215.243C423.501 215.375 423.557 215.545 423.546 215.717C423.535 215.889 423.459 216.05 423.333 216.167C423.207 216.285 423.041 216.349 422.869 216.348ZM403.986 213.409C403.945 213.409 403.905 213.406 403.865 213.398C400.743 212.83 397.583 212.211 394.465 211.56C394.29 211.523 394.136 211.419 394.038 211.269C393.94 211.119 393.906 210.936 393.943 210.761C393.979 210.585 394.084 210.432 394.234 210.334C394.384 210.236 394.567 210.201 394.742 210.238C397.842 210.887 400.992 211.503 404.103 212.07C404.27 212.099 404.419 212.19 404.522 212.324C404.625 212.458 404.674 212.626 404.659 212.794C404.644 212.963 404.566 213.119 404.441 213.233C404.315 213.347 404.152 213.409 403.983 213.408L403.986 213.409ZM385.286 209.499C385.233 209.499 385.181 209.493 385.129 209.481C382.039 208.752 378.914 207.972 375.841 207.161C375.668 207.116 375.52 207.003 375.43 206.848C375.339 206.694 375.314 206.509 375.36 206.336C375.406 206.163 375.518 206.015 375.673 205.925C375.828 205.835 376.012 205.81 376.185 205.855C379.247 206.662 382.361 207.439 385.439 208.166C385.599 208.205 385.74 208.301 385.834 208.436C385.928 208.571 385.97 208.736 385.951 208.9C385.932 209.063 385.854 209.215 385.731 209.325C385.608 209.435 385.45 209.496 385.285 209.497L385.286 209.499ZM397.679 208.233C397.646 208.233 397.612 208.23 397.579 208.226C397.402 208.2 397.243 208.104 397.136 207.96C397.03 207.816 396.985 207.635 397.011 207.458C397.475 204.257 398.266 201.111 399.371 198.071C399.402 197.988 399.448 197.912 399.509 197.847C399.569 197.782 399.641 197.729 399.721 197.692C399.802 197.655 399.889 197.634 399.977 197.631C400.066 197.628 400.154 197.642 400.237 197.672C400.32 197.703 400.396 197.75 400.461 197.81C400.526 197.87 400.579 197.942 400.616 198.023C400.653 198.103 400.674 198.19 400.677 198.278C400.681 198.367 400.667 198.455 400.636 198.538C399.564 201.492 398.797 204.548 398.346 207.658C398.321 207.818 398.24 207.964 398.117 208.069C397.994 208.174 397.838 208.231 397.676 208.23L397.679 208.233ZM366.807 204.633C366.743 204.633 366.679 204.624 366.618 204.606C363.569 203.718 360.49 202.775 357.464 201.806C357.376 201.782 357.294 201.741 357.223 201.684C357.152 201.628 357.092 201.557 357.049 201.477C357.006 201.397 356.979 201.309 356.97 201.219C356.962 201.128 356.971 201.037 356.999 200.95C357.027 200.863 357.072 200.783 357.131 200.714C357.191 200.645 357.263 200.589 357.345 200.549C357.427 200.509 357.516 200.486 357.607 200.481C357.698 200.476 357.789 200.49 357.874 200.521C360.889 201.485 363.958 202.421 366.996 203.309C367.152 203.355 367.286 203.455 367.374 203.591C367.462 203.728 367.498 203.892 367.475 204.053C367.452 204.213 367.372 204.361 367.249 204.467C367.127 204.574 366.97 204.633 366.807 204.633ZM479.286 201.151C479.13 201.151 478.978 201.097 478.857 200.997C478.737 200.898 478.654 200.76 478.624 200.606C477.897 197.628 476.217 194.969 473.839 193.034C473.723 192.911 473.657 192.748 473.656 192.579C473.654 192.41 473.716 192.246 473.829 192.12C473.942 191.994 474.099 191.915 474.267 191.9C474.436 191.884 474.604 191.932 474.739 192.034C477.336 194.163 479.165 197.085 479.945 200.351C479.962 200.438 479.961 200.528 479.944 200.615C479.926 200.702 479.891 200.784 479.841 200.858C479.792 200.931 479.728 200.994 479.654 201.043C479.58 201.092 479.497 201.125 479.41 201.142C479.368 201.149 479.325 201.151 479.282 201.149L479.286 201.151ZM348.609 198.79C348.532 198.79 348.456 198.777 348.384 198.751C345.311 197.661 342.291 196.53 339.41 195.387C339.328 195.354 339.253 195.306 339.189 195.244C339.126 195.182 339.075 195.108 339.04 195.027C339.005 194.945 338.986 194.858 338.985 194.769C338.984 194.681 339 194.593 339.033 194.51C339.066 194.428 339.115 194.353 339.176 194.289C339.238 194.226 339.312 194.175 339.393 194.14C339.475 194.105 339.562 194.086 339.651 194.085C339.74 194.084 339.828 194.1 339.91 194.133C342.776 195.27 345.779 196.396 348.837 197.48C348.987 197.533 349.113 197.638 349.193 197.775C349.274 197.912 349.303 198.074 349.276 198.23C349.249 198.387 349.168 198.529 349.046 198.632C348.925 198.735 348.771 198.791 348.612 198.791L348.609 198.79ZM330.848 191.73C330.754 191.73 330.66 191.71 330.574 191.671C327.601 190.344 324.687 188.957 321.914 187.55C321.828 187.514 321.751 187.461 321.686 187.394C321.622 187.327 321.572 187.248 321.54 187.16C321.508 187.073 321.494 186.98 321.5 186.887C321.505 186.795 321.53 186.704 321.572 186.621C321.614 186.538 321.673 186.465 321.744 186.406C321.816 186.347 321.899 186.303 321.989 186.278C322.078 186.252 322.172 186.246 322.264 186.258C322.356 186.271 322.445 186.302 322.524 186.35C325.278 187.75 328.172 189.123 331.124 190.442C331.266 190.505 331.381 190.615 331.452 190.752C331.522 190.89 331.543 191.048 331.51 191.2C331.478 191.351 331.395 191.487 331.275 191.584C331.154 191.682 331.004 191.734 330.849 191.734L330.848 191.73ZM404.454 190.565C404.31 190.566 404.17 190.519 404.054 190.433C403.983 190.381 403.922 190.314 403.877 190.238C403.831 190.162 403.801 190.078 403.788 189.991C403.774 189.903 403.779 189.814 403.8 189.728C403.821 189.641 403.859 189.561 403.912 189.489C405.681 187.069 407.854 184.972 410.335 183.289C410.566 183.134 410.799 182.983 411.035 182.835C411.187 182.741 411.37 182.71 411.545 182.751C411.719 182.791 411.87 182.899 411.965 183.051C412.06 183.203 412.09 183.387 412.05 183.561C412.009 183.735 411.901 183.887 411.749 183.981C411.528 184.12 411.306 184.262 411.089 184.409C408.736 186.006 406.676 187.997 405 190.294C404.936 190.378 404.854 190.446 404.759 190.493C404.664 190.539 404.56 190.563 404.454 190.562V190.565ZM466.388 187.865C466.276 187.866 466.166 187.838 466.067 187.784C464.936 187.17 463.822 186.605 462.767 186.084C461.052 185.236 459.278 184.452 457.493 183.752C457.411 183.72 457.335 183.672 457.271 183.61C457.207 183.549 457.156 183.475 457.121 183.394C457.085 183.313 457.066 183.225 457.065 183.136C457.063 183.048 457.079 182.96 457.111 182.877C457.143 182.795 457.192 182.719 457.253 182.655C457.315 182.592 457.388 182.54 457.469 182.505C457.551 182.469 457.638 182.45 457.727 182.449C457.815 182.447 457.903 182.463 457.986 182.495C459.807 183.208 461.617 184.008 463.365 184.874C464.43 185.401 465.559 185.974 466.705 186.594C466.837 186.666 466.942 186.779 467.002 186.917C467.063 187.054 467.076 187.208 467.039 187.354C467.002 187.499 466.918 187.629 466.799 187.721C466.68 187.813 466.534 187.863 466.384 187.863L466.388 187.865ZM313.821 183.065C313.702 183.065 313.585 183.033 313.482 182.973C310.663 181.337 307.923 179.627 305.339 177.894C305.264 177.845 305.2 177.782 305.149 177.708C305.099 177.634 305.064 177.551 305.046 177.464C305.028 177.376 305.028 177.286 305.045 177.198C305.062 177.11 305.097 177.027 305.147 176.952C305.196 176.878 305.261 176.815 305.335 176.765C305.41 176.716 305.493 176.682 305.581 176.665C305.669 176.649 305.76 176.65 305.847 176.668C305.935 176.687 306.017 176.722 306.091 176.773C308.651 178.49 311.366 180.183 314.159 181.806C314.287 181.881 314.387 181.996 314.443 182.133C314.5 182.27 314.509 182.422 314.471 182.565C314.432 182.708 314.347 182.834 314.23 182.925C314.112 183.015 313.968 183.064 313.82 183.064L313.821 183.065ZM448.633 180.947C448.58 180.947 448.527 180.941 448.476 180.928C445.406 180.2 442.289 179.689 439.148 179.397C438.976 179.374 438.82 179.284 438.711 179.148C438.603 179.012 438.552 178.84 438.568 178.667C438.584 178.494 438.666 178.334 438.797 178.22C438.928 178.105 439.097 178.046 439.271 178.054C442.476 178.351 445.656 178.873 448.788 179.615C448.95 179.652 449.093 179.748 449.189 179.884C449.285 180.02 449.327 180.186 449.308 180.351C449.289 180.516 449.209 180.669 449.085 180.779C448.96 180.889 448.799 180.948 448.633 180.947ZM420.208 180.507C420.043 180.507 419.884 180.446 419.76 180.336C419.637 180.227 419.558 180.076 419.539 179.912C419.519 179.748 419.561 179.582 419.655 179.447C419.749 179.311 419.89 179.215 420.05 179.176C422.421 178.615 424.83 178.232 427.258 178.03C428.047 177.959 428.837 177.903 429.628 177.861C429.719 177.853 429.81 177.863 429.896 177.89C429.983 177.918 430.063 177.963 430.132 178.022C430.201 178.082 430.257 178.154 430.297 178.236C430.337 178.318 430.36 178.406 430.365 178.497C430.37 178.588 430.356 178.679 430.325 178.764C430.294 178.85 430.246 178.928 430.184 178.994C430.122 179.061 430.047 179.114 429.964 179.151C429.881 179.187 429.791 179.207 429.7 179.208C428.925 179.25 428.151 179.306 427.38 179.374C425.018 179.57 422.674 179.942 420.367 180.488C420.315 180.501 420.261 180.507 420.207 180.507H420.208ZM297.981 172.407C297.83 172.407 297.684 172.357 297.565 172.263C295.005 170.255 292.547 168.156 290.257 166.024C290.126 165.902 290.049 165.733 290.043 165.554C290.036 165.375 290.101 165.201 290.224 165.07C290.346 164.939 290.515 164.862 290.694 164.855C290.873 164.849 291.047 164.914 291.178 165.036C293.439 167.142 295.868 169.216 298.399 171.202C298.509 171.289 298.59 171.408 298.63 171.543C298.669 171.677 298.666 171.821 298.62 171.954C298.574 172.086 298.488 172.202 298.374 172.283C298.259 172.364 298.122 172.408 297.982 172.408L297.981 172.407ZM284.043 159.367C283.947 159.367 283.853 159.347 283.765 159.308C283.678 159.268 283.6 159.21 283.537 159.138C281.414 156.727 279.433 154.194 277.605 151.552C277.503 151.405 277.464 151.223 277.497 151.047C277.529 150.871 277.63 150.715 277.777 150.613C277.924 150.511 278.106 150.472 278.282 150.505C278.458 150.537 278.614 150.638 278.716 150.785C280.514 153.384 282.463 155.875 284.551 158.247C284.637 158.345 284.693 158.465 284.712 158.594C284.731 158.722 284.713 158.853 284.659 158.972C284.606 159.09 284.519 159.191 284.41 159.261C284.3 159.331 284.173 159.367 284.043 159.367ZM273.237 143.66C273.113 143.66 272.992 143.626 272.886 143.562C272.78 143.497 272.694 143.405 272.637 143.295C271.157 140.437 269.882 137.479 268.819 134.441C268.79 134.357 268.777 134.269 268.783 134.18C268.788 134.092 268.81 134.005 268.849 133.925C268.927 133.764 269.065 133.641 269.235 133.582C269.404 133.523 269.589 133.534 269.75 133.611C269.912 133.689 270.035 133.828 270.094 133.997C271.136 136.975 272.387 139.875 273.838 142.676C273.92 142.835 273.936 143.021 273.881 143.191C273.827 143.362 273.707 143.504 273.548 143.586C273.452 143.635 273.345 143.66 273.237 143.66ZM267.024 125.66C266.866 125.66 266.713 125.604 266.591 125.502C266.47 125.401 266.388 125.26 266.36 125.104C266.232 124.386 266.117 123.664 266.014 122.938C265.681 120.558 265.513 118.157 265.514 115.753V115.476C265.515 115.297 265.586 115.126 265.714 115C265.841 114.874 266.013 114.803 266.192 114.804C266.371 114.804 266.542 114.876 266.668 115.003C266.794 115.13 266.865 115.302 266.864 115.481V115.752C266.863 118.094 267.025 120.433 267.349 122.752C267.449 123.46 267.562 124.165 267.688 124.868C267.719 125.044 267.679 125.225 267.577 125.372C267.475 125.519 267.319 125.619 267.143 125.651C267.104 125.659 267.064 125.663 267.024 125.664V125.66ZM267.092 106.654C267.051 106.654 267.01 106.65 266.969 106.642C266.793 106.61 266.637 106.509 266.536 106.361C266.434 106.214 266.396 106.032 266.428 105.856C267.014 102.684 267.87 99.567 268.987 96.5402C269.053 96.3774 269.179 96.2467 269.34 96.1756C269.5 96.1045 269.682 96.0987 269.847 96.1595C270.011 96.2202 270.146 96.3427 270.222 96.501C270.298 96.6592 270.309 96.8408 270.253 97.0072C269.162 99.9612 268.325 103.003 267.753 106.1C267.725 106.256 267.644 106.397 267.523 106.499C267.403 106.6 267.25 106.657 267.092 106.658V106.654ZM273.683 88.8152C273.564 88.8149 273.448 88.7833 273.345 88.7238C273.243 88.6642 273.158 88.5787 273.099 88.4759C273.04 88.373 273.009 88.2565 273.009 88.1379C273.009 88.0193 273.041 87.9028 273.1 87.8002C274.723 85.0088 276.597 82.3715 278.7 79.9212C278.818 79.7915 278.983 79.713 279.158 79.7024C279.333 79.6919 279.506 79.75 279.639 79.8645C279.772 79.979 279.855 80.1409 279.871 80.3158C279.887 80.4906 279.834 80.6648 279.723 80.8012C277.674 83.1891 275.848 85.7591 274.267 88.4792C274.208 88.5824 274.123 88.6682 274.021 88.7279C273.918 88.7877 273.802 88.8191 273.683 88.8192V88.8152ZM286.108 74.4482C285.968 74.4478 285.831 74.4036 285.717 74.3218C285.602 74.24 285.516 74.1247 285.471 73.9918C285.425 73.859 285.422 73.7152 285.462 73.5805C285.502 73.4458 285.582 73.3269 285.693 73.2402C288.247 71.2639 290.983 69.5342 293.864 68.0742C293.943 68.0274 294.031 67.9973 294.123 67.9858C294.214 67.9743 294.307 67.9816 294.395 68.0073C294.484 68.033 294.566 68.0765 294.637 68.1352C294.708 68.1939 294.766 68.2664 294.808 68.3485C294.85 68.4305 294.875 68.5202 294.881 68.6121C294.887 68.704 294.874 68.7962 294.843 68.8829C294.812 68.9696 294.763 69.049 294.7 69.1163C294.637 69.1836 294.561 69.2374 294.477 69.2742C291.672 70.6949 289.009 72.3784 286.522 74.3022C286.405 74.3973 286.259 74.4501 286.108 74.4522V74.4482ZM369.077 66.0702H369.063C365.848 66.0023 362.641 65.7194 359.463 65.2232C359.375 65.211 359.289 65.1814 359.212 65.1361C359.135 65.0908 359.068 65.0306 359.015 64.9591C358.961 64.8876 358.922 64.8062 358.9 64.7195C358.878 64.6329 358.874 64.5428 358.887 64.4545C358.901 64.3661 358.931 64.2813 358.977 64.2048C359.024 64.1284 359.085 64.0619 359.157 64.0093C359.229 63.9566 359.311 63.9188 359.398 63.898C359.485 63.8772 359.575 63.8739 359.663 63.8882C362.782 64.3753 365.93 64.6533 369.086 64.7202C369.265 64.7213 369.436 64.7934 369.562 64.9207C369.688 65.0481 369.758 65.2202 369.757 65.3992C369.756 65.5782 369.684 65.7495 369.556 65.8753C369.429 66.0011 369.257 66.0713 369.078 66.0702H369.077ZM303 65.7202C302.84 65.7201 302.685 65.6628 302.562 65.5587C302.44 65.4546 302.359 65.3104 302.334 65.1521C302.309 64.9937 302.341 64.8314 302.424 64.6944C302.507 64.5573 302.637 64.4545 302.789 64.4042C305.847 63.4173 308.96 62.6096 312.112 61.9852C312.288 61.9501 312.47 61.9862 312.619 62.0855C312.768 62.1849 312.872 62.3395 312.907 62.5152C312.942 62.6909 312.906 62.8734 312.807 63.0225C312.707 63.1715 312.553 63.275 312.377 63.3102C309.277 63.9233 306.216 64.7177 303.209 65.6892C303.142 65.7114 303.071 65.7232 303 65.7242V65.7202ZM350.15 63.5982C350.108 63.5981 350.067 63.5941 350.026 63.5862C347.126 63.0472 343.846 62.4362 340.636 61.9812C340.548 61.9688 340.464 61.9392 340.387 61.8941C340.311 61.8491 340.244 61.7894 340.191 61.7186C340.138 61.6477 340.099 61.5671 340.077 61.4812C340.055 61.3954 340.05 61.306 340.062 61.2182C340.074 61.1304 340.104 61.0459 340.149 60.9696C340.194 60.8932 340.254 60.8265 340.325 60.7732C340.396 60.7199 340.476 60.681 340.562 60.6589C340.648 60.6368 340.737 60.6318 340.825 60.6442C344.064 61.1032 347.364 61.7172 350.273 62.2592C350.439 62.2895 350.587 62.3808 350.689 62.5151C350.791 62.6494 350.839 62.817 350.824 62.9849C350.808 63.1528 350.731 63.3089 350.606 63.4224C350.481 63.5359 350.319 63.5986 350.15 63.5982ZM321.686 61.8592C321.513 61.8601 321.346 61.7946 321.22 61.6762C321.094 61.5578 321.018 61.3955 321.008 61.2228C320.999 61.05 321.055 60.8801 321.167 60.7481C321.279 60.6161 321.437 60.532 321.609 60.5132C323.329 60.3132 325.157 60.1402 327.045 59.9892C328.245 59.8942 329.5 59.8462 330.775 59.8462H331.219C331.308 59.8468 331.395 59.865 331.477 59.8995C331.558 59.9341 331.632 59.9844 331.694 60.0475C331.756 60.1107 331.805 60.1855 331.838 60.2676C331.871 60.3498 331.888 60.4376 331.887 60.5262C331.876 60.7022 331.801 60.8679 331.675 60.9916C331.549 61.1153 331.382 61.1881 331.206 61.1962H330.774C329.533 61.1962 328.315 61.2432 327.15 61.3352C325.279 61.4852 323.465 61.6592 321.762 61.8552C321.737 61.8592 321.711 61.8618 321.686 61.8632V61.8592Z" fill="#48A7A5"/>
<path d="M318.132 298.393H318.101C316.492 298.321 314.894 298.211 313.354 298.062C313.18 298.04 313.021 297.951 312.912 297.813C312.802 297.676 312.75 297.501 312.767 297.326C312.784 297.151 312.869 296.99 313.003 296.876C313.137 296.763 313.31 296.706 313.485 296.717C315.001 296.864 316.575 296.974 318.161 297.044C318.336 297.054 318.501 297.131 318.62 297.259C318.739 297.387 318.804 297.557 318.8 297.732C318.796 297.908 318.725 298.074 318.6 298.198C318.476 298.321 318.308 298.391 318.133 298.393H318.132Z" fill="#407BFF"/>
<path d="M378.563 65.1233C378.397 65.1239 378.236 65.0633 378.112 64.9529C377.988 64.8426 377.909 64.6903 377.89 64.5253C377.871 64.3603 377.914 64.194 378.01 64.0584C378.106 63.9228 378.248 63.8274 378.41 63.7903C379.91 63.4394 381.381 62.974 382.81 62.3983C382.976 62.3312 383.162 62.3328 383.327 62.4028C383.492 62.4727 383.622 62.6053 383.689 62.7713C383.756 62.9373 383.755 63.1232 383.685 63.2881C383.615 63.4529 383.482 63.5832 383.316 63.6503C381.824 64.2517 380.288 64.7382 378.721 65.1053C378.669 65.1173 378.616 65.1233 378.563 65.1233Z" fill="#45315D"/>
<path d="M327.825 298.359C327.65 298.358 327.482 298.288 327.357 298.165C327.232 298.042 327.16 297.875 327.156 297.7C327.152 297.524 327.216 297.354 327.335 297.226C327.454 297.097 327.619 297.02 327.794 297.01C330.918 296.858 334.102 296.57 337.256 296.155C337.345 296.141 337.436 296.145 337.523 296.167C337.61 296.189 337.692 296.228 337.764 296.282C337.836 296.336 337.897 296.403 337.942 296.481C337.988 296.559 338.017 296.645 338.029 296.734C338.041 296.823 338.034 296.913 338.011 297C337.987 297.087 337.946 297.168 337.891 297.239C337.835 297.31 337.766 297.368 337.688 297.412C337.609 297.456 337.522 297.483 337.433 297.493C334.243 297.913 331.021 298.205 327.859 298.358L327.825 298.359ZM346.758 295.868C346.592 295.867 346.432 295.805 346.309 295.694C346.186 295.583 346.108 295.43 346.09 295.265C346.072 295.1 346.116 294.934 346.213 294.799C346.31 294.665 346.453 294.57 346.615 294.534C349.795 293.847 352.882 293.034 355.793 292.112C355.962 292.066 356.142 292.086 356.296 292.17C356.449 292.253 356.565 292.393 356.618 292.56C356.67 292.726 356.657 292.907 356.579 293.064C356.501 293.221 356.366 293.341 356.201 293.4C353.248 294.332 350.12 295.158 346.901 295.853C346.854 295.863 346.806 295.868 346.758 295.868ZM364.925 290.034C364.771 290.034 364.621 289.982 364.501 289.885C364.381 289.788 364.298 289.654 364.265 289.503C364.232 289.352 364.252 289.195 364.321 289.057C364.39 288.919 364.504 288.809 364.644 288.745C366.931 287.717 369.137 286.518 371.244 285.158C371.777 284.807 372.311 284.45 372.844 284.087C372.917 284.034 373 283.996 373.088 283.976C373.176 283.955 373.267 283.953 373.356 283.968C373.445 283.984 373.531 284.017 373.606 284.066C373.682 284.115 373.748 284.178 373.799 284.253C373.85 284.328 373.885 284.412 373.903 284.5C373.921 284.589 373.92 284.68 373.902 284.769C373.884 284.857 373.848 284.941 373.797 285.016C373.746 285.09 373.68 285.154 373.604 285.202C373.067 285.57 372.527 285.931 371.984 286.286C369.821 287.684 367.556 288.916 365.208 289.973C365.119 290.012 365.022 290.032 364.925 290.03V290.034ZM380.811 279.516C380.673 279.516 380.539 279.474 380.426 279.396C380.313 279.318 380.226 279.206 380.178 279.078C380.13 278.949 380.122 278.808 380.156 278.675C380.19 278.541 380.264 278.421 380.368 278.331C382.758 276.279 384.977 274.035 387.003 271.623C387.06 271.555 387.129 271.498 387.208 271.457C387.286 271.416 387.372 271.39 387.461 271.382C387.549 271.374 387.638 271.383 387.723 271.409C387.808 271.436 387.887 271.478 387.955 271.535C388.023 271.592 388.08 271.662 388.121 271.74C388.163 271.819 388.188 271.905 388.196 271.993C388.204 272.081 388.195 272.171 388.169 272.255C388.142 272.34 388.1 272.419 388.043 272.487C385.969 274.955 383.698 277.25 381.253 279.351C381.13 279.458 380.973 279.516 380.811 279.516ZM392.811 264.798C392.705 264.799 392.6 264.773 392.505 264.724C392.426 264.684 392.356 264.628 392.298 264.561C392.241 264.493 392.197 264.415 392.17 264.33C392.143 264.246 392.133 264.157 392.14 264.069C392.147 263.98 392.172 263.894 392.212 263.815C392.648 262.964 393.053 262.094 393.412 261.227C394.25 259.213 394.929 257.137 395.441 255.016C395.483 254.842 395.593 254.692 395.746 254.599C395.899 254.506 396.083 254.477 396.257 254.52C396.431 254.562 396.581 254.672 396.674 254.825C396.767 254.978 396.795 255.161 396.753 255.335C396.223 257.525 395.521 259.669 394.653 261.748C394.278 262.648 393.853 263.548 393.406 264.431C393.35 264.541 393.265 264.633 393.161 264.697C393.057 264.762 392.937 264.797 392.814 264.799L392.811 264.798ZM397.497 246.409H397.451C397.273 246.397 397.106 246.315 396.988 246.18C396.871 246.045 396.811 245.87 396.823 245.691C396.947 243.849 397.008 241.907 397.008 239.754C397.008 238.571 396.989 237.387 396.959 236.202C396.954 236.023 397.021 235.849 397.145 235.719C397.268 235.59 397.438 235.514 397.617 235.509C397.706 235.505 397.795 235.518 397.879 235.549C397.963 235.58 398.039 235.628 398.104 235.689C398.168 235.751 398.22 235.825 398.255 235.907C398.29 235.989 398.308 236.077 398.308 236.166C398.339 237.366 398.358 238.56 398.358 239.753C398.358 241.936 398.296 243.907 398.17 245.78C398.158 245.95 398.083 246.11 397.959 246.227C397.834 246.344 397.671 246.409 397.5 246.41L397.497 246.409ZM397.238 227.309C397.064 227.309 396.897 227.242 396.772 227.122C396.646 227.001 396.572 226.838 396.564 226.664C396.441 223.918 396.326 220.972 396.326 218.024V217.076C396.321 216.986 396.335 216.896 396.367 216.811C396.4 216.727 396.45 216.651 396.514 216.587C396.579 216.524 396.656 216.475 396.741 216.444C396.825 216.412 396.916 216.4 397.006 216.406C397.095 216.407 397.182 216.425 397.264 216.459C397.346 216.494 397.42 216.544 397.482 216.607C397.544 216.67 397.594 216.745 397.627 216.827C397.66 216.91 397.677 216.997 397.676 217.086V218.024C397.676 220.943 397.789 223.872 397.912 226.601C397.919 226.779 397.855 226.953 397.735 227.084C397.614 227.215 397.446 227.293 397.268 227.301L397.238 227.309ZM454.965 218.992C453.738 218.992 452.536 218.96 451.382 218.91C451.203 218.902 451.035 218.824 450.914 218.692C450.793 218.56 450.729 218.385 450.737 218.206C450.745 218.027 450.823 217.859 450.955 217.738C451.087 217.617 451.262 217.553 451.441 217.561C452.576 217.611 453.758 217.642 454.965 217.642C456.943 217.648 458.92 217.548 460.887 217.342C461.061 217.331 461.232 217.388 461.365 217.5C461.498 217.612 461.583 217.772 461.602 217.945C461.62 218.118 461.571 218.292 461.465 218.43C461.359 218.567 461.203 218.659 461.031 218.685C459.015 218.896 456.99 219 454.963 218.995L454.965 218.992ZM441.877 218.305H441.824C438.659 218.062 435.453 217.773 432.289 217.448C432.111 217.429 431.949 217.34 431.836 217.201C431.724 217.063 431.671 216.885 431.689 216.707C431.697 216.619 431.723 216.533 431.765 216.455C431.807 216.377 431.864 216.308 431.933 216.252C432.002 216.196 432.081 216.155 432.167 216.13C432.252 216.105 432.341 216.097 432.429 216.107C435.58 216.431 438.776 216.719 441.929 216.962C442.101 216.978 442.26 217.059 442.374 217.189C442.488 217.319 442.548 217.487 442.541 217.659C442.535 217.832 442.463 217.995 442.339 218.116C442.216 218.237 442.052 218.306 441.879 218.309L441.877 218.305ZM470.191 216.372C470.037 216.372 469.888 216.319 469.768 216.223C469.648 216.126 469.565 215.991 469.532 215.84C469.499 215.69 469.519 215.533 469.588 215.395C469.657 215.257 469.771 215.147 469.911 215.083C472.739 213.884 475.135 211.85 476.777 209.254C476.874 209.109 477.022 209.007 477.192 208.969C477.362 208.931 477.54 208.961 477.689 209.051C477.838 209.141 477.947 209.286 477.991 209.454C478.036 209.623 478.014 209.802 477.93 209.954C476.148 212.782 473.545 215 470.469 216.309C470.383 216.35 470.289 216.372 470.193 216.374L470.191 216.372ZM422.869 216.348C422.839 216.348 422.811 216.348 422.781 216.343C419.637 215.937 416.448 215.482 413.303 214.993C413.126 214.966 412.967 214.869 412.862 214.724C412.756 214.58 412.712 214.399 412.74 214.222C412.768 214.045 412.864 213.887 413.009 213.781C413.154 213.675 413.334 213.632 413.511 213.659C416.645 214.146 419.822 214.599 422.954 215.004C423.125 215.025 423.281 215.111 423.391 215.243C423.501 215.375 423.557 215.545 423.546 215.717C423.535 215.889 423.459 216.05 423.333 216.167C423.207 216.285 423.041 216.349 422.869 216.348ZM403.986 213.409C403.945 213.409 403.905 213.406 403.865 213.398C400.743 212.83 397.583 212.211 394.465 211.56C394.29 211.523 394.136 211.419 394.038 211.269C393.94 211.119 393.906 210.936 393.943 210.761C393.979 210.585 394.084 210.432 394.234 210.334C394.384 210.236 394.567 210.201 394.742 210.238C397.842 210.887 400.992 211.503 404.103 212.07C404.27 212.099 404.419 212.19 404.522 212.324C404.625 212.458 404.674 212.626 404.659 212.794C404.644 212.963 404.566 213.119 404.441 213.233C404.315 213.347 404.152 213.409 403.983 213.408L403.986 213.409ZM385.286 209.499C385.233 209.499 385.181 209.493 385.129 209.481C382.039 208.752 378.914 207.972 375.841 207.161C375.668 207.116 375.52 207.003 375.43 206.848C375.339 206.694 375.314 206.509 375.36 206.336C375.406 206.163 375.518 206.015 375.673 205.925C375.828 205.835 376.012 205.81 376.185 205.855C379.247 206.662 382.361 207.439 385.439 208.166C385.599 208.205 385.74 208.301 385.834 208.436C385.928 208.571 385.97 208.736 385.951 208.9C385.932 209.063 385.854 209.215 385.731 209.325C385.608 209.435 385.45 209.496 385.285 209.497L385.286 209.499ZM397.679 208.233C397.646 208.233 397.612 208.23 397.579 208.226C397.402 208.2 397.243 208.104 397.136 207.96C397.03 207.816 396.985 207.635 397.011 207.458C397.475 204.257 398.266 201.111 399.371 198.071C399.402 197.988 399.448 197.912 399.509 197.847C399.569 197.782 399.641 197.729 399.721 197.692C399.802 197.655 399.889 197.634 399.977 197.631C400.066 197.628 400.154 197.642 400.237 197.672C400.32 197.703 400.396 197.75 400.461 197.81C400.526 197.87 400.579 197.942 400.616 198.023C400.653 198.103 400.674 198.19 400.677 198.278C400.681 198.367 400.667 198.455 400.636 198.538C399.564 201.492 398.797 204.548 398.346 207.658C398.321 207.818 398.24 207.964 398.117 208.069C397.994 208.174 397.838 208.231 397.676 208.23L397.679 208.233ZM366.807 204.633C366.743 204.633 366.679 204.624 366.618 204.606C363.569 203.718 360.49 202.775 357.464 201.806C357.376 201.782 357.294 201.741 357.223 201.684C357.152 201.628 357.092 201.557 357.049 201.477C357.006 201.397 356.979 201.309 356.97 201.219C356.962 201.128 356.971 201.037 356.999 200.95C357.027 200.863 357.072 200.783 357.131 200.714C357.191 200.645 357.263 200.589 357.345 200.549C357.427 200.509 357.516 200.486 357.607 200.481C357.698 200.476 357.789 200.49 357.874 200.521C360.889 201.485 363.958 202.421 366.996 203.309C367.152 203.355 367.286 203.455 367.374 203.591C367.462 203.728 367.498 203.892 367.475 204.053C367.452 204.213 367.372 204.361 367.249 204.467C367.127 204.574 366.97 204.633 366.807 204.633ZM479.286 201.151C479.13 201.151 478.978 201.097 478.857 200.997C478.737 200.898 478.654 200.76 478.624 200.606C477.897 197.628 476.217 194.969 473.839 193.034C473.723 192.911 473.657 192.748 473.656 192.579C473.654 192.41 473.716 192.246 473.829 192.12C473.942 191.994 474.099 191.915 474.267 191.9C474.436 191.884 474.604 191.932 474.739 192.034C477.336 194.163 479.165 197.085 479.945 200.351C479.962 200.438 479.961 200.528 479.944 200.615C479.926 200.702 479.891 200.784 479.841 200.858C479.792 200.931 479.728 200.994 479.654 201.043C479.58 201.092 479.497 201.125 479.41 201.142C479.368 201.149 479.325 201.151 479.282 201.149L479.286 201.151ZM348.609 198.79C348.532 198.79 348.456 198.777 348.384 198.751C345.311 197.661 342.291 196.53 339.41 195.387C339.328 195.354 339.253 195.306 339.189 195.244C339.126 195.182 339.075 195.108 339.04 195.027C339.005 194.945 338.986 194.858 338.985 194.769C338.984 194.681 339 194.593 339.033 194.51C339.066 194.428 339.115 194.353 339.176 194.289C339.238 194.226 339.312 194.175 339.393 194.14C339.475 194.105 339.562 194.086 339.651 194.085C339.74 194.084 339.828 194.1 339.91 194.133C342.776 195.27 345.779 196.396 348.837 197.48C348.987 197.533 349.113 197.638 349.193 197.775C349.274 197.912 349.303 198.074 349.276 198.23C349.249 198.387 349.168 198.529 349.046 198.632C348.925 198.735 348.771 198.791 348.612 198.791L348.609 198.79ZM330.848 191.73C330.754 191.73 330.66 191.71 330.574 191.671C327.601 190.344 324.687 188.957 321.914 187.55C321.828 187.514 321.751 187.461 321.686 187.394C321.622 187.327 321.572 187.248 321.54 187.16C321.508 187.073 321.494 186.98 321.5 186.887C321.505 186.795 321.53 186.704 321.572 186.621C321.614 186.538 321.673 186.465 321.744 186.406C321.816 186.347 321.899 186.303 321.989 186.278C322.078 186.252 322.172 186.246 322.264 186.258C322.356 186.271 322.445 186.302 322.524 186.35C325.278 187.75 328.172 189.123 331.124 190.442C331.266 190.505 331.381 190.615 331.452 190.752C331.522 190.89 331.543 191.048 331.51 191.2C331.478 191.351 331.395 191.487 331.275 191.584C331.154 191.682 331.004 191.734 330.849 191.734L330.848 191.73ZM404.454 190.565C404.31 190.566 404.17 190.519 404.054 190.433C403.983 190.381 403.922 190.314 403.877 190.238C403.831 190.162 403.801 190.078 403.788 189.991C403.774 189.903 403.779 189.814 403.8 189.728C403.821 189.641 403.859 189.561 403.912 189.489C405.681 187.069 407.854 184.972 410.335 183.289C410.566 183.134 410.799 182.983 411.035 182.835C411.187 182.741 411.37 182.71 411.545 182.751C411.719 182.791 411.87 182.899 411.965 183.051C412.06 183.203 412.09 183.387 412.05 183.561C412.009 183.735 411.901 183.887 411.749 183.981C411.528 184.12 411.306 184.262 411.089 184.409C408.736 186.006 406.676 187.997 405 190.294C404.936 190.378 404.854 190.446 404.759 190.493C404.664 190.539 404.56 190.563 404.454 190.562V190.565ZM466.388 187.865C466.276 187.866 466.166 187.838 466.067 187.784C464.936 187.17 463.822 186.605 462.767 186.084C461.052 185.236 459.278 184.452 457.493 183.752C457.411 183.72 457.335 183.672 457.271 183.61C457.207 183.549 457.156 183.475 457.121 183.394C457.085 183.313 457.066 183.225 457.065 183.136C457.063 183.048 457.079 182.96 457.111 182.877C457.143 182.795 457.192 182.719 457.253 182.655C457.315 182.592 457.388 182.54 457.469 182.505C457.551 182.469 457.638 182.45 457.727 182.449C457.815 182.447 457.903 182.463 457.986 182.495C459.807 183.208 461.617 184.008 463.365 184.874C464.43 185.401 465.559 185.974 466.705 186.594C466.837 186.666 466.942 186.779 467.002 186.917C467.063 187.054 467.076 187.208 467.039 187.354C467.002 187.499 466.918 187.629 466.799 187.721C466.68 187.813 466.534 187.863 466.384 187.863L466.388 187.865ZM313.821 183.065C313.702 183.065 313.585 183.033 313.482 182.973C310.663 181.337 307.923 179.627 305.339 177.894C305.264 177.845 305.2 177.782 305.149 177.708C305.099 177.634 305.064 177.551 305.046 177.464C305.028 177.376 305.028 177.286 305.045 177.198C305.062 177.11 305.097 177.027 305.147 176.952C305.196 176.878 305.261 176.815 305.335 176.765C305.41 176.716 305.493 176.682 305.581 176.665C305.669 176.649 305.76 176.65 305.847 176.668C305.935 176.687 306.017 176.722 306.091 176.773C308.651 178.49 311.366 180.183 314.159 181.806C314.287 181.881 314.387 181.996 314.443 182.133C314.5 182.27 314.509 182.422 314.471 182.565C314.432 182.708 314.347 182.834 314.23 182.925C314.112 183.015 313.968 183.064 313.82 183.064L313.821 183.065ZM448.633 180.947C448.58 180.947 448.527 180.941 448.476 180.928C445.406 180.2 442.289 179.689 439.148 179.397C438.976 179.374 438.82 179.284 438.711 179.148C438.603 179.012 438.552 178.84 438.568 178.667C438.584 178.494 438.666 178.334 438.797 178.22C438.928 178.105 439.097 178.046 439.271 178.054C442.476 178.351 445.656 178.873 448.788 179.615C448.95 179.652 449.093 179.748 449.189 179.884C449.285 180.02 449.327 180.186 449.308 180.351C449.289 180.516 449.209 180.669 449.085 180.779C448.96 180.889 448.799 180.948 448.633 180.947ZM420.208 180.507C420.043 180.507 419.884 180.446 419.76 180.336C419.637 180.227 419.558 180.076 419.539 179.912C419.519 179.748 419.561 179.582 419.655 179.447C419.749 179.311 419.89 179.215 420.05 179.176C422.421 178.615 424.83 178.232 427.258 178.03C428.047 177.959 428.837 177.903 429.628 177.861C429.719 177.853 429.81 177.863 429.896 177.89C429.983 177.918 430.063 177.963 430.132 178.022C430.201 178.082 430.257 178.154 430.297 178.236C430.337 178.318 430.36 178.406 430.365 178.497C430.37 178.588 430.356 178.679 430.325 178.764C430.294 178.85 430.246 178.928 430.184 178.994C430.122 179.061 430.047 179.114 429.964 179.151C429.881 179.187 429.791 179.207 429.7 179.208C428.925 179.25 428.151 179.306 427.38 179.374C425.018 179.57 422.674 179.942 420.367 180.488C420.315 180.501 420.261 180.507 420.207 180.507H420.208ZM297.981 172.407C297.83 172.407 297.684 172.357 297.565 172.263C295.005 170.255 292.547 168.156 290.257 166.024C290.126 165.902 290.049 165.733 290.043 165.554C290.036 165.375 290.101 165.201 290.224 165.07C290.346 164.939 290.515 164.862 290.694 164.855C290.873 164.849 291.047 164.914 291.178 165.036C293.439 167.142 295.868 169.216 298.399 171.202C298.509 171.289 298.59 171.408 298.63 171.543C298.669 171.677 298.666 171.821 298.62 171.954C298.574 172.086 298.488 172.202 298.374 172.283C298.259 172.364 298.122 172.408 297.982 172.408L297.981 172.407ZM284.043 159.367C283.947 159.367 283.853 159.347 283.765 159.308C283.678 159.268 283.6 159.21 283.537 159.138C281.414 156.727 279.433 154.194 277.605 151.552C277.503 151.405 277.464 151.223 277.497 151.047C277.529 150.871 277.63 150.715 277.777 150.613C277.924 150.511 278.106 150.472 278.282 150.505C278.458 150.537 278.614 150.638 278.716 150.785C280.514 153.384 282.463 155.875 284.551 158.247C284.637 158.345 284.693 158.465 284.712 158.594C284.731 158.722 284.713 158.853 284.659 158.972C284.606 159.09 284.519 159.191 284.41 159.261C284.3 159.331 284.173 159.367 284.043 159.367ZM273.237 143.66C273.113 143.66 272.992 143.626 272.886 143.562C272.78 143.497 272.694 143.405 272.637 143.295C271.157 140.437 269.882 137.479 268.819 134.441C268.79 134.357 268.777 134.269 268.783 134.18C268.788 134.092 268.81 134.005 268.849 133.925C268.927 133.764 269.065 133.641 269.235 133.582C269.404 133.523 269.589 133.534 269.75 133.611C269.912 133.689 270.035 133.828 270.094 133.997C271.136 136.975 272.387 139.875 273.838 142.676C273.92 142.835 273.936 143.021 273.881 143.191C273.827 143.362 273.707 143.504 273.548 143.586C273.452 143.635 273.345 143.66 273.237 143.66ZM267.024 125.66C266.866 125.66 266.713 125.604 266.591 125.502C266.47 125.401 266.388 125.26 266.36 125.104C266.232 124.386 266.117 123.664 266.014 122.938C265.681 120.558 265.513 118.157 265.514 115.753V115.476C265.515 115.297 265.586 115.126 265.714 115C265.841 114.874 266.013 114.803 266.192 114.804C266.371 114.804 266.542 114.876 266.668 115.003C266.794 115.13 266.865 115.302 266.864 115.481V115.752C266.863 118.094 267.025 120.433 267.349 122.752C267.449 123.46 267.562 124.165 267.688 124.868C267.719 125.044 267.679 125.225 267.577 125.372C267.475 125.519 267.319 125.619 267.143 125.651C267.104 125.659 267.064 125.663 267.024 125.664V125.66ZM267.092 106.654C267.051 106.654 267.01 106.65 266.969 106.642C266.793 106.61 266.637 106.509 266.536 106.361C266.434 106.214 266.396 106.032 266.428 105.856C267.014 102.684 267.87 99.567 268.987 96.5402C269.053 96.3774 269.179 96.2467 269.34 96.1756C269.5 96.1045 269.682 96.0987 269.847 96.1595C270.011 96.2202 270.146 96.3427 270.222 96.501C270.298 96.6592 270.309 96.8408 270.253 97.0072C269.162 99.9612 268.325 103.003 267.753 106.1C267.725 106.256 267.644 106.397 267.523 106.499C267.403 106.6 267.25 106.657 267.092 106.658V106.654ZM273.683 88.8152C273.564 88.8149 273.448 88.7833 273.345 88.7238C273.243 88.6642 273.158 88.5787 273.099 88.4759C273.04 88.373 273.009 88.2565 273.009 88.1379C273.009 88.0193 273.041 87.9028 273.1 87.8002C274.723 85.0088 276.597 82.3715 278.7 79.9212C278.818 79.7915 278.983 79.713 279.158 79.7024C279.333 79.6919 279.506 79.75 279.639 79.8645C279.772 79.979 279.855 80.1409 279.871 80.3158C279.887 80.4906 279.834 80.6648 279.723 80.8012C277.674 83.1891 275.848 85.7591 274.267 88.4792C274.208 88.5824 274.123 88.6682 274.021 88.7279C273.918 88.7877 273.802 88.8191 273.683 88.8192V88.8152ZM286.108 74.4482C285.968 74.4478 285.831 74.4036 285.717 74.3218C285.602 74.24 285.516 74.1247 285.471 73.9918C285.425 73.859 285.422 73.7152 285.462 73.5805C285.502 73.4458 285.582 73.3269 285.693 73.2402C288.247 71.2639 290.983 69.5342 293.864 68.0742C293.943 68.0274 294.031 67.9973 294.123 67.9858C294.214 67.9743 294.307 67.9816 294.395 68.0073C294.484 68.033 294.566 68.0765 294.637 68.1352C294.708 68.1939 294.766 68.2664 294.808 68.3485C294.85 68.4305 294.875 68.5202 294.881 68.6121C294.887 68.704 294.874 68.7962 294.843 68.8829C294.812 68.9696 294.763 69.049 294.7 69.1163C294.637 69.1836 294.561 69.2374 294.477 69.2742C291.672 70.6949 289.009 72.3784 286.522 74.3022C286.405 74.3973 286.259 74.4501 286.108 74.4522V74.4482ZM369.077 66.0702H369.063C365.848 66.0023 362.641 65.7194 359.463 65.2232C359.375 65.211 359.289 65.1814 359.212 65.1361C359.135 65.0908 359.068 65.0306 359.015 64.9591C358.961 64.8876 358.922 64.8062 358.9 64.7195C358.878 64.6329 358.874 64.5428 358.887 64.4545C358.901 64.3661 358.931 64.2813 358.977 64.2048C359.024 64.1284 359.085 64.0619 359.157 64.0093C359.229 63.9566 359.311 63.9188 359.398 63.898C359.485 63.8772 359.575 63.8739 359.663 63.8882C362.782 64.3753 365.93 64.6533 369.086 64.7202C369.265 64.7213 369.436 64.7934 369.562 64.9207C369.688 65.0481 369.758 65.2202 369.757 65.3992C369.756 65.5782 369.684 65.7495 369.556 65.8753C369.429 66.0011 369.257 66.0713 369.078 66.0702H369.077ZM303 65.7202C302.84 65.7201 302.685 65.6628 302.562 65.5587C302.44 65.4546 302.359 65.3104 302.334 65.1521C302.309 64.9937 302.341 64.8314 302.424 64.6944C302.507 64.5573 302.637 64.4545 302.789 64.4042C305.847 63.4173 308.96 62.6096 312.112 61.9852C312.288 61.9501 312.47 61.9862 312.619 62.0855C312.768 62.1849 312.872 62.3395 312.907 62.5152C312.942 62.6909 312.906 62.8734 312.807 63.0225C312.707 63.1715 312.553 63.275 312.377 63.3102C309.277 63.9233 306.216 64.7177 303.209 65.6892C303.142 65.7114 303.071 65.7232 303 65.7242V65.7202ZM350.15 63.5982C350.108 63.5981 350.067 63.5941 350.026 63.5862C347.126 63.0472 343.846 62.4362 340.636 61.9812C340.548 61.9688 340.464 61.9392 340.387 61.8941C340.311 61.8491 340.244 61.7894 340.191 61.7186C340.138 61.6477 340.099 61.5671 340.077 61.4812C340.055 61.3954 340.05 61.306 340.062 61.2182C340.074 61.1304 340.104 61.0459 340.149 60.9696C340.194 60.8932 340.254 60.8265 340.325 60.7732C340.396 60.7199 340.476 60.681 340.562 60.6589C340.648 60.6368 340.737 60.6318 340.825 60.6442C344.064 61.1032 347.364 61.7172 350.273 62.2592C350.439 62.2895 350.587 62.3808 350.689 62.5151C350.791 62.6494 350.839 62.817 350.824 62.9849C350.808 63.1528 350.731 63.3089 350.606 63.4224C350.481 63.5359 350.319 63.5986 350.15 63.5982ZM321.686 61.8592C321.513 61.8601 321.346 61.7946 321.22 61.6762C321.094 61.5578 321.018 61.3955 321.008 61.2228C320.999 61.05 321.055 60.8801 321.167 60.7481C321.279 60.6161 321.437 60.532 321.609 60.5132C323.329 60.3132 325.157 60.1402 327.045 59.9892C328.245 59.8942 329.5 59.8462 330.775 59.8462H331.219C331.308 59.8468 331.395 59.865 331.477 59.8995C331.558 59.9341 331.632 59.9844 331.694 60.0475C331.756 60.1107 331.805 60.1855 331.838 60.2676C331.871 60.3498 331.888 60.4376 331.887 60.5262C331.876 60.7022 331.801 60.8679 331.675 60.9916C331.549 61.1153 331.382 61.1881 331.206 61.1962H330.774C329.533 61.1962 328.315 61.2432 327.15 61.3352C325.279 61.4852 323.465 61.6592 321.762 61.8552C321.737 61.8592 321.711 61.8618 321.686 61.8632V61.8592Z" fill="#45315D"/>
<path d="M318.132 298.393H318.101C316.492 298.321 314.894 298.211 313.354 298.062C313.18 298.04 313.021 297.951 312.912 297.813C312.802 297.676 312.75 297.501 312.767 297.326C312.784 297.151 312.869 296.99 313.003 296.876C313.137 296.763 313.31 296.706 313.485 296.717C315.001 296.864 316.575 296.974 318.161 297.044C318.336 297.054 318.501 297.131 318.62 297.259C318.739 297.387 318.804 297.557 318.8 297.732C318.796 297.908 318.725 298.074 318.6 298.198C318.476 298.321 318.308 298.391 318.133 298.393H318.132Z" fill="#45315D"/>
</svg>
