<svg width="140" height="170" viewBox="0 0 140 170" fill="none" xmlns="http://www.w3.org/2000/svg">
<g opacity="0.15">
<path d="M41.2754 90.393C40.0189 89.2393 37.9816 89.239 36.7249 90.3928L27.6239 98.7482C26.3672 99.9017 26.3672 101.772 27.6239 102.926C28.8803 104.079 30.9177 104.079 32.1743 102.926L41.2754 94.5705C42.5318 93.4173 42.5318 91.5467 41.2754 90.393Z" fill="#FF9280" stroke="#F8F8FA" stroke-width="5"/>
<path d="M59.4768 90.3928C58.2206 89.2393 56.1833 89.2391 54.9264 90.3928L45.8255 98.748C44.5689 99.9015 44.5689 101.772 45.8255 102.926C47.082 104.079 49.1193 104.079 50.376 102.926L59.477 94.5704C60.7335 93.4171 60.7335 91.5465 59.4768 90.3928Z" fill="#FF9280" stroke="#F8F8FA" stroke-width="5"/>
<path d="M41.2754 73.6824C40.0189 72.5287 37.9816 72.5287 36.7249 73.6824L27.6239 82.0377C26.3672 83.1912 26.3672 85.0616 27.6239 86.2153C28.8803 87.3689 30.9177 87.3689 32.1743 86.2153L41.2754 77.8601C42.5318 76.7066 42.5318 74.8361 41.2754 73.6824Z" fill="#FF9280" stroke="#F8F8FA" stroke-width="5"/>
<path d="M133.673 30.6309L106.37 5.565C102.604 2.10768 96.4799 2.11201 92.7186 5.565L42.6641 51.519C38.9133 54.9624 38.8755 60.5739 42.6641 64.0519L69.9666 89.1176C73.7389 92.581 79.8452 92.5816 83.6179 89.1176L133.673 43.1636C137.43 39.7141 137.442 34.0912 133.673 30.6309ZM95.3003 11.5502L90.1821 46.654C89.9899 47.9709 88.8543 49.0137 87.4196 49.19L49.1835 53.8888L95.3003 11.5502ZM75.2628 85.451C74.9922 85.3163 74.741 85.1456 74.5171 84.9402L47.4234 60.0658L78.802 56.2096L75.2628 85.451ZM82.141 82.1185L85.3743 55.4019L88.2734 55.0457C92.577 54.5168 95.9845 51.3881 96.5603 47.4379L96.9483 44.7761L126.049 41.8075L82.141 82.1185ZM97.8281 38.7422L102.029 9.93441L129.123 34.8085C129.348 35.0159 129.532 35.2475 129.677 35.4932L97.8281 38.7422Z" fill="#FF9280" stroke="#F8F8FA" stroke-width="5"/>
</g>
<g opacity="0.15">
<path d="M76.7634 149.141C75.929 148.375 74.576 148.375 73.7414 149.141L67.6973 154.69C66.8628 155.456 66.8628 156.698 67.6973 157.464C68.5317 158.23 69.8848 158.23 70.7193 157.464L76.7634 151.915C77.5978 151.15 77.5978 149.907 76.7634 149.141Z" fill="#FF9280" stroke="#F8F8FA" stroke-width="3"/>
<path d="M88.8513 149.141C88.017 148.375 86.664 148.375 85.8293 149.141L79.7853 154.69C78.9508 155.456 78.9508 156.698 79.7853 157.464C80.6197 158.23 81.9728 158.23 82.8073 157.464L88.8514 151.915C89.6858 151.149 89.6858 149.907 88.8513 149.141Z" fill="#FF9280" stroke="#F8F8FA" stroke-width="3"/>
<path d="M76.7634 138.043C75.929 137.277 74.576 137.277 73.7414 138.043L67.6973 143.592C66.8628 144.358 66.8628 145.6 67.6973 146.367C68.5317 147.133 69.8848 147.133 70.7193 146.367L76.7634 140.818C77.5978 140.052 77.5978 138.81 76.7634 138.043Z" fill="#FF9280" stroke="#F8F8FA" stroke-width="3"/>
<path d="M138.126 109.452L119.993 92.8059C117.493 90.5099 113.425 90.5127 110.927 92.8059L77.6856 123.324C75.1947 125.611 75.1696 129.338 77.6856 131.648L95.8175 148.294C98.3228 150.594 102.378 150.595 104.883 148.294L138.126 117.776C140.621 115.485 140.629 111.75 138.126 109.452ZM112.642 96.7808L109.243 120.094C109.115 120.968 108.361 121.661 107.408 121.778L82.0152 124.898L112.642 96.7808ZM99.3348 145.859C99.155 145.77 98.9882 145.656 98.8395 145.52L80.8463 129L101.685 126.44L99.3348 145.859ZM103.903 143.646L106.05 125.903L107.975 125.667C110.833 125.315 113.096 123.237 113.479 120.614L113.736 118.846L133.063 116.875L103.903 143.646ZM114.321 114.839L117.11 95.7077L135.104 112.227C135.254 112.365 135.376 112.518 135.472 112.682L114.321 114.839Z" fill="#FF9280" stroke="#F8F8FA" stroke-width="3"/>
</g>
<g opacity="0.15">
<path d="M10.6408 159.599C9.89621 158.915 8.68881 158.915 7.94408 159.598L2.55049 164.55C1.80576 165.234 1.80576 166.342 2.55049 167.026C3.29509 167.71 4.50249 167.71 5.24722 167.026L10.6408 162.074C11.3854 161.391 11.3854 160.282 10.6408 159.599Z" fill="#004A9C" stroke="#F8F8FA" stroke-width="3"/>
<path d="M21.4277 159.598C20.6832 158.915 19.4758 158.915 18.7309 159.598L13.3375 164.55C12.5927 165.234 12.5927 166.342 13.3375 167.026C14.0821 167.71 15.2895 167.71 16.0342 167.026L21.4278 162.074C22.1724 161.391 22.1724 160.282 21.4277 159.598Z" fill="#004A9C" stroke="#F8F8FA" stroke-width="3"/>
<path d="M10.6408 149.695C9.89621 149.012 8.68881 149.012 7.94408 149.695L2.55049 154.647C1.80576 155.331 1.80576 156.439 2.55049 157.123C3.29509 157.807 4.50249 157.807 5.24722 157.123L10.6408 152.171C11.3854 151.488 11.3854 150.379 10.6408 149.695Z" fill="#004A9C" stroke="#F8F8FA" stroke-width="3"/>
<path d="M65.3988 124.182L49.2181 109.327C46.9865 107.278 43.3569 107.28 41.1278 109.327L11.4639 136.561C9.24101 138.601 9.21864 141.927 11.4639 143.988L27.6443 158.843C29.8799 160.895 33.4986 160.896 35.7345 158.843L65.3988 131.609C67.6255 129.565 67.6326 126.232 65.3988 124.182ZM42.6578 112.874L39.6246 133.677C39.5107 134.458 38.8377 135.076 37.9875 135.18L15.3275 137.965L42.6578 112.874ZM30.783 156.67C30.6226 156.59 30.4737 156.489 30.341 156.367L14.2844 141.626L32.8804 139.34L30.783 156.67ZM34.8592 154.695L36.7754 138.862L38.4935 138.651C41.0439 138.337 43.0633 136.483 43.4046 134.142L43.6345 132.565L60.8807 130.805L34.8592 154.695ZM44.1559 128.989L46.6452 111.916L62.7021 126.657C62.8359 126.78 62.9448 126.918 63.0304 127.063L44.1559 128.989Z" fill="#004A9C" stroke="#F8F8FA" stroke-width="3"/>
</g>
</svg>
