<svg width="118" height="111" viewBox="0 0 118 111" fill="none" xmlns="http://www.w3.org/2000/svg">
<g opacity="0.15">
<g opacity="0.7">
<path d="M95.5876 69.5603L102.565 52.6789C107.037 51.8741 110.101 47.9666 109.457 43.7632L104.025 8.27698C103.36 3.93048 98.9765 0.890492 94.2535 1.49989L51.2702 7.04588C46.5471 7.65528 43.2451 11.6869 43.9104 16.0334L47.4955 39.4528L56.3893 38.3053C60.2531 37.8068 63.8394 40.293 64.3837 43.8488L66.4508 57.3514L83.8222 55.1101L95.5876 69.5603ZM94.4729 2.93324C98.3367 2.43471 101.923 4.92219 102.468 8.47795L107.9 43.9642C108.444 47.52 105.744 50.8199 101.88 51.3185L101.419 51.3779L95.133 66.5907L84.5234 53.5579L67.7889 55.7171L65.9413 43.6478C65.2759 39.3013 60.8927 36.2613 56.1696 36.8707L48.8334 37.8172L45.4679 15.8324C44.9236 12.2767 47.6244 8.97794 51.4896 8.47923L94.4729 2.93324Z" fill="#FF9280"/>
<path d="M76.6931 36.597L75.6067 30.6601C76.2985 30.3993 77.0157 30.102 77.7559 29.771C78.4962 29.4399 79.1617 29.0443 79.7521 28.5816C80.3413 28.1203 80.797 27.579 81.1153 26.9594C81.4321 26.34 81.5276 25.6097 81.3986 24.7674C81.2797 23.9906 81.0341 23.3528 80.6643 22.8527C80.2905 22.3544 79.8507 21.9773 79.3393 21.722C78.8279 21.4668 78.2539 21.3091 77.6205 21.2514C76.9859 21.195 76.3562 21.2071 75.7312 21.2878C74.8505 21.4014 74.0051 21.5796 73.1922 21.8227C72.3795 22.0671 71.5835 22.3477 70.8054 22.6618L70.1254 20.5315C70.9692 20.1859 71.8713 19.8711 72.8316 19.5872C73.7918 19.302 74.7933 19.0934 75.8344 18.9591C76.8063 18.8337 77.7618 18.8218 78.6986 18.9274C79.635 19.0306 80.4826 19.2809 81.2396 19.676C81.9965 20.0711 82.6373 20.6374 83.1644 21.3731C83.6888 22.1092 84.0392 23.0445 84.2129 24.1791C84.377 25.251 84.3097 26.1927 84.008 27.0034C83.7077 27.814 83.2665 28.5237 82.6875 29.1346C82.1086 29.7457 81.4305 30.2619 80.6577 30.6841C79.8845 31.1039 79.1062 31.4629 78.325 31.757L78.9509 36.3057L79.0377 36.873L76.78 37.1643L76.6931 36.597ZM78.8393 42.7517C78.2835 42.8234 77.8277 42.7375 77.4715 42.4917C77.1156 42.2483 76.9009 41.8869 76.8268 41.4025C76.7497 40.8991 76.8454 40.4836 77.1145 40.1596C77.3835 39.8357 77.7959 39.6378 78.3517 39.5661C78.931 39.4914 79.4034 39.5751 79.7717 39.8168C80.1387 40.0587 80.361 40.4332 80.438 40.9365C80.5122 41.421 80.4088 41.8234 80.1287 42.1488C79.8476 42.4769 79.4186 42.6769 78.8393 42.7517Z" fill="#FF9280"/>
<path d="M32.3216 108.18L39.2941 91.3124L64.0154 88.1226C68.7385 87.5132 72.0392 83.4819 71.3738 79.1353L65.9413 43.6478C65.2759 39.3013 60.8927 36.2613 56.1696 36.8707L13.17 42.4188C8.44833 43.0281 5.1462 47.0596 5.81157 51.4062L11.2441 86.8937C11.8874 91.0958 16.0058 94.0778 20.546 93.7186L32.3216 108.18ZM56.3893 38.3053C60.253 37.8068 63.8394 40.293 64.3837 43.8488L69.8163 79.3363C70.3608 82.8934 67.6598 86.1908 63.796 86.6893L38.1528 89.9979L31.867 105.211L21.2573 92.1779L20.7963 92.2374C16.9325 92.7359 13.3462 90.2498 12.8017 86.6927L7.36914 51.2052C6.82481 47.6494 9.52578 44.352 13.3896 43.8534L56.3893 38.3053Z" fill="#FF9280"/>
<path d="M16.3269 55.1014L16.702 55.053L16.4826 53.6197L16.1075 53.6681L16.3269 55.1014ZM20.008 54.6265L23.3153 54.1997L23.0959 52.7664L19.7886 53.1931L20.008 54.6265ZM26.62 53.7734L29.9259 53.3468L29.7065 51.9135L26.4005 52.34L26.62 53.7734ZM33.232 52.9202L36.538 52.4937L36.3185 51.0603L33.0125 51.4869L33.232 52.9202ZM39.8439 52.0671L43.1499 51.6406L42.9305 50.2072L39.6245 50.6338L39.8439 52.0671ZM46.4559 51.214L49.7619 50.7874L49.5425 49.3541L46.2365 49.7807L46.4559 51.214ZM53.0679 50.3609L56.3739 49.9343L56.1544 48.501L52.8485 48.9275L53.0679 50.3609Z" fill="#FF9280"/>
<path d="M18.2824 67.875L18.6574 67.8266L18.4378 66.3919L18.0628 66.4403L18.2824 67.875ZM21.9634 67.4L25.2708 66.9733L25.0511 65.5386L21.7438 65.9654L21.9634 67.4ZM28.5754 66.5469L31.8814 66.1203L31.6618 64.6857L28.3558 65.1122L28.5754 66.5469ZM35.1874 65.6938L38.4934 65.2672L38.2738 63.8326L34.9678 64.2591L35.1874 65.6938ZM41.7994 64.8407L45.1053 64.4141L44.8857 62.9794L41.5797 63.406L41.7994 64.8407ZM48.4113 63.9875L51.7173 63.561L51.4977 62.1263L48.1917 62.5529L48.4113 63.9875ZM55.0233 63.1344L58.3293 62.7079L58.1097 61.2732L54.8037 61.6998L55.0233 63.1344Z" fill="#FF9280"/>
<path d="M20.2376 80.6471L20.6126 80.5987L20.3932 79.1654L20.0181 79.2138L20.2376 80.6471ZM23.9186 80.1721L27.2259 79.7454L27.0065 78.3121L23.6992 78.7388L23.9186 80.1721ZM30.5306 79.319L33.8366 78.8924L33.6171 77.4591L30.3112 77.8857L30.5306 79.319ZM37.1426 78.4659L40.4486 78.0393L40.2291 76.606L36.9232 77.0326L37.1426 78.4659ZM43.7545 77.6127L47.0605 77.1862L46.8411 75.7529L43.5351 76.1794L43.7545 77.6127ZM50.3665 76.7596L53.6725 76.3331L53.4531 74.8998L50.1471 75.3263L50.3665 76.7596ZM56.9785 75.9065L60.2845 75.4799L60.0651 74.0466L56.7591 74.4732L56.9785 75.9065Z" fill="#FF9280"/>
</g>
</g>
</svg>
