<svg width="30" height="30" viewBox="0 0 30 30" fill="none" xmlns="http://www.w3.org/2000/svg">
<circle cx="15.0003" cy="15" r="15" fill="white"/>
<path d="M15.0038 10.8983C12.7331 10.8983 10.9016 12.7298 10.9016 15.0005C10.9016 17.2712 12.7331 19.1027 15.0038 19.1027C17.2745 19.1027 19.106 17.2712 19.106 15.0005C19.106 12.7298 17.2745 10.8983 15.0038 10.8983ZM15.0038 17.6675C13.5364 17.6675 12.3368 16.4714 12.3368 15.0005C12.3368 13.5296 13.5328 12.3335 15.0038 12.3335C16.4747 12.3335 17.6708 13.5296 17.6708 15.0005C17.6708 16.4714 16.4712 17.6675 15.0038 17.6675ZM20.2306 10.7305C20.2306 11.2625 19.8022 11.6873 19.2738 11.6873C18.7418 11.6873 18.317 11.2589 18.317 10.7305C18.317 10.2021 18.7454 9.77367 19.2738 9.77367C19.8022 9.77367 20.2306 10.2021 20.2306 10.7305ZM22.9476 11.7016C22.8869 10.4199 22.5941 9.28455 21.6551 8.34914C20.7197 7.41374 19.5844 7.12098 18.3027 7.05672C16.9817 6.98174 13.0223 6.98174 11.7013 7.05672C10.4232 7.11741 9.28784 7.41017 8.34887 8.34557C7.4099 9.28097 7.12071 10.4163 7.05644 11.698C6.98147 13.019 6.98147 16.9784 7.05644 18.2994C7.11714 19.5811 7.4099 20.7164 8.34887 21.6518C9.28784 22.5872 10.4196 22.88 11.7013 22.9443C13.0223 23.0192 16.9817 23.0192 18.3027 22.9443C19.5844 22.8836 20.7197 22.5908 21.6551 21.6518C22.5905 20.7164 22.8833 19.5811 22.9476 18.2994C23.0225 16.9784 23.0225 13.0226 22.9476 11.7016ZM21.241 19.7168C20.9625 20.4165 20.4234 20.9556 19.7201 21.2377C18.6668 21.6554 16.1677 21.559 15.0038 21.559C13.8399 21.559 11.3372 21.6518 10.2875 21.2377C9.58774 20.9592 9.04864 20.4201 8.76659 19.7168C8.34887 18.6635 8.44527 16.1644 8.44527 15.0005C8.44527 13.8366 8.35244 11.3339 8.76659 10.2842C9.04506 9.58444 9.58417 9.04534 10.2875 8.76329C11.3407 8.34557 13.8399 8.44197 15.0038 8.44197C16.1677 8.44197 18.6704 8.34914 19.7201 8.76329C20.4198 9.04177 20.9589 9.58087 21.241 10.2842C21.6587 11.3374 21.5623 13.8366 21.5623 15.0005C21.5623 16.1644 21.6587 18.6671 21.241 19.7168Z" fill="#45315D"/>
</svg>
