<svg width="146" height="85" viewBox="0 0 146 85" fill="none" xmlns="http://www.w3.org/2000/svg">
<g opacity="0.6">
<path d="M145 29.3614C144.085 18.8166 137.355 8.92032 127.791 4.28882C118.227 -0.341034 106.16 0.535889 97.4606 6.62555C88.7623 12.7169 83.8494 23.8177 85.3605 34.2936C85.6255 36.1331 86.1185 38.0348 87.3915 39.3938C90.5165 42.7351 96.8325 40.5227 98.4668 36.2574C100.101 31.9938 98.1528 27.0969 95.1307 23.6632C87.9993 15.561 75.0061 13.7198 65.435 18.7478C55.8623 23.7757 50.1254 34.8093 50.5795 45.5708C50.7518 49.6513 53.0327 54.7229 57.1167 54.3164C60.2941 54.0005 62.0786 50.3199 61.9706 47.1449C61.7579 40.8889 56.4447 35.5099 50.3229 34.0668C44.2011 32.6255 37.6302 34.6077 32.496 38.2263C27.3619 41.8447 23.4838 46.9534 20.1325 52.2535C15.3327 59.8449 11.4394 68.0059 8.56251 76.5079" stroke="#FF9280" stroke-width="2" stroke-linecap="round" stroke-linejoin="round" stroke-dasharray="8"/>
<path d="M5.23649 53.7553L28.2617 66.951C29.1464 67.4583 29.1447 68.7317 28.255 69.234L3.13625 83.4628C2.21608 83.9852 1.08324 83.2713 1.16427 82.2197L3.25777 54.7969C3.3304 53.8309 4.39232 53.2732 5.23649 53.7553Z" fill="white" stroke="#FF9280" stroke-width="2" stroke-linecap="round" stroke-linejoin="round"/>
</g>
</svg>
