<svg width="127" height="85" viewBox="0 0 127 85" fill="none" xmlns="http://www.w3.org/2000/svg">
<g opacity="0.6">
<path d="M-17.9634 29.3614C-17.0529 18.8166 -10.3568 8.92032 -0.840118 4.28882C8.67645 -0.341034 20.6827 0.535889 29.3393 6.62555C37.9942 12.7169 42.8827 23.8177 41.3792 34.2936C41.1155 36.1331 40.6249 38.0348 39.3582 39.3938C36.2488 42.7351 29.9643 40.5227 28.3381 36.2574C26.7119 31.9938 28.6505 27.0969 31.6576 23.6632C38.7535 15.561 51.682 13.7198 61.2054 18.7478C70.7305 23.7757 76.4388 34.8093 75.9869 45.5708C75.8155 49.6513 73.546 54.7229 69.4823 54.3164C66.3207 54.0005 64.5451 50.3199 64.6526 47.1449C64.8643 40.8889 70.1509 35.5099 76.2422 34.0668C82.3336 32.6255 88.8718 34.6077 93.9803 38.2263C99.0889 41.8447 102.948 46.9534 106.282 52.2535C111.058 59.8449 114.932 68.0059 117.795 76.5079" stroke="#FF9280" stroke-width="2" stroke-linecap="round" stroke-linejoin="round" stroke-dasharray="8"/>
<path d="M121.104 53.7553L98.1936 66.951C97.3133 67.4583 97.315 68.7317 98.2003 69.234L123.194 83.4628C124.11 83.9852 125.237 83.2713 125.156 82.2197L123.073 54.7969C123.001 53.8309 121.944 53.2732 121.104 53.7553Z" fill="white" stroke="#FF9280" stroke-width="2" stroke-linecap="round" stroke-linejoin="round"/>
</g>
</svg>
