<svg width="30" height="30" viewBox="0 0 30 30" fill="none" xmlns="http://www.w3.org/2000/svg">
<circle cx="15.0002" cy="15" r="15" fill="white"/>
<path d="M21.7077 11.5402C21.5467 10.934 21.0723 10.4565 20.47 10.2944C19.3782 10 15.0002 10 15.0002 10C15.0002 10 10.6223 10 9.53054 10.2944C8.9282 10.4565 8.4538 10.934 8.29279 11.5402C8.00024 12.6391 8.00024 14.9318 8.00024 14.9318C8.00024 14.9318 8.00024 17.2245 8.29279 18.3234C8.4538 18.9297 8.9282 19.3873 9.53054 19.5493C10.6223 19.8437 15.0002 19.8437 15.0002 19.8437C15.0002 19.8437 19.3781 19.8437 20.47 19.5493C21.0723 19.3873 21.5467 18.9297 21.7077 18.3234C22.0002 17.2245 22.0002 14.9318 22.0002 14.9318C22.0002 14.9318 22.0002 12.6391 21.7077 11.5402ZM13.5684 17.0134V12.8502L17.2275 14.9319L13.5684 17.0134Z" fill="#45315D"/>
</svg>
