<svg width="30" height="30" viewBox="0 0 30 30" fill="none" xmlns="http://www.w3.org/2000/svg">
<circle cx="15" cy="15" r="15" fill="#45315D"/>
<path d="M15.0036 10.8982C12.7329 10.8982 10.9014 12.7297 10.9014 15.0004C10.9014 17.271 12.7329 19.1026 15.0036 19.1026C17.2742 19.1026 19.1058 17.271 19.1058 15.0004C19.1058 12.7297 17.2742 10.8982 15.0036 10.8982ZM15.0036 17.6673C13.5362 17.6673 12.3366 16.4713 12.3366 15.0004C12.3366 13.5294 13.5326 12.3334 15.0036 12.3334C16.4745 12.3334 17.6705 13.5294 17.6705 15.0004C17.6705 16.4713 16.4709 17.6673 15.0036 17.6673ZM20.2304 10.7304C20.2304 11.2623 19.802 11.6872 19.2736 11.6872C18.7416 11.6872 18.3167 11.2588 18.3167 10.7304C18.3167 10.202 18.7452 9.77354 19.2736 9.77354C19.802 9.77354 20.2304 10.202 20.2304 10.7304ZM22.9473 11.7015C22.8866 10.4198 22.5939 9.28442 21.6549 8.34902C20.7195 7.41362 19.5842 7.12086 18.3025 7.0566C16.9815 6.98162 13.0221 6.98162 11.7011 7.0566C10.423 7.11729 9.28763 7.41005 8.34866 8.34545C7.40968 9.28085 7.1205 10.4162 7.05623 11.6979C6.98126 13.0189 6.98126 16.9783 7.05623 18.2993C7.11693 19.581 7.40968 20.7163 8.34866 21.6517C9.28763 22.5871 10.4194 22.8799 11.7011 22.9441C13.0221 23.0191 16.9815 23.0191 18.3025 22.9441C19.5842 22.8834 20.7195 22.5907 21.6549 21.6517C22.5903 20.7163 22.8831 19.581 22.9473 18.2993C23.0223 16.9783 23.0223 13.0225 22.9473 11.7015ZM21.2408 19.7166C20.9623 20.4164 20.4232 20.9555 19.7199 21.2376C18.6666 21.6553 16.1675 21.5589 15.0036 21.5589C13.8397 21.5589 11.3369 21.6517 10.2873 21.2376C9.58753 20.9591 9.04842 20.42 8.76637 19.7166C8.34866 18.6634 8.44505 16.1643 8.44505 15.0004C8.44505 13.8365 8.35223 11.3337 8.76637 10.2841C9.04485 9.58432 9.58396 9.04522 10.2873 8.76317C11.3405 8.34545 13.8397 8.44185 15.0036 8.44185C16.1675 8.44185 18.6702 8.34902 19.7199 8.76317C20.4196 9.04165 20.9587 9.58075 21.2408 10.2841C21.6585 11.3373 21.5621 13.8365 21.5621 15.0004C21.5621 16.1643 21.6585 18.667 21.2408 19.7166Z" fill="white"/>
</svg>
