<svg width="30" height="30" viewBox="0 0 30 30" fill="none" xmlns="http://www.w3.org/2000/svg">
<circle cx="15" cy="15" r="15" fill="#45315D"/>
<path d="M20.0512 11.834C20.0601 11.9584 20.0601 12.0827 20.0601 12.2071C20.0601 16.0002 17.173 20.3708 11.8963 20.3708C10.2707 20.3708 8.76055 19.9 7.49023 19.0828C7.72121 19.1094 7.94327 19.1183 8.18313 19.1183C9.52448 19.1183 10.7593 18.6653 11.7453 17.8924C10.4839 17.8658 9.42678 17.0396 9.06256 15.9025C9.24024 15.9292 9.41789 15.947 9.60446 15.947C9.86207 15.947 10.1197 15.9114 10.3595 15.8493C9.04482 15.5827 8.05874 14.4279 8.05874 13.0332V12.9977C8.44071 13.2109 8.88491 13.3442 9.35569 13.3619C8.58284 12.8467 8.07651 11.9672 8.07651 10.9723C8.07651 10.4393 8.21862 9.95074 8.46737 9.52434C9.87981 11.2655 12.0029 12.4025 14.3836 12.5269C14.3392 12.3137 14.3126 12.0916 14.3126 11.8695C14.3126 10.2883 15.5918 9.00024 17.1819 9.00024C18.008 9.00024 18.7542 9.34669 19.2783 9.90634C19.9268 9.78198 20.5486 9.54212 21.0994 9.21344C20.8862 9.8797 20.4331 10.4394 19.838 10.7947C20.4154 10.7325 20.975 10.5726 21.4902 10.3505C21.0994 10.919 20.6108 11.4253 20.0512 11.834Z" fill="white"/>
</svg>
