<svg width="30" height="30" viewBox="0 0 30 30" fill="none" xmlns="http://www.w3.org/2000/svg">
<circle cx="15" cy="15" r="15" fill="#45315D"/>
<path d="M21.7075 11.5402C21.5464 10.934 21.072 10.4565 20.4697 10.2944C19.3779 10 15 10 15 10C15 10 10.6221 10 9.53029 10.2944C8.92795 10.4565 8.45356 10.934 8.29254 11.5402C8 12.6391 8 14.9318 8 14.9318C8 14.9318 8 17.2245 8.29254 18.3234C8.45356 18.9297 8.92795 19.3873 9.53029 19.5493C10.6221 19.8437 15 19.8437 15 19.8437C15 19.8437 19.3779 19.8437 20.4697 19.5493C21.072 19.3873 21.5464 18.9297 21.7075 18.3234C22 17.2245 22 14.9318 22 14.9318C22 14.9318 22 12.6391 21.7075 11.5402ZM13.5682 17.0134V12.8502L17.2272 14.9319L13.5682 17.0134Z" fill="white"/>
</svg>
