<svg width="92" height="93" viewBox="0 0 92 93" fill="none" xmlns="http://www.w3.org/2000/svg">
<circle cx="44" cy="49" r="44" fill="#9367C7"/>
<circle cx="48" cy="44" r="44" fill="#E2E2E2"/>
<path d="M20.5 30C20.5 24.201 25.201 19.5 31 19.5H60C65.799 19.5 70.5 24.201 70.5 30V62C70.5 67.799 65.799 72.5 60 72.5H31C25.201 72.5 20.5 67.799 20.5 62V30Z" stroke="#45315D"/>
<path d="M58.676 46.4434H51.7122C51.085 46.4434 50.5745 45.9331 50.5745 45.3054V41.2013H46.4707C45.8433 41.2013 45.333 40.6909 45.333 40.0632V33.0991C45.333 32.4716 45.8433 31.9612 46.4707 31.9612H50.5745V27.8569C50.5745 27.2294 51.085 26.719 51.7122 26.719H58.676C59.3035 26.719 59.8135 27.2294 59.8135 27.8569V31.9612H63.9175C64.5449 31.9612 65.0552 32.4716 65.0552 33.0991V40.0632C65.0552 40.6909 64.5449 41.2013 63.9175 41.2013H59.8135V45.3054C59.8135 45.9331 59.3035 46.4434 58.676 46.4434ZM52.616 44.4021H57.7722V40.2979C57.7722 39.6703 58.2827 39.1599 58.9097 39.1599H63.0139V34.0026H58.9097C58.2827 34.0026 57.7722 33.4922 57.7722 32.8645V28.7603H52.616V32.8645C52.616 33.4922 52.1055 34.0026 51.4783 34.0026H47.3743V39.1599H51.4783C52.1055 39.1599 52.616 39.6703 52.616 40.2979V44.4021Z" fill="#9367C7"/>
<path d="M63.9175 34.0026H63.9307M58.676 46.4434H51.7122C51.085 46.4434 50.5745 45.9331 50.5745 45.3054V41.2013H46.4707C45.8433 41.2013 45.333 40.6909 45.333 40.0632V33.0991C45.333 32.4716 45.8433 31.9612 46.4707 31.9612H50.5745V27.8569C50.5745 27.2294 51.085 26.719 51.7122 26.719H58.676C59.3035 26.719 59.8135 27.2294 59.8135 27.8569V31.9612H63.9175C64.5449 31.9612 65.0552 32.4716 65.0552 33.0991V40.0632C65.0552 40.6909 64.5449 41.2013 63.9175 41.2013H59.8135V45.3054C59.8135 45.9331 59.3035 46.4434 58.676 46.4434ZM52.616 44.4021H57.7722V40.2979C57.7722 39.6703 58.2827 39.1599 58.9097 39.1599H63.0139V34.0026H58.9097C58.2827 34.0026 57.7722 33.4922 57.7722 32.8645V28.7603H52.616V32.8645C52.616 33.4922 52.1055 34.0026 51.4783 34.0026H47.3743V39.1599H51.4783C52.1055 39.1599 52.616 39.6703 52.616 40.2979V44.4021Z" stroke="#45315D"/>
<path d="M54.7161 65.7039C52.8237 65.7039 50.7034 65.0914 48.4764 63.864C40.033 58.6392 33.1366 51.7423 27.9366 43.3413C25.3047 38.4202 25.3613 34.734 28.0767 32.0165L30.6908 29.403C31.7869 28.3063 33.5706 28.3063 34.6674 29.403L39.8718 34.6085C40.7465 35.4811 41.0749 36.7622 40.7278 37.95L39.7136 41.4259C39.5688 41.9231 39.7062 42.4586 40.072 42.8251L48.9534 51.7064C49.3183 52.0703 49.8528 52.2113 50.3477 52.0653L53.8469 51.0555C55.0319 50.7147 56.3086 51.0415 57.1795 51.9152L62.3718 57.1082C63.4677 58.2035 63.4677 59.9883 62.3718 61.0837L59.7577 63.6974C58.421 65.0337 56.6933 65.7039 54.7161 65.7039ZM32.6794 30.5482C32.4632 30.5482 32.2468 30.6304 32.0823 30.7943L29.4686 33.4081C27.4188 35.4592 27.4737 38.3035 29.6412 42.3599C34.6481 50.4458 41.33 57.1273 49.4693 62.165C51.1913 63.1132 55.5949 65.076 58.3661 62.306L60.9803 59.6924C61.309 59.363 61.309 58.8287 60.9803 58.4995L55.7878 53.3068C55.4229 52.9415 54.888 52.807 54.3921 52.9467L50.8945 53.9564C49.7103 54.2997 48.4332 53.9703 47.5617 53.0979L38.6806 44.2163C37.8064 43.3427 37.4783 42.0627 37.8245 40.875L38.8388 37.3989C38.9838 36.9019 38.8467 36.3663 38.4811 36.0012L33.2762 30.7943C33.1113 30.6304 32.8951 30.5482 32.6794 30.5482Z" fill="#9367C7" stroke="#45315D"/>
</svg>
