<svg width="92" height="93" viewBox="0 0 92 93" fill="none" xmlns="http://www.w3.org/2000/svg">
<circle cx="44" cy="49" r="44" fill="#9367C7"/>
<circle cx="48" cy="44" r="44" fill="#E2E2E2"/>
<path d="M30.1758 16.5H66.0448C70.8363 16.5 74.7206 20.3843 74.7206 25.1758V63.5473C74.7206 68.3388 70.8363 72.2231 66.0448 72.2231H30.1758C25.3843 72.2231 21.5 68.3388 21.5 63.5473V25.1758C21.5 20.3843 25.3843 16.5 30.1758 16.5Z" stroke="#45315D"/>
<circle cx="50.3462" cy="41.4036" r="3.03526" transform="rotate(-45 50.3462 41.4036)" stroke="#45315D" stroke-width="2"/>
<path d="M54.3499 46.6421V50.0388C54.3499 50.0388 53.6614 50.2603 52.6472 50.4937L52.446 50.5398C51.3455 50.7832 49.9146 51.0247 48.5686 51.0247C47.3433 51.0247 46.0493 50.8254 44.9951 50.604L44.7937 50.562C43.6169 50.3064 42.7876 50.0388 42.7876 50.0388V46.6421C42.7876 44.8372 44.2505 43.3723 46.0554 43.3723L48.5686 45.0483L51.0798 43.3723C52.8867 43.3723 54.3499 44.8372 54.3499 46.6421Z" stroke="#45315D" stroke-width="2"/>
<line x1="45.8877" y1="47.7286" x2="45.8877" y2="49.5854" stroke="#45315D" stroke-width="2" stroke-linecap="round" stroke-linejoin="round"/>
<line x1="53.2637" y1="47.6566" x2="53.2637" y2="49.5133" stroke="#45315D" stroke-width="2" stroke-linecap="round" stroke-linejoin="round"/>
<circle cx="48.5683" cy="43.8075" r="11.0014" stroke="#45315D" stroke-width="2" stroke-linecap="round"/>
<line x1="38.9419" y1="51.1807" x2="34.8306" y2="55.292" stroke="#45315D" stroke-width="2" stroke-linecap="round"/>
<line x1="58.6896" y1="50.6003" x2="62.5741" y2="54.0532" stroke="#45315D" stroke-width="2" stroke-linecap="round"/>
<line x1="37.5279" y1="37.8483" x2="33.4414" y2="33.7618" stroke="#45315D" stroke-width="2" stroke-linecap="round"/>
<line x1="57.3609" y1="34.603" x2="61.2477" y2="31.1481" stroke="#45315D" stroke-width="2" stroke-linecap="round"/>
<circle cx="32.8392" cy="31.7454" r="3.66715" transform="rotate(-45 32.8392 31.7454)" fill="#9367C7" stroke="#45315D" stroke-width="2" stroke-linecap="round"/>
<path d="M65.529 25.0133C65.531 25.0133 65.533 25.0133 65.529 25.0133C67.5576 25.0166 69.1961 26.6572 69.1961 28.6805C69.1961 30.7058 67.5543 32.3476 65.529 32.3476C63.5037 32.3476 61.8618 30.7058 61.8618 28.6805C61.8618 26.6551 63.5037 25.0133 65.529 25.0133Z" fill="#9367C7"/>
<path d="M65.529 25.0133C65.531 25.0133 65.533 25.0133 65.529 25.0133ZM65.529 25.0133C67.5576 25.0166 69.1961 26.6572 69.1961 28.6805C69.1961 30.7058 67.5543 32.3476 65.529 32.3476C63.5037 32.3476 61.8618 30.7058 61.8618 28.6805C61.8618 26.6551 63.5037 25.0133 65.529 25.0133Z" stroke="#45315D" stroke-width="2" stroke-linecap="round"/>
<circle cx="67.6771" cy="60.1658" r="3.66715" transform="rotate(-45 67.6771 60.1658)" fill="#9367C7" stroke="#45315D" stroke-width="2" stroke-linecap="round"/>
<circle cx="32.8392" cy="60.1658" r="3.66715" transform="rotate(-45 32.8392 60.1658)" fill="#9367C7" stroke="#45315D" stroke-width="2" stroke-linecap="round"/>
</svg>
