<svg width="92" height="93" viewBox="0 0 92 93" fill="none" xmlns="http://www.w3.org/2000/svg">
<circle cx="44" cy="49" r="44" fill="#9367C7"/>
<circle cx="48" cy="44" r="44" fill="#E2E2E2"/>
<path d="M29.2228 20.178H63.7772C68.383 20.178 72.1167 23.9117 72.1167 28.5175V65.4827C72.1167 70.0884 68.383 73.8222 63.7772 73.8222H29.2228C24.617 73.8222 20.8833 70.0884 20.8833 65.4827V28.5175C20.8833 23.9117 24.617 20.178 29.2228 20.178Z" stroke="#45315D"/>
<path d="M59.7 56.3247C59.4373 52.8899 58.4778 50.5166 56.7671 49.0703C55.2823 47.8149 53.4876 47.4597 51.9038 47.1465C51.156 46.9983 50.4493 46.8584 49.8592 46.6375C48.9331 46.2908 48.4173 45.7781 48.2041 44.9854C48.8489 44.5454 49.4837 43.9683 50.0923 43.2678C50.7386 42.5244 51.3235 41.6794 51.8306 40.7559C52.3575 39.7966 52.7781 38.793 53.0804 37.7727C53.4029 36.6838 53.5818 35.603 53.6123 34.5605C53.7029 31.4333 52.461 28.8245 50.0208 27.0159C47.8377 25.3982 45.74 25.3525 45.0506 25.3374C44.9773 25.3357 44.9012 25.334 44.8785 25.3308L44.8496 25.3264L44.8206 25.3306C44.8035 25.3328 44.7388 25.3337 44.6814 25.3345C44.3223 25.3391 43.4815 25.3499 42.4114 25.6582C41.0779 26.0425 39.8575 26.7505 38.784 27.7625C36.7825 29.6501 35.865 32.2351 36.1307 35.2375C36.3023 37.1768 36.9554 39.1802 38.0201 41.031C38.9908 42.718 40.22 44.1165 41.4942 44.9854C41.2815 45.7781 40.7654 46.2908 39.8394 46.6375C39.2488 46.8584 38.5423 46.9983 37.794 47.1465C36.2232 47.4573 34.4434 47.8096 32.9654 49.0415C31.262 50.4617 30.2959 52.7869 30.0122 56.1506L30.0096 56.186C29.9971 56.3301 29.9893 56.4253 29.9932 56.5525C30.0096 57.0972 30.2349 57.6072 30.6272 57.9888C31.021 58.3718 31.5406 58.5828 32.0904 58.5828H42.47L42.4727 57.8049L42.4778 56.3867C42.4869 53.9653 42.4942 51.8013 42.4942 51.7778C42.4971 51.1672 42.7337 50.5918 43.1614 50.1575C43.6004 49.7117 44.1929 49.4663 44.8294 49.4663C44.8423 49.4663 44.854 49.4663 44.8645 49.4663H44.8682L44.8799 49.4668C45.4956 49.469 46.0752 49.7104 46.5108 50.1462C46.7254 50.3608 46.8933 50.6111 47.0105 50.8904C47.198 51.3381 47.1941 51.6909 47.1902 52.032V52.0339C47.19 52.0767 47.1895 52.1211 47.189 52.168L47.1809 54.5688C47.3421 54.5342 47.5081 54.5159 47.6753 54.5159H47.6765H47.6853C47.9832 54.5173 48.314 54.5437 48.7115 54.7261C48.9615 54.8408 49.1868 54.9976 49.3809 55.1917C49.4041 55.2146 49.4273 55.2388 49.4515 55.2659C49.6082 55.4373 49.7369 55.6292 49.8345 55.8345C50.0755 55.7524 50.3301 55.7092 50.5882 55.7092C51.2154 55.7092 51.805 55.9536 52.2483 56.3972C52.4258 56.575 52.5713 56.7759 52.6824 56.9932C52.9346 56.9038 53.2034 56.8567 53.4768 56.8567C54.0984 56.8567 54.6851 57.1008 55.1289 57.5449C55.2298 57.6458 55.3228 57.7571 55.4043 57.8765C55.5537 58.0942 55.6646 58.3323 55.7332 58.5828H57.6082C58.1946 58.5828 58.7588 58.334 59.1563 57.9011C59.5506 57.4714 59.7488 56.8967 59.7 56.3247Z" fill="#9367C7"/>
<path d="M55.0781 66.782C55.1016 66.2549 55.1016 66.2549 55.1123 63.0168C55.1157 62.062 55.1196 60.8254 55.1255 59.2109C55.127 58.8733 55.0259 58.5471 54.8345 58.2683C54.7764 58.1836 54.7114 58.105 54.6401 58.0339C54.3267 57.7207 53.9141 57.5481 53.4775 57.5481C53.0024 57.5481 52.5571 57.7458 52.2451 58.0852C52.2451 58.05 52.2451 58.0474 52.2451 58.0415L52.2446 58.0383C52.2402 57.6038 52.0679 57.1946 51.7593 56.8865C51.4468 56.5732 51.0308 56.4006 50.5884 56.4006C50.1113 56.4006 49.6714 56.6074 49.3652 56.9424L49.3657 56.8303C49.3667 56.4229 49.2163 56.033 48.9419 55.7329C48.9243 55.7136 48.9082 55.6965 48.8926 55.6809C48.7564 55.5447 48.5986 55.4351 48.4229 55.3547C48.1314 55.2207 47.897 55.2085 47.6821 55.2078H47.6758C47.294 55.2078 46.9243 55.3403 46.6348 55.5811C46.5815 55.6252 46.5317 55.6726 46.4854 55.7227L46.4981 52.166C46.4981 52.1162 46.499 52.0691 46.499 52.0242C46.5029 51.7168 46.5054 51.4736 46.3726 51.1582C46.2905 50.9622 46.1724 50.7864 46.022 50.6355C45.7158 50.3293 45.3091 50.1594 44.877 50.1582H44.8633C44.853 50.1582 44.8418 50.1577 44.8296 50.1577C44.3799 50.1577 43.9624 50.3303 43.6543 50.6428C43.354 50.9478 43.1875 51.3518 43.1865 51.7805C43.186 51.8083 43.1748 54.884 43.1646 57.8079L43.1563 60.1223C43.1523 61.2361 43.1484 62.1602 43.147 62.6416C42.4795 62.2219 41.1392 61.3582 41.0181 61.2759C40.7305 61.0312 40.3652 60.897 39.9883 60.897C39.582 60.897 39.1939 61.0508 38.8955 61.3303C38.5679 61.6382 38.3784 62.0669 38.3765 62.5073C38.3755 62.9329 38.54 63.3337 38.8428 63.6357C38.8491 63.6421 38.9185 63.7102 39.0361 63.8262C39.4898 64.2737 40.6958 65.4612 41.7075 66.4639C42.148 66.8997 42.502 67.2522 42.7617 67.512C43.2007 67.9509 43.2808 68.0371 43.2949 68.0537C43.4204 68.2034 43.5547 68.3491 43.6924 68.4868C44.3179 69.1125 45.0474 69.6035 45.8599 69.9463C46.6895 70.2954 47.5693 70.4744 48.4731 70.4775C48.5205 70.4778 51.3633 70.4878 51.3696 70.4878C52.3301 70.4878 53.2422 70.1243 53.939 69.4639C54.6279 68.8096 55.0288 67.9419 55.0679 67.0203C55.0718 66.9268 55.0747 66.8496 55.0781 66.782Z" fill="#9367C7"/>
<path d="M61.5045 55.1538C61.2267 51.5259 60.1878 48.9988 58.3287 47.4268C57.5995 46.8101 56.7435 46.3386 55.7118 45.9856C54.8356 45.6855 53.942 45.5085 53.1534 45.3525C52.4342 45.2102 51.7543 45.0757 51.2169 44.8745C50.6937 44.6787 50.3627 44.4438 50.1617 44.1106C50.6983 43.6924 51.224 43.1882 51.7298 42.6062C52.4083 41.8257 53.0213 40.9399 53.5521 39.9736C54.1029 38.9709 54.5426 37.9211 54.8587 36.8538C55.1983 35.7075 55.3866 34.5674 55.4188 33.4653C55.4669 31.7983 55.16 30.2561 54.5052 28.8811C53.8495 27.5029 52.8541 26.313 51.548 25.345C50.5426 24.6001 49.4347 24.0764 48.255 23.7886C47.2982 23.5552 46.5438 23.5388 46.1813 23.5308C46.149 23.53 46.0987 23.5288 46.0716 23.5278L46.0685 23.5273L45.9667 23.512L45.8685 23.5264C45.8453 23.5269 45.8097 23.5273 45.7879 23.5276C45.4012 23.5327 44.495 23.5442 43.3356 23.8784C41.8949 24.2935 40.5792 25.0557 39.4252 26.144C38.3482 27.1594 37.5563 28.3677 37.0709 29.7354C36.589 31.0928 36.4161 32.5891 36.557 34.1831C36.7374 36.2217 37.4217 38.3232 38.536 40.2605C39.0416 41.1394 39.6146 41.9453 40.2391 42.656C40.7306 43.2153 41.243 43.7031 41.7672 44.1108C41.5665 44.4441 41.2355 44.6787 40.7125 44.8745C40.1744 45.0759 39.4947 45.2104 38.775 45.3528C37.9933 45.5076 37.1073 45.6829 36.2377 45.9785C35.2145 46.3267 34.3639 46.79 33.638 47.395C31.7853 48.9395 30.7386 51.4194 30.4391 54.9771L30.4359 55.0125C30.4227 55.1682 30.4122 55.291 30.4173 55.458C30.4391 56.1833 30.7386 56.8621 31.2606 57.3694C31.7845 57.8784 32.475 58.1587 33.2054 58.1587H43.5831L43.5799 59.0042L43.5753 60.269C43.1017 59.9648 42.6669 59.6841 42.5477 59.6055C42.1405 59.2727 41.6295 59.0901 41.1034 59.0901C40.5206 59.0901 39.9652 59.3105 39.5382 59.7107C39.0716 60.1477 38.8028 60.7595 38.8006 61.3892C38.7982 62.0005 39.0357 62.5759 39.4691 63.0093C39.4747 63.0149 39.4908 63.031 39.6661 63.2036C40.1195 63.6501 41.3241 64.8372 42.3363 65.8396C42.7745 66.2739 43.1285 66.6257 43.3883 66.8855C43.776 67.2732 43.8678 67.3696 43.8873 67.3909C44.0238 67.5527 44.1691 67.7109 44.3187 67.8606C45.0077 68.5496 45.8111 69.0903 46.7069 69.4678C47.6212 69.853 48.5897 70.05 49.5863 70.0537C49.6324 70.054 52.4779 70.0642 52.4852 70.0642C53.6232 70.0642 54.7045 69.6331 55.5299 68.8499C56.35 68.0718 56.8273 67.0361 56.8736 65.9336C56.8775 65.8408 56.8812 65.7649 56.8841 65.698C56.9086 65.156 56.9086 65.156 56.9193 61.9033V61.8958C56.9225 60.9543 56.9264 59.739 56.9322 58.1587H58.7237C59.503 58.1587 60.2528 57.8289 60.7809 57.2532C61.3053 56.6824 61.569 55.9172 61.5045 55.1538ZM56.2279 61.9011C56.2171 65.1394 56.2171 65.1394 56.1932 65.6665C56.1903 65.7344 56.1869 65.811 56.183 65.9048C56.1441 66.8267 55.7433 67.6943 55.0538 68.3484C54.3575 69.0088 53.4452 69.3728 52.4852 69.3728C52.4781 69.3728 49.6356 69.3623 49.5885 69.3623C48.6842 69.3589 47.805 69.1799 46.9754 68.8303C46.1625 68.488 45.4332 67.9971 44.8077 67.3716C44.67 67.2336 44.536 67.0879 44.4103 66.9382C44.3963 66.9216 44.3163 66.8357 43.8771 66.3965C43.6175 66.137 43.2628 65.7842 42.8229 65.3484C41.8109 64.3459 40.6053 63.1582 40.1515 62.7109C40.0336 62.595 39.9642 62.5264 39.9581 62.5205C39.6559 62.2183 39.4903 61.8174 39.4918 61.3918C39.4935 60.9514 39.6827 60.5227 40.0108 60.2151C40.3089 59.9355 40.6971 59.7815 41.1031 59.7815C41.4803 59.7815 41.8461 59.916 42.1336 60.1604C42.2547 60.2427 43.5946 61.1062 44.2623 61.5266C44.2638 61.0447 44.2674 60.1206 44.2713 59.0066L44.2796 56.6924C44.2901 53.7686 44.3014 50.6931 44.3014 50.665C44.3031 50.2363 44.4693 49.8323 44.7696 49.5276C45.0775 49.2148 45.495 49.0425 45.9449 49.0425C45.9574 49.0425 45.9686 49.0427 45.9791 49.0427H45.992C46.4244 49.0444 46.8312 49.2139 47.1373 49.52C47.2879 49.6707 47.4059 49.8464 47.4884 50.0425C47.6207 50.3582 47.6178 50.6013 47.6144 50.9089C47.6136 50.9536 47.6134 51.0005 47.6131 51.0503L47.6004 54.6074C47.6471 54.5571 47.6971 54.5098 47.7499 54.4656C48.0392 54.2249 48.409 54.092 48.7909 54.092H48.7977C49.0128 54.093 49.2462 54.1052 49.5384 54.2393C49.7132 54.3196 49.8712 54.4294 50.0072 54.5654C50.0231 54.5813 50.0394 54.5981 50.0567 54.6174C50.3316 54.9175 50.482 55.3074 50.4806 55.7148L50.4803 55.8267C50.7865 55.4919 51.2259 55.2854 51.7037 55.2854C52.1456 55.2854 52.5619 55.4578 52.8749 55.771C53.183 56.0791 53.3553 56.4883 53.3605 56.9226V56.9263C53.3605 56.9316 53.3607 56.9346 53.3605 56.9697C53.6725 56.6301 54.118 56.4329 54.5926 56.4329C55.0292 56.4329 55.442 56.6052 55.7552 56.9185C55.8265 56.9895 55.8917 57.0684 55.9498 57.1528C56.1412 57.4316 56.242 57.7576 56.2408 58.0957C56.235 59.7102 56.2311 60.9468 56.2279 61.9011ZM60.2716 56.7856C59.8739 57.2188 59.3097 57.4673 58.7237 57.4673H56.8485C56.7794 57.217 56.6695 56.979 56.5196 56.7612C56.4378 56.6421 56.3451 56.5303 56.2442 56.4297C55.8004 55.9856 55.2137 55.7412 54.5926 55.7412C54.3192 55.7412 54.0504 55.7886 53.7977 55.8779C53.6869 55.6604 53.5414 55.4595 53.3639 55.282C52.92 54.8381 52.3307 54.594 51.704 54.594C51.4454 54.594 51.1908 54.637 50.9501 54.7192C50.8522 54.5137 50.7237 54.3218 50.567 54.1504C50.5423 54.1235 50.5191 54.0994 50.4964 54.0764C50.3021 53.8823 50.0768 53.7256 49.827 53.6108C49.4291 53.4282 49.0985 53.4019 48.8006 53.4006H48.7933H48.7919C48.6244 53.4006 48.4576 53.4187 48.296 53.4536L48.3048 51.0527C48.305 51.0059 48.305 50.9612 48.3058 50.9187V50.9167C48.3097 50.5757 48.3138 50.2229 48.1258 49.7751C48.0089 49.4958 47.8407 49.2456 47.6261 49.031C47.1903 48.595 46.6109 48.3535 45.9952 48.3513L45.9835 48.3511H45.9803C45.9693 48.3511 45.9579 48.3511 45.9449 48.3511C45.3085 48.3511 44.7159 48.5964 44.277 49.0422C43.849 49.4766 43.6122 50.052 43.61 50.6624C43.6097 50.686 43.6019 52.8501 43.5931 55.2715L43.5882 56.6899L43.5853 57.4673H33.2054C32.6561 57.4673 32.1366 57.2563 31.7425 56.8735C31.35 56.4919 31.1249 55.9819 31.1085 55.437C31.1046 55.3101 31.1127 55.2148 31.1249 55.0708L31.128 55.0352C31.4115 51.6716 32.3773 49.3462 34.0807 47.9263C35.5587 46.6943 37.339 46.342 38.9095 46.0312C39.6576 45.8831 40.3641 45.7432 40.9547 45.5222C41.881 45.1755 42.3966 44.6628 42.6097 43.8699C41.3356 43.001 40.1061 41.6028 39.1354 39.9158C38.0709 38.0649 37.4171 36.0615 37.2457 34.1221C36.9803 31.1196 37.8978 28.5349 39.8995 26.6472C40.9728 25.6353 42.1932 24.9272 43.527 24.543C44.5968 24.2346 45.4378 24.2236 45.797 24.219C45.8541 24.2185 45.9188 24.2175 45.9361 24.2153L45.9652 24.2112L45.9938 24.2153C46.0165 24.2188 46.0926 24.2205 46.1661 24.2219C46.8556 24.2371 48.9532 24.283 51.1358 25.9006C53.5765 27.709 54.8182 30.3179 54.7276 33.4453C54.6971 34.4878 54.5184 35.5686 54.1957 36.6575C53.8937 37.6775 53.473 38.6812 52.9461 39.6406C52.4388 40.5642 51.8539 41.4092 51.2079 42.1523C50.5992 42.853 49.9642 43.4302 49.3197 43.8699C49.5326 44.6628 50.0484 45.1755 50.9747 45.5222C51.5648 45.7432 52.2713 45.8828 53.0191 46.031C54.6029 46.3442 56.3976 46.6995 57.8824 47.9548C59.5934 49.4014 60.5526 51.7747 60.8155 55.2097C60.8641 55.7815 60.6661 56.356 60.2716 56.7856Z" fill="#45315D"/>
</svg>
