<svg width="225" height="366" viewBox="0 0 225 366" fill="none" xmlns="http://www.w3.org/2000/svg">
<g opacity="0.22">
<g style="mix-blend-mode:multiply">
<path d="M165.921 303.253H167.104L167.264 302.081C167.796 298.191 168.305 294.799 168.755 291.807C170.816 278.092 171.668 272.415 167.47 265.817C163.15 259.029 157.155 254.757 151.358 250.626C145.237 246.265 138.907 241.756 134.577 234.226C130.419 226.999 130.631 219.014 135.13 213.388C140.508 206.662 150.58 204.772 162.079 208.332C168.943 210.462 173.41 212.733 176.671 214.391C186.278 219.274 186.979 218.194 198.661 200.087C199.869 198.216 201.201 196.151 202.679 193.878L203.335 192.871L202.415 192.099C178.34 171.929 148.854 165.7 123.532 175.435C105.005 182.557 92.5274 196.922 90.1509 213.862C87.4503 233.12 98.1834 252.933 120.375 269.652C134.795 280.526 134.165 287.929 133.749 292.827C133.544 295.228 133.351 297.497 134.996 299.287C137.753 302.289 145.268 303.253 165.921 303.253ZM151.186 203.855C143.563 203.855 137.133 206.542 133.013 211.695C127.801 218.211 127.5 227.362 132.226 235.578C136.853 243.621 143.427 248.305 149.784 252.834C155.628 256.998 161.146 260.929 165.182 267.273C168.837 273.015 168.084 278.022 166.075 291.404C165.669 294.1 165.214 297.124 164.74 300.54C146.804 300.505 138.99 299.629 136.992 297.454C136.192 296.58 136.254 295.346 136.451 293.058C136.918 287.565 137.625 279.262 122.007 267.487C100.637 251.387 90.2783 232.476 92.8365 214.238C95.0734 198.289 106.911 184.728 124.506 177.965C148.569 168.712 176.616 174.493 199.748 193.413C198.528 195.293 197.411 197.025 196.383 198.617C190.811 207.252 187.742 212.008 185.439 213.583C183.653 214.8 182.209 214.165 177.9 211.975C174.551 210.272 169.966 207.941 162.881 205.743C158.791 204.475 154.85 203.855 151.186 203.855Z" fill="#45315D"/>
</g>
<g style="mix-blend-mode:multiply">
<path d="M153.032 359.171C163.619 359.171 175.012 352.475 175.012 337.776C175.012 323.118 163.619 316.441 153.031 316.441C142.045 316.441 130.923 323.77 130.923 337.776C130.923 344.363 133.33 349.912 137.885 353.823C141.9 357.272 147.278 359.171 153.032 359.171ZM153.031 319.152C162.312 319.152 172.301 324.98 172.301 337.776C172.301 350.613 162.312 356.46 153.032 356.46C143.69 356.46 133.635 350.613 133.635 337.776C133.635 324.98 143.69 319.152 153.031 319.152Z" fill="#45315D"/>
</g>
<g style="mix-blend-mode:multiply">
<path d="M165.921 309.108H172.212L173.066 302.874C173.571 299.179 174.056 295.935 174.487 293.061L174.547 292.67C176.701 278.322 177.784 271.12 172.409 262.673C172.009 262.042 171.597 261.434 171.175 260.843L168.967 262.416C169.361 262.97 169.746 263.539 170.122 264.127C174.952 271.721 173.921 278.587 171.864 292.268L171.806 292.658C171.373 295.544 170.885 298.798 170.378 302.507L169.848 306.397H165.921C143.686 306.397 136.231 305.28 132.68 301.414C131.312 299.926 130.618 298.181 130.494 295.924L127.788 296.072C127.946 298.951 128.893 301.298 130.683 303.247C134.959 307.904 142.204 309.108 165.921 309.108Z" fill="#9367C7"/>
<path d="M134.815 225.348L137.511 225.051C137.46 224.595 137.436 224.144 137.436 223.697C137.436 221.732 137.91 219.914 138.849 218.294C141.224 214.188 146.466 212.029 152.904 212.47L153.089 209.765C145.555 209.249 139.411 211.91 136.502 216.936C135.322 218.973 134.725 221.248 134.725 223.697C134.725 224.24 134.754 224.796 134.815 225.348Z" fill="#9367C7"/>
<path d="M183.633 222.769C190.991 222.769 194.419 217.46 203.576 203.272L203.651 203.155C204.836 201.318 206.141 199.295 207.588 197.072L211.073 191.716L206.175 187.612C194.542 177.865 181.893 171.177 168.578 167.735L167.9 170.361C180.821 173.7 193.112 180.204 204.433 189.69L207.49 192.251L205.316 195.593C203.868 197.819 202.56 199.846 201.373 201.684L202.436 202.537L201.297 201.801C192.484 215.458 189.515 220.058 183.633 220.058C181.546 220.058 179.643 219.349 177.429 218.285L176.252 220.728C178.802 221.953 181.033 222.769 183.633 222.769Z" fill="#9367C7"/>
<path d="M99.2814 257.887L101.36 256.146C91.6787 244.582 86.5595 232.007 86.5595 219.78C86.5595 216.574 86.9093 213.348 87.5994 210.198L84.9517 209.618C84.2196 212.959 83.8481 216.378 83.8481 219.78C83.8481 232.652 89.1855 245.828 99.2814 257.887Z" fill="#9367C7"/>
</g>
<g style="mix-blend-mode:multiply">
<path d="M152.903 365.026H153.03C166.864 365.026 180.867 355.667 180.867 337.777C180.867 334.488 180.38 331.364 179.424 328.492L176.851 329.347C177.716 331.945 178.156 334.781 178.156 337.777C178.156 353.887 165.515 362.315 153.03 362.315L152.903 365.026ZM127.966 350.553L130.384 349.326C128.655 345.919 127.779 342.032 127.779 337.777C127.779 332.21 129.261 327.341 132.185 323.305L129.99 321.715C126.723 326.222 125.068 331.627 125.068 337.777C125.068 342.464 126.043 346.762 127.966 350.553Z" fill="#9367C7"/>
</g>
<g style="mix-blend-mode:multiply">
<path d="M51.6914 209.569H52.875L53.0363 208.397C53.3508 206.087 53.6531 204.073 53.9202 202.297C55.1647 194.008 55.6813 190.577 53.0756 186.484C50.451 182.361 46.8462 179.792 43.3593 177.307C39.6054 174.633 36.0616 172.108 33.5495 167.739C31.1933 163.646 31.3018 159.14 33.8302 155.978C36.8791 152.166 42.6422 151.114 49.2471 153.157C53.2776 154.407 55.909 155.745 57.8287 156.721C63.9767 159.847 64.6993 158.73 71.6052 148.028C72.3211 146.918 73.1114 145.692 73.9899 144.345L74.6447 143.338L73.7242 142.566C59.2698 130.454 41.5414 126.72 26.3128 132.575C15.1175 136.878 7.57438 145.576 6.13464 155.84C4.5024 167.487 10.9541 179.44 24.3023 189.498C32.6264 195.775 32.2819 199.823 32.0312 202.779C31.9051 204.261 31.7749 205.793 32.9151 207.035C34.6978 208.978 39.0862 209.569 51.6914 209.569ZM42.9364 149.421C38.2402 149.421 34.268 151.088 31.7126 154.285C28.4738 158.336 28.2759 164.011 31.1974 169.09C34.0064 173.972 37.9623 176.791 41.7867 179.516C45.2112 181.956 48.4486 184.262 50.7872 187.939C52.8492 191.176 52.4113 194.095 51.24 201.894C51.0163 203.373 50.7709 205.016 50.5107 206.856C43.3417 206.834 36.1823 206.585 34.912 205.201C34.592 204.852 34.6314 204.21 34.733 203.009C35.0028 199.831 35.4556 194.511 25.9346 187.333C13.408 177.894 7.33036 166.844 8.82028 156.215C10.1204 146.942 17.0236 139.05 27.2862 135.106C41.2634 129.731 57.5453 133.018 71.0562 143.884C70.4353 144.841 69.8605 145.732 69.3263 146.559C66.0551 151.629 64.2519 154.422 62.9763 155.295C62.2021 155.824 61.63 155.612 59.057 154.304C57.0505 153.283 54.3025 151.887 50.0497 150.566C47.5647 149.798 45.1678 149.421 42.9364 149.421Z" fill="#616161"/>
</g>
<g style="mix-blend-mode:multiply">
<path d="M44.0345 242.787C50.7967 242.787 57.643 238.232 57.643 229.527C57.643 220.845 50.7967 216.302 44.0345 216.302C37.2343 216.302 30.3501 220.845 30.3501 229.527C30.3501 238.232 37.2343 242.787 44.0345 242.787ZM44.0345 219.014C49.2824 219.014 54.9316 222.303 54.9316 229.527C54.9316 236.775 49.2824 240.076 44.0345 240.076C38.75 240.076 33.0615 236.775 33.0615 229.527C33.0615 222.303 38.75 219.014 44.0345 219.014Z" fill="#616161"/>
</g>
<g style="mix-blend-mode:multiply">
<path d="M51.6912 215.424H57.983L58.837 209.191C59.1434 206.95 59.4362 204.992 59.6952 203.261C61.0116 194.511 61.7965 189.284 58.0155 183.342C54.7795 178.255 50.5185 175.22 46.7592 172.541L45.4645 171.613L43.8783 173.812L45.1825 174.746C48.7439 177.284 52.7757 180.157 55.7271 184.796C58.9645 189.883 58.3164 194.19 57.0272 202.769C56.7533 204.6 56.4578 206.57 56.1501 208.823L55.6187 212.713H51.6912C39.1171 212.713 33.4083 212.219 30.5993 209.162C28.5251 206.904 28.7501 204.261 28.8979 202.512C29.1378 199.684 28.845 196.968 22.8135 192.315L21.1582 194.462C26.5091 198.59 26.3505 200.467 26.1973 202.281C26.0305 204.231 25.7215 207.861 28.6023 210.996C32.0553 214.756 37.6543 215.424 51.6912 215.424Z" fill="#BCA2A2"/>
<path d="M35.279 163.825L37.8928 163.106C37.7667 162.644 37.7017 162.193 37.7017 161.762C37.7017 161.108 37.8508 160.521 38.1436 160.014C38.3741 159.615 38.694 159.268 39.0926 158.982L37.5146 156.778C36.8015 157.289 36.2226 157.921 35.7969 158.654C35.2614 159.582 34.9902 160.625 34.9902 161.762C34.9902 162.435 35.0865 163.129 35.279 163.825Z" fill="#BCA2A2"/>
<path d="M62.213 164.134C68.1807 164.134 70.7945 160.083 76.5223 151.206L82.3817 142.181L77.4848 138.078C65.5141 128.049 51.5762 123.165 37.603 124.152L37.7942 126.856C51.0732 125.924 64.317 130.582 75.7428 140.156L78.7999 142.717L74.2448 149.735C68.7555 158.241 66.703 161.423 62.213 161.423C60.1387 161.423 58.4075 160.543 56.4024 159.523C54.4855 158.549 52.0981 157.334 48.3171 156.16C46.9763 155.745 45.6748 155.472 44.452 155.348L44.1781 158.046C45.2234 158.151 46.3459 158.389 47.5145 158.751C51.0746 159.855 53.3467 161.012 55.1742 161.94C57.2945 163.02 59.488 164.134 62.213 164.134Z" fill="#BCA2A2"/>
<path d="M4.68666 176.512L7.05368 175.19C4.17281 170.029 2.71138 164.74 2.71138 159.468C2.71138 157.311 2.95811 155.147 3.44888 153.038L0.805283 152.426C0.271149 154.736 0 157.105 0 159.468C0 165.208 1.57666 170.942 4.68666 176.512Z" fill="#BCA2A2"/>
</g>
<g style="mix-blend-mode:multiply">
<path d="M44.0342 248.643C53.7058 248.643 63.4966 242.076 63.4966 229.527C63.4966 217.001 53.7058 210.447 44.0342 210.447C34.562 210.447 24.4946 217.134 24.4946 229.527C24.4946 233.249 25.4016 236.622 27.1897 239.554L29.5039 238.141C27.9788 235.642 27.206 232.743 27.206 229.527C27.206 218.895 35.877 213.159 44.0342 213.159C52.3596 213.159 60.7852 218.781 60.7852 229.527C60.7852 240.296 52.3596 245.931 44.0342 245.931V248.643Z" fill="#ADB3B5"/>
</g>
<g style="mix-blend-mode:multiply">
<path d="M125.996 138.213H127.179L127.339 137.04C127.883 133.068 128.403 129.604 128.86 126.549C130.963 112.557 131.833 106.765 127.552 100.038C123.145 93.1132 117.028 88.7533 111.111 84.5385C104.86 80.085 98.3977 75.4797 93.9727 67.7875C89.7212 60.4003 89.9382 52.2363 94.5394 46.4827C100.038 39.608 110.335 37.6748 122.082 41.3135C129.089 43.488 133.651 45.8076 136.983 47.5009C146.765 52.4749 147.481 51.37 159.397 32.9041C160.63 30.9953 161.988 28.8885 163.497 26.5689L164.153 25.5616L163.232 24.7903C138.666 4.20673 108.574 -2.15419 82.7313 7.7817C63.8288 15.0496 51.0961 29.706 48.6735 46.9884C45.9173 66.6379 56.8714 86.854 79.5156 103.915C94.2493 115.027 93.6067 122.593 93.1796 127.601C92.9722 130.045 92.7743 132.355 94.4459 134.173C97.2548 137.232 104.92 138.213 125.996 138.213ZM110.951 36.7977C103.178 36.7977 96.6231 39.5362 92.4218 44.7895C87.1088 51.4324 86.8024 60.7636 91.6219 69.1391C96.3411 77.3451 103.049 82.1253 109.537 86.7469C115.505 90.9983 121.141 95.0139 125.265 101.494C129.001 107.366 128.234 112.479 126.18 126.146C125.765 128.906 125.3 132.001 124.815 135.5C106.476 135.464 98.4899 134.568 96.4428 132.339C95.6158 131.44 95.6822 130.174 95.8815 127.83C96.3587 122.229 97.0786 113.763 81.1478 101.75C59.3238 85.3085 48.7453 65.9939 51.3578 47.3653C53.6435 31.0725 65.7349 17.2214 83.7047 10.3128C108.293 0.860879 136.941 6.769 160.566 26.1039C159.314 28.0304 158.172 29.8036 157.118 31.4345C151.427 40.2533 148.293 45.1121 145.935 46.7227C144.106 47.9754 142.62 47.3246 138.212 45.0837C134.794 43.3457 130.113 40.9664 122.884 38.7227C118.711 37.4308 114.689 36.7977 110.951 36.7977Z" fill="#FF9280"/>
</g>
<g style="mix-blend-mode:multiply">
<path d="M112.837 195.297C123.63 195.297 135.247 188.472 135.247 173.484C135.247 158.539 123.63 151.732 112.836 151.732C101.633 151.732 90.2944 159.205 90.2944 173.484C90.2944 187.805 101.633 195.297 112.837 195.297ZM112.836 154.444C122.324 154.444 132.535 160.402 132.535 173.484C132.535 186.609 122.324 192.586 112.837 192.586C103.285 192.586 93.0058 186.609 93.0058 173.484C93.0058 160.402 103.285 154.444 112.836 154.444Z" fill="#FF9280"/>
</g>
<g style="mix-blend-mode:multiply">
<path d="M125.996 144.485H132.651L133.552 137.889C134.091 133.948 134.607 130.513 135.064 127.481C137.272 112.765 138.384 105.378 132.843 96.6719C132.709 96.4617 132.575 96.253 132.438 96.0455L130.174 97.5382L130.553 98.1252C135.552 105.979 134.492 113.03 132.381 127.077C131.924 130.118 131.405 133.568 130.865 137.523L130.284 141.773H125.996C103.187 141.773 95.5223 140.609 91.824 136.582C90.696 135.354 89.9952 133.947 89.682 132.283L87.0181 132.784C87.4275 134.961 88.3466 136.803 89.8271 138.416C94.2032 143.18 101.977 144.485 125.996 144.485Z" fill="#FCCEC7"/>
<path d="M94.5773 58.8223L97.2711 58.5037C97.2128 58.0048 97.1816 57.5073 97.1816 57.0273C97.1816 55.067 97.6547 53.2545 98.5875 51.6425C101.071 47.3531 106.665 45.1989 113.61 45.9079L113.885 43.2115C105.839 42.3845 99.2721 45.0457 96.2421 50.2841C95.0667 52.315 94.4702 54.5844 94.4702 57.0273C94.4702 57.6144 94.5055 58.2177 94.5773 58.8223Z" fill="#FCCEC7"/>
<path d="M144.078 56.3441C151.736 56.3441 155.256 50.8887 164.663 36.3096C165.894 34.4035 167.249 32.3035 168.753 29.9893L172.44 24.3239L167.262 19.983C155.759 10.3467 143.266 3.62377 130.131 0L129.411 2.61378C142.169 6.13316 154.319 12.6771 165.518 22.0612L168.857 24.8594L166.481 28.5116C164.975 30.8285 163.616 32.9312 162.387 34.84C153.314 48.8959 150.259 53.6327 144.078 53.6327C142.528 53.6327 140.986 53.2693 139.074 52.4586L138.014 54.9545C140.277 55.9157 142.147 56.3441 144.078 56.3441Z" fill="#FCCEC7"/>
<path d="M58.1497 92.5615L60.2185 90.8072C50.0359 78.8134 44.6538 65.7499 44.6538 53.0294C44.6538 49.7148 45.0171 46.3865 45.7316 43.1369L43.0839 42.554C42.3261 45.9947 41.9424 49.5195 41.9424 53.0294C41.9424 66.4006 47.5469 80.0715 58.1497 92.5615Z" fill="#FCCEC7"/>
</g>
<g style="mix-blend-mode:multiply">
<path d="M112.703 201.569H112.837C127.091 201.569 141.52 191.922 141.52 173.484C141.52 170.092 141.02 166.872 140.034 163.916L137.462 164.772C138.356 167.454 138.808 170.384 138.808 173.484C138.808 190.142 125.744 198.857 112.837 198.857L112.703 201.569ZM87.0087 186.649L89.4272 185.422C87.6404 181.9 86.7348 177.883 86.7348 173.484C86.7335 167.731 88.2668 162.696 91.2913 158.52L89.0951 156.93C85.7289 161.577 84.0221 167.146 84.0234 173.484C84.0234 178.313 85.028 182.744 87.0087 186.649Z" fill="#FF9280"/>
</g>
<g style="mix-blend-mode:multiply">
<path d="M195.761 121.039H196.944L197.104 119.866C197.396 117.734 197.675 115.873 197.922 114.231C199.044 106.758 199.558 103.347 197.127 99.5283C194.69 95.6971 191.345 93.3151 188.112 91.0118C184.651 88.5444 181.379 86.214 179.067 82.1916C176.91 78.4418 177.006 74.3178 179.317 71.4261C182.11 67.9338 187.4 66.9699 193.47 68.8502C197.191 70.0053 199.619 71.239 201.391 72.1405C207.165 75.0756 207.837 74.0317 214.265 64.0674C214.929 63.0384 215.661 61.905 216.472 60.6564L217.128 59.6491L216.207 58.8777C202.806 47.6499 186.37 44.1861 172.247 49.6183C161.856 53.6136 154.855 61.6881 153.519 71.2213C152.003 82.033 157.984 93.124 170.364 102.451C178.019 108.224 177.704 111.937 177.472 114.647C177.354 116.041 177.231 117.48 178.317 118.663C179.99 120.485 184.065 121.039 195.761 121.039ZM187.66 65.1953C183.287 65.1953 179.583 66.7516 177.2 69.7328C174.175 73.5152 173.99 78.8065 176.715 83.5433C179.324 88.0794 182.991 90.6918 186.539 93.2189C189.699 95.4707 192.685 97.5991 194.839 100.983C196.725 103.946 196.321 106.638 195.24 113.828C195.039 115.172 194.816 116.662 194.581 118.326C188.001 118.305 181.458 118.076 180.313 116.828C180.047 116.538 180.083 115.929 180.174 114.877C180.425 111.917 180.848 106.96 171.997 100.286C160.438 91.5785 154.831 81.3904 156.203 71.5969C157.401 63.056 163.764 55.7854 173.221 52.1494C186.092 47.1998 201.083 50.2149 213.538 60.1968C212.982 61.0536 212.467 61.8535 211.987 62.5964C208.968 67.2749 207.306 69.8521 206.141 70.6479C205.508 71.0831 205.074 70.9706 202.622 69.7233C200.76 68.7784 198.214 67.4837 194.271 66.2595C191.963 65.5451 189.736 65.1953 187.66 65.1953Z" fill="#FF2400"/>
</g>
<g style="mix-blend-mode:multiply">
<path d="M195.761 126.675H201.862L202.687 120.63C202.972 118.551 203.246 116.733 203.484 115.128C204.711 106.981 205.445 102.1 201.882 96.5025C198.853 91.744 194.884 88.916 191.382 86.4215C190.09 85.501 188.871 84.632 187.769 83.7209L186.041 85.8101C187.217 86.7835 188.477 87.6796 189.808 88.6286C193.109 90.9807 196.851 93.646 199.594 97.9585C202.613 102.701 202.011 106.699 200.814 114.661C200.562 116.342 200.288 118.171 200 120.262L199.495 123.963H195.761C184.093 123.963 178.79 123.502 176.163 120.641C174.21 118.512 174.429 115.939 174.559 114.4C174.791 111.671 174.5 109.231 168.606 104.787C167.873 104.235 167.161 103.677 166.471 103.113L164.755 105.213C165.472 105.8 166.212 106.379 166.974 106.952C172.139 110.848 172.004 112.462 171.859 114.17C171.712 115.89 171.406 119.469 174.166 122.475C177.44 126.04 182.672 126.675 195.761 126.675Z" fill="#D92305"/>
<path d="M180.734 78.7414L183.334 77.97C183.204 77.5348 183.139 77.1119 183.139 76.7133C183.139 76.1683 183.263 75.6775 183.507 75.2546L181.297 73.6738C181.245 73.7511 181.198 73.8311 181.152 73.9124C180.673 74.7394 180.428 75.6857 180.428 76.7133C180.428 77.3735 180.532 78.0554 180.734 78.7414Z" fill="#D92305"/>
<path d="M205.495 79.2281C211.19 79.2281 213.637 75.4349 219 67.1231L219.156 66.8818C219.774 65.9233 220.449 64.8754 221.196 63.7326L224.575 58.5375L219.827 54.5585C209.621 46.0068 197.918 41.4869 185.982 41.4869C183.782 41.4869 181.579 41.6442 179.434 41.9533L179.82 44.6362C181.838 44.3461 183.912 44.1983 185.982 44.1983C197.272 44.1983 208.374 48.4999 218.085 56.6368L220.992 59.073L218.924 62.2521C218.176 63.399 217.497 64.4511 216.877 65.4122L216.722 65.6536C211.281 74.0846 209.532 76.5167 205.495 76.5167C203.546 76.5167 201.935 75.6965 200.066 74.7462C198.293 73.846 196.087 72.7235 192.605 71.643C189.983 70.831 187.53 70.6249 185.537 71.0248L186.072 73.6833C187.608 73.3742 189.626 73.5573 191.802 74.2324C195.063 75.2451 197.156 76.3093 198.838 77.1634C200.832 78.1788 202.897 79.2281 205.495 79.2281Z" fill="#D92305"/>
<path d="M151.194 88.9987L153.616 87.7813C151.438 83.4417 150.331 79.0059 150.331 74.5958C150.331 72.5907 150.565 70.5721 151.023 68.5955L148.383 67.9813C147.878 70.1586 147.62 72.3846 147.62 74.5958C147.62 79.4315 148.823 84.2781 151.194 88.9987Z" fill="#D92305"/>
</g>
<g style="mix-blend-mode:multiply">
<path d="M188.677 166.161C197.783 166.161 207.002 159.976 207.002 148.158C207.002 136.36 197.783 130.187 188.677 130.187C179.759 130.187 170.282 136.486 170.282 148.158C170.282 153.977 172.721 159.018 177.148 162.351L178.779 160.185C176.138 158.197 172.993 154.498 172.993 148.158C172.993 138.247 181.074 132.899 188.677 132.899C196.436 132.899 204.291 138.14 204.291 148.158C204.291 158.196 196.436 163.449 188.677 163.449V166.161Z" fill="#FF3D1D"/>
</g>
<g style="mix-blend-mode:multiply">
<path d="M188.677 160.526C194.984 160.526 201.368 156.278 201.368 148.158C201.368 140.06 194.984 135.823 188.677 135.823C182.337 135.823 175.917 140.06 175.917 148.158C175.917 156.278 182.338 160.526 188.677 160.526ZM188.677 138.534C193.483 138.534 198.657 141.545 198.657 148.158C198.657 154.793 193.483 157.815 188.677 157.815C183.839 157.815 178.629 154.793 178.629 148.158C178.629 145.18 179.699 142.691 181.723 140.96C183.547 139.395 186.017 138.534 188.677 138.534Z" fill="#FF2400"/>
</g>
</g>
</svg>
